<svg xmlns="http://www.w3.org/2000/svg" viewBox="0 0 679.43 446.09"><g id="Layer_2" data-name="Layer 2"><g id="Layer_1-2" data-name="Layer 1"><path d="M47.67,392.16h-9a18.71,18.71,0,0,1,9,8.73ZM35.13,410c-2.47,4.53-5.36,5.11-10,5.35,7.08.42,8.82,3,10,5.46Zm-21.85-8.75c0-6.35,0-8.73-5.86-9.4,2.73,1.32,3,2.48,3,9.4v30.69c.08,6.18.08,8.41-3,9.9,5.78-.83,5.86-2.89,5.86-9.9Zm38.85,7.68H48.74c-3.54-11.14-10-16.66-20-16.66-7.09,0-7.09,2.56-7.09,8.57v12.87c5.85-.41,8.16-.58,10.31-2.48,1.32-1.15,2.64-3.13,3.13-7.5h3.55v23H35.13c-.91-5-3.54-7.18-4-7.59-2.47-1.89-5-1.89-9.4-1.89v15.25c0,8.09.42,9.16,9.32,9.33v3.38H0v-3.38c8.16-.26,8.49-1.57,8.49-9.33V401.22c0-7.66-.25-9.06-8.49-9.32v-3.37H52.13Z"/><path d="M76.21,398.17l-1.56,4,14.27,32a16.86,16.86,0,0,1,1.56,5,3.24,3.24,0,0,1-1.56,2.65c1.56-.33,3.62-.91,3.62-4.13,0-1.57-.41-2.72-2.47-7.58Zm5.2,23.76-7.75-17.32-7.18,17.32Zm-19.8,19.88c-1-.26-3.29-.75-3.29-4.3,0-1.23.24-2.06,1.56-6.1-3.71,7.59-4.37,9.08-7.92,10.4Zm38.6-9.82c3.55,8.08,4.12,9.16,10,9.82v3.38H80.09L80,441.81c5.53-.09,8.26-.17,8.26-2.48,0-.83-.09-1.57-1.82-5.61l-3.22-7.58H64.83l-1.4,3.54c-1,2.39-2.56,6.43-2.56,8.16,0,4,5.12,4,8.33,4v3.38H46.52v-3.38c6.92-1.32,8.75-4.62,12-12.13L76.71,387.2h4Z"/><path d="M128.51,401.23c0-6.36,0-8.74-5.85-9.41,2.71,1.33,3,2.48,3,9.41v30.68c0,6.19.09,8.41-3,9.9,5.77-.83,5.85-2.89,5.85-9.9Zm16.91-12.7v3.37c-8.17.25-8.5,1.58-8.5,9.33v31.25c0,7.59.24,9.07,8.5,9.33v3.38H115.23v-3.38c8.16-.26,8.49-1.57,8.49-9.33V401.23c0-7.67-.24-9.08-8.49-9.33v-3.37Z"/><path d="M192.68,403.46a13.45,13.45,0,0,1-2.88,8.48c-1.33,1.57-2.9,2.4-5.78,3.47,3-.65,5-1.15,7.34-2.88a10.78,10.78,0,0,0,4.54-9.16,11.36,11.36,0,0,0-3.72-8.75c-2.72-2.55-5.68-3.13-8.16-3.62,2.48,1,8.66,3.38,8.66,12.46m-5.27,25.64c.73,9.24,1,12.62,7.41,14.85-3.46-3.05-3.54-3.71-4.46-14.36-.56-6.93-2.22-9.15-8-11.21,2.15,1.15,4.37,2.47,5,10.72m-11.88-14.43c4,0,7.09,0,9.64-1.32,4.54-2.39,5.53-6.6,5.53-9.73,0-6.44-3.63-11.72-9.31-11.72-5.86,0-5.86,3.55-5.86,8.58Zm-8.42-13.45c0-6.35,0-8.74-5.85-9.4,2.72,1.33,3,2.48,3,9.4V431.9c.09,6.2.09,8.42-3,9.91,5.77-.83,5.85-2.89,5.85-9.91Zm8.42,31.26c0,7.59.25,9.07,8.49,9.33v3.38H153.83v-3.38c8.17-.26,8.5-1.57,8.5-9.33V401.22c0-7.66-.25-9.06-8.5-9.32v-3.37h29c8.9,0,14.43.9,18.55,5.11a13.14,13.14,0,0,1,3.71,9.07c0,3.22-1.15,9-8.9,12.12a38.27,38.27,0,0,1-13.36,2.32c12.53,1.06,14.43,8.08,15.42,12.36,1.65,6.68,2.31,9.33,4.94,9.33,3.14,0,3.3-5,3.3-6.36h3.38c-.07,2.48-.07,5.78-2,8.67-2.89,4.36-7.59,4.94-10.14,4.94-11.55,0-12.05-9.49-12.38-15-.41-7.67-.74-12.94-9.89-13Z"/><path d="M263.78,441.81l.58-9.58a21,21,0,0,1-10.31,9.58Zm-1.39-49.74h-8.83c2.72,1.32,6.34,3.05,8.83,8.25Zm-12,17.57c-2.88,5.11-6.76,5.36-10.14,5.52,7.33.58,8.57,2.31,10.14,5.28Zm-22.35-8.41c0-6.36,0-8.74-5.86-9.41,2.72,1.33,3,2.48,3,9.41v30.68c0,6.19.09,8.41-3,9.9,5.78-.83,5.86-2.89,5.86-9.9Zm38.77,7.58h-3.39c-2.72-8-6.52-16.65-19.71-16.65-7.26,0-7.26,2.64-7.26,9.07V413.6c4.53-.09,7.51-.25,10.39-2.64,2.64-2.15,3.13-4.79,3.55-7.26H254v23h-3.55c-2.55-8.07-4.53-9.73-13.94-9.56v15.33c0,5.94,0,9.24,7.26,9.24a21.08,21.08,0,0,0,14.11-4.87c5.19-4.28,6.51-9.89,7.34-13.52h3.87l-.83,21.86H214.79v-3.38c8.16-.26,8.5-1.57,8.5-9.33V401.23c0-7.67-.25-9.07-8.5-9.32v-3.38h52Z"/><path d="M349.32,431.49a27.11,27.11,0,0,1-9.73,10.32h9ZM316.5,401.23c0-6.35,0-8.74-5.86-9.41,2.72,1.33,3,2.48,3,9.41v30.68c.08,6.18.08,8.41-3,9.9,5.77-.83,5.86-2.89,5.86-9.9Zm36.29,44H303.22v-3.38c8.17-.25,8.49-1.57,8.49-9.33V401.23c0-7.67-.25-9.08-8.49-9.32v-3.39h31v3.39c-8.9.16-9.31,1.15-9.31,9.32v31.25c0,4.13.08,5.28.82,6.44,1.25,2.06,4,2.72,5.86,2.72,6.6,0,15.59-7.34,18.64-18.48h3.87Z"/><path d="M389.41,398.17l-1.56,4,14.27,32a16.92,16.92,0,0,1,1.57,5,3.25,3.25,0,0,1-1.57,2.65c1.57-.33,3.62-.91,3.62-4.13,0-1.57-.41-2.72-2.47-7.58Zm5.2,23.76-7.75-17.32-7.17,17.32Zm-19.79,19.88c-1-.26-3.3-.75-3.3-4.3,0-1.23.25-2.06,1.57-6.1-3.72,7.59-4.37,9.08-7.92,10.4ZM413.41,432c3.56,8.08,4.13,9.16,10,9.82v3.38H393.29l-.08-3.38c5.53-.09,8.25-.17,8.25-2.48,0-.83-.09-1.57-1.82-5.61l-3.21-7.58H378l-1.39,3.54c-1,2.39-2.57,6.43-2.57,8.16,0,4,5.12,4,8.33,4v3.38H359.72v-3.38c6.93-1.32,8.75-4.62,12-12.13l18.22-42.48h4Z"/><path d="M491.61,392.16h-9a18.73,18.73,0,0,1,9,8.73ZM479.08,410c-2.48,4.53-5.37,5.11-10,5.35,7.1.42,8.83,3,10,5.46Zm-21.86-8.75c0-6.35,0-8.73-5.86-9.4,2.73,1.32,3,2.48,3,9.4v30.69c.08,6.18.08,8.41-3,9.9,5.78-.83,5.86-2.89,5.86-9.9Zm38.84,7.68h-3.37c-3.56-11.14-10-16.66-20-16.66-7.09,0-7.09,2.56-7.09,8.57v12.87c5.86-.41,8.17-.58,10.32-2.48,1.31-1.15,2.63-3.13,3.13-7.5h3.55v23h-3.55c-.91-5-3.55-7.18-4-7.59-2.48-1.89-5-1.89-9.41-1.89v15.25c0,8.09.42,9.16,9.32,9.33v3.38h-31v-3.38c8.17-.26,8.5-1.57,8.5-9.33V401.22c0-7.66-.25-9.06-8.5-9.32v-3.37h52.12Z"/><path d="M552.73,441.81l.58-9.58A20.91,20.91,0,0,1,543,441.81Zm-1.4-49.74h-8.82c2.72,1.32,6.34,3.05,8.82,8.25Zm-12,17.57c-2.88,5.11-6.75,5.36-10.14,5.52,7.33.58,8.57,2.31,10.14,5.28ZM517,401.23c0-6.36,0-8.74-5.86-9.41,2.73,1.33,3,2.48,3,9.41v30.68c0,6.19.08,8.41-3,9.9,5.78-.83,5.86-2.89,5.86-9.9Zm38.77,7.58H552.4c-2.71-8-6.51-16.65-19.7-16.65-7.26,0-7.26,2.64-7.26,9.07V413.6c4.53-.09,7.5-.25,10.39-2.64,2.63-2.15,3.14-4.79,3.54-7.26h3.55v23h-3.55c-2.55-8.07-4.53-9.73-13.93-9.56v15.33c0,5.94,0,9.24,7.26,9.24a21,21,0,0,0,14.1-4.87c5.18-4.28,6.51-9.89,7.34-13.52H558l-.82,21.86H503.74v-3.38c8.17-.26,8.5-1.57,8.5-9.33V401.23c0-7.67-.25-9.07-8.5-9.32v-3.38h52Z"/><path d="M614,391.9h-8a15.4,15.4,0,0,1,8.33,9.33Zm-24.09,0H587v40c.09,6.2.09,8.42-2.89,9.91,5.7-.83,5.78-2.89,5.78-9.91Zm-21.36,0-.5,9.33c1.4-4.13,3.71-7.51,7.67-9.33Zm49,16.42h-3.13A23,23,0,0,0,609,396.53c-3.63-4.13-8.25-4.46-10.64-4.63v40.58c0,8.09.33,9.16,9.32,9.33v3.38H575.75v-3.38c8.91-.17,9.33-1.16,9.33-9.33V391.9c-3.48.09-13.37.5-16.26,16.42h-3.21l.66-19.79h51.22Z"/><path d="M674.16,441.81l.57-9.58a21,21,0,0,1-10.31,9.58Zm-1.41-49.74h-8.83c2.73,1.32,6.35,3.05,8.83,8.25Zm-12,17.57c-2.88,5.11-6.75,5.36-10.14,5.52,7.33.58,8.58,2.31,10.14,5.28Zm-22.35-8.41c0-6.36,0-8.74-5.86-9.41,2.73,1.33,3,2.48,3,9.41v30.68c0,6.19.09,8.41-3,9.9,5.78-.83,5.86-2.89,5.86-9.9Zm38.76,7.58h-3.37c-2.73-8-6.52-16.65-19.72-16.65-7.25,0-7.25,2.64-7.25,9.07V413.6c4.53-.09,7.5-.25,10.39-2.64,2.63-2.15,3.13-4.79,3.54-7.26h3.55v23h-3.55c-2.55-8.07-4.53-9.73-13.93-9.56v15.33c0,5.94,0,9.24,7.25,9.24a21,21,0,0,0,14.1-4.87c5.2-4.28,6.52-9.89,7.35-13.52h3.87l-.82,21.86H625.16v-3.38c8.17-.26,8.5-1.57,8.5-9.33V401.23c0-7.67-.25-9.07-8.5-9.32v-3.38h52Z"/><path d="M517.2,378.72l14.56-7.17h4.32l14.18,7.17-1,1.24-15.42-6.68L518.44,380Zm13-8.82-16.91,8.34,4.56,4.78L534,379.3,550,383l4.2-4.88-17-8.24Z"/><g id="Layer_2-2" data-name="Layer 2"><g id="Layer_1-2-2" data-name="Layer 1-2"><path d="M178.63,139.43C196.1,50.6,282.46-7.81,371.19,9.24s146.65,103.19,129.18,192S396.53,348.49,307.84,331.45s-146.67-103.19-129.21-192m-6.23-1.19c-18.14,92.22,42,181.65,134.23,199.37s181.87-42.91,200-135.14S464.61,20.8,372.4,3.08,190.53,46,172.4,138.24"/></g></g><path d="M378.09,126.24H362a33.48,33.48,0,0,1,16,15.6Zm-22.38,31.81c-4.41,8.09-9.57,9.12-17.81,9.55,12.65.75,15.75,5.32,17.81,9.74Zm-39-15.62c0-11.34,0-15.6-10.45-16.78,4.86,2.36,5.3,4.42,5.3,16.78v54.78c.14,11,.14,15-5.3,17.67,10.31-1.48,10.45-5.15,10.45-17.67Zm69.36,13.7H380c-6.32-19.88-17.81-29.73-35.63-29.73-12.66,0-12.66,4.56-12.66,15.3v23c10.45-.72,14.57-1,18.4-4.43,2.36-2.05,4.72-5.59,5.6-13.38H362v41.07h-6.33c-1.62-9-6.33-12.81-7.21-13.55-4.42-3.38-9-3.38-16.79-3.38v27.24c0,14.43.75,16.35,16.64,16.64v6H293v-6c14.57-.45,15.16-2.79,15.16-16.64V142.43c0-13.68-.44-16.19-15.16-16.64v-6h93.06Z"/><path d="M350.81,17.25q-4.9-.34-9.76-.37A4.82,4.82,0,0,0,343.5,20C346.23,21.28,349.46,19.61,350.81,17.25Z"/><path d="M318.69,281.2a4.44,4.44,0,0,0,.93-6.2,4.91,4.91,0,0,0-3-2.07,4.17,4.17,0,0,0-3,.62,4.63,4.63,0,0,0,5.14,7.65Zm-1.95-3a6.78,6.78,0,0,0,2-1.42,2.57,2.57,0,0,1-1.21,2.86,2.48,2.48,0,0,1-2.62-.35,6,6,0,0,1-.46-.42C314.58,278.72,316,278.76,316.74,278.18Z"/><path d="M401.61,214.49a3.74,3.74,0,0,1-3.18.26,4.11,4.11,0,0,0-.59,3c.83,4,6.17,5,6.17,5a3,3,0,0,0-2.78,2.1,8.29,8.29,0,0,0,6.71,4.13c-8.07,5.78-7.84,15.93-7.84,15.93l.12,0c3.34-5.15,10-12.56,17.25-19.66a33.48,33.48,0,0,0-12.06-6.54c4-1.05,10.42,2.34,14.13,4.6,2.3-2.17,4.66-4.27,7-6.27-.78-4.5-9.71-18.05-9.71-18.05,2.3,3.17,9.76,13.2,12.65,15.62l1.21-1a91.45,91.45,0,0,1,11.19-7.51c-.22-6,1.78-11.26,2.76-14.6a38.14,38.14,0,0,1,1.37-4.2s-.78,4-1.17,7.77c-.38,3.3-1,7.25-.21,9.52a89.85,89.85,0,0,1,19.76-7.9,8.81,8.81,0,0,0-3.89-1.3,15,15,0,0,0-4.83.86,6.62,6.62,0,0,0-1.49-7.72,6.13,6.13,0,0,0-2.36.94,8.59,8.59,0,0,0-2.25-6.38,27.07,27.07,0,0,0-3.71-3.13,9.38,9.38,0,0,1,.42,2.74,3.74,3.74,0,0,1-2.87,3.46,16.72,16.72,0,0,0-4.39,3l-.6-1.79c-.61-1.77-2.09-1-3,.91a56.06,56.06,0,0,0-3.55,7.21c-.91,2.8.49,5.15,2.29,7s1.32,4.35.17,4.7-2.33-1.05-2.67-4.29c-.53-4.36-5.38-10.88-10.05-10.43-.75.06-1.09,2.26-1.09,2.26-1.53-1.4-3.21-.9-5.35-2.31s-3.23-.62-3.23-.62a2.74,2.74,0,0,1,.68,2.82,25.23,25.23,0,0,0,0,4.76,1.83,1.83,0,0,0-2.35,1.07,1.64,1.64,0,0,0-.1.38c-.43,2.89,1.65,6.93,4,10s4.07,3,5.16,5c.85,1.65-.11,3.11-2,1.8-2.64-1.85-2.9-5.35-5.13-7a4.82,4.82,0,0,0-6.76.47c-.1.11-.19.23-.28.35-.46.52,1,2.38,1,2.38A12,12,0,0,0,401.61,214.49Z"/><path d="M336.09,57.36a30.16,30.16,0,0,1-3-1.46,28.22,28.22,0,0,0-5.45,2.7c4.53,4.13,7.94,4.59,10.69,3.65a11.38,11.38,0,0,1-5.93-3.15A12.41,12.41,0,0,1,336.09,57.36Z"/><path d="M457.2,76.29a11.63,11.63,0,0,1-3.17,6,12.1,12.1,0,0,1-1.74-3.73,19.08,19.08,0,0,1-1.48,3A27.37,27.37,0,0,0,453.5,87C457.64,82.47,458.13,79.07,457.2,76.29Z"/><path d="M485.94,141.5c1.75,1.14,3.44,2.38,5.08,3.68-.18-1.1-.37-2.19-.57-3.29l-.7-.13a20,20,0,0,0-3.79-.39Z"/><path d="M271.76,121.58a3.7,3.7,0,0,1,3.17-.08,4.11,4.11,0,0,0,.59-3c-.84-4-6.17-5-6.17-5a3,3,0,0,0,2.79-2.1,8.31,8.31,0,0,0-6.71-4.13c8-5.79,7.74-15.9,7.74-15.9l-.11,0c-3.34,5.15-10,12.58-17.24,19.66a33.86,33.86,0,0,0,12,6.57c-4,1-10.42-2.35-14.12-4.62-2.31,2.16-4.66,4.29-7,6.28.81,4.5,9.73,18,9.73,18-2.29-3.14-9.74-13.18-12.65-15.61-.39.34-.79.65-1.19,1a94.22,94.22,0,0,1-11.22,7.52c.25,6-1.77,11.24-2.75,14.6a34.28,34.28,0,0,1-1.36,4.2s.78-4,1.17-7.79c.38-3.32,1-7.25.22-9.53a90.54,90.54,0,0,1-19.76,7.9,9,9,0,0,0,3.91,1.29,15,15,0,0,0,4.82-.86,6.73,6.73,0,0,0,1.48,7.72,6.58,6.58,0,0,0,2.4-1,8.58,8.58,0,0,0,2.23,6.38,25.84,25.84,0,0,0,3.72,3.12,10.11,10.11,0,0,1-.44-2.73,3.83,3.83,0,0,1,2.93-3.39,15.7,15.7,0,0,0,4.39-3l.6,1.77c.59,1.81,2.07,1,3-.92a50.92,50.92,0,0,0,3.56-7.22c.92-2.8-.48-5.16-2.28-7s-1.32-4.33-.15-4.7,2.31,1.07,2.7,4.3c.48,4.37,5.38,10.87,10,10.45.78-.06,1.1-2.26,1.1-2.26,1.52,1.38,3.2.89,5.34,2.29s3.24.63,3.24.63a2.74,2.74,0,0,1-.68-2.82,24.63,24.63,0,0,0,0-4.78,1.82,1.82,0,0,0,2.34-1,1.74,1.74,0,0,0,.11-.39c.43-2.89-1.64-6.95-3.94-10s-4.11-3-5.19-5c-.84-1.65.1-3.13,2-1.79,2.65,1.83,2.92,5.32,5.15,6.94a4.85,4.85,0,0,0,6.78-.51c.09-.11.18-.22.26-.34.44-.51-1-2.37-1-2.37A12.47,12.47,0,0,0,271.76,121.58Z"/><path d="M380.21,22.2q-3.15-.86-6.36-1.57a24.61,24.61,0,0,0,1.62,3.68,31.07,31.07,0,0,0,13,12.71,29.73,29.73,0,0,0,7.18,2.4,24.7,24.7,0,0,0,23.93-.17l.18-.1q-4.37-2.65-8.92-5c-.66.27-1.34.51-2,.73a23.38,23.38,0,0,1-8.36.89,16.42,16.42,0,0,1-5.14-3.23,20.8,20.8,0,0,1-4.07-4.36A22.16,22.16,0,0,1,389.52,25c-1.8-.61-3.61-1.19-5.45-1.74a22,22,0,0,0,3.08,7.51A25.61,25.61,0,0,1,380.21,22.2Z"/><path d="M225.21,265.06a11.38,11.38,0,0,1,3.18-5.95,11.72,11.72,0,0,1,1.72,3.71,24.44,24.44,0,0,1,1.47-3.05,25.83,25.83,0,0,0-2.67-5.43C224.76,258.94,224.28,262.31,225.21,265.06Z"/><path d="M448.07,147.32c21.08,13.27,35,25.58,44.28,36.18a152.73,152.73,0,0,0,.48-20.7c-9.73-8.68-19.84-15.31-27-20.29-13.49-9.4-53.82-32.76-70.56-54.44l.77-3.93s10.5,13.42,36.2,29.26c17.23,10.66,39,24.52,56,37.9q2,1.55,4,3.26c-.24-2.37-.53-4.74-.87-7.09a187.92,187.92,0,0,0-22.06-16.05c-25.89-16-51.58-29.8-66.52-46.09-1.94-2.14-3.82-4.25-5.64-6.39.5-1.39,2.5-6.55,5.86-8.43,3.93-2.22,5.69-.84,6.58.49a3.14,3.14,0,0,1,.05,3s3.89.39,5.39-2.74-.87-6.9-3.79-7.79a6.54,6.54,0,0,0,1.34-1.23,2.94,2.94,0,0,0-2.38-1.84c-1.82-.26-1.79-.91-.13-2.61s8.34-7.41,16.1-7.6,16.29,3.14,20.64,13.62c4.15,10.07-2.79,17.3-7,19.68a12.73,12.73,0,0,1-10.22,1c-2.64-.93-5.62-3.92-4-6.95a7.33,7.33,0,0,0,6.76,1.73c3.75-1.19,7.29-5.81,4.44-10.66s-9.57-6.3-15.95.18a11.59,11.59,0,0,0-3,12.66l-.55,0s-5,.6.11,7,10.23,5.47,10.23,5.47l-.74,1.5c-.72,1.49-.1,2.46,3.21,3.44s8.6-.22,8.6-.22a6.58,6.58,0,0,0-.89,6.18c.74,1.07,2.76.53,2.76.53a23.61,23.61,0,0,0,0,5.18c.34,2.15,1.62,2.1,3.2,1.2a31.2,31.2,0,0,1,3.32-1.59s0,1.59,1.17,1.71,4.07-2.76,4.07-2.76-.34,2.42,1.82,7,7.26,6.89,7.93,6.61,1-1.83,1-1.83c1.54,1.32,8.27,5.17,13.52,1.25,5.56-4.23,4.48-8.87,2.05-11.61a4.46,4.46,0,0,0-6.25,0,4.33,4.33,0,0,0-1.14,2c-.25,2.56,1.75,5.21,4.5,4.13a3.85,3.85,0,0,1-2.53,2.71c-5.38,2.06-9-4.27-11.82-12.35s1.54-20.68.4-29c0-.31-.12-.62-.18-.93q-3.09-4-6.43-7.89a7.94,7.94,0,0,0-.81-.31,13.32,13.32,0,0,0-1.74-.51,2.37,2.37,0,0,0-.06-.7,16.94,16.94,0,0,0-.31-1.73A152,152,0,0,0,430.05,46a7.73,7.73,0,0,0-1.18-.11,21.09,21.09,0,0,0-3.73.12,3.69,3.69,0,0,0,2.43-1.79q-1.87-1.29-3.78-2.54a5.18,5.18,0,0,0,.5,1.19,5.11,5.11,0,0,0,1.24,1.34,2.81,2.81,0,0,1-.49.13,2,2,0,0,1-2.15-.58,2,2,0,0,1,.58-2.29L422,40.56a3.48,3.48,0,0,0-.45,4.21,3.15,3.15,0,0,0,2.14,1.33,27.31,27.31,0,0,0-7,2.23,2.9,2.9,0,0,0,.78-4,2.66,2.66,0,0,0-1.75-1.16,3.31,3.31,0,0,0-2.45.53,2.9,2.9,0,0,0-1.09,4l.08.14A2.85,2.85,0,0,0,415.14,49,43.41,43.41,0,0,0,402,59.72c-1.36,1.8-6.68,8.15-8.34,15-8.41-10.3-15.15-20.75-19.3-31.84a4.05,4.05,0,0,0-2-6.41c-.16-.57-.38-1.13-.52-1.72s-.16-1.33-.3-2a3.29,3.29,0,0,0,2.61-.42,3.57,3.57,0,0,0,.74-5,3.84,3.84,0,0,0-2.41-1.61,3.47,3.47,0,0,0-1.69.17,36.26,36.26,0,0,1,.24-4.42,2.84,2.84,0,0,0,.63-1.4c-.82-.17-1.64-.35-2.46-.51l-3.34-.6a2.44,2.44,0,0,0,0,.81l-.45-.88c-1.87-.31-3.75-.58-5.62-.82a23.77,23.77,0,0,1,4.72,12.76c.13,7.78-3.21,16.36-13.66,20.72-10.1,4.23-17.31-2.7-19.69-6.86a12.77,12.77,0,0,1-1-10.27c.93-2.63,3.94-5.66,6.93-4a7.33,7.33,0,0,0-1.74,6.74c1.18,3.78,5.77,7.26,10.62,4.43s6.4-9.63-.09-16a11.49,11.49,0,0,0-12.63-2.92l.1-.55s-.53-4.92-7,.33-5.55,10.26-5.55,10.26l-1.51-.74c-1.47-.73-2.43-.08-3.44,3.22s.21,8.6.21,8.6c-1.78-1.43-5.09-1.6-6.18-.84s-.54,2.76-.54,2.76a22.7,22.7,0,0,0-5.21,0c-2.16.38-2.11,1.64-1.22,3.23s1.6,3.28,1.6,3.28-1.62,0-1.65,1.1,2.72,4.07,2.72,4.07-2.42-.33-6.95,1.85-6.87,7.29-6.59,8,1.83.93,1.83.93c-1.35,1.58-5.21,8.33-1.3,13.56,4.17,5.56,8.83,4.43,11.63,2a4.34,4.34,0,0,0,.12-6.19,4.49,4.49,0,0,0-2.09-1.2C299.6,76.26,297,78.26,298,81a3.84,3.84,0,0,1-2.77-2.54c-2.05-5.36,4.33-9.06,12.42-11.9s20.63,1.47,28.95.23a10.63,10.63,0,0,0,9.11-7.48,14.55,14.55,0,0,0,.52-1.73,5.51,5.51,0,0,0,.71-.09A22.16,22.16,0,0,0,354.66,55l-.11.06a4.35,4.35,0,0,0-1,6.11l.05.07a4.25,4.25,0,1,0,7-4.75,4.75,4.75,0,0,0-3-2,4,4,0,0,0-2.93.48,27.29,27.29,0,0,0,11-11.18c.14.83.3,1.68.48,2.53a3.46,3.46,0,0,0-2.12.58,4.15,4.15,0,0,0-.9,5.77,4.21,4.21,0,0,0,5.16,1.62c5.78,18.49,18,38.36,25.57,48.22,0,0,.86,8.08,13.87,23,5.76,6.62,14.18,13.49,22.72,19.86a3.76,3.76,0,0,0-1-.41,4.34,4.34,0,0,0-3.14.69,3.74,3.74,0,1,0,4.15,6.19h0a4,4,0,0,0,1.3-5.4,5.21,5.21,0,0,0-.59-.56c3.69,2.75,7.36,5.37,10.87,7.86a4,4,0,0,0-1.12-.45,4.84,4.84,0,0,0-3.62.79,4.35,4.35,0,0,0-1.5,6l.05.07a4.64,4.64,0,0,0,7.66-5.18,4.09,4.09,0,0,0-.76-.74c3.84,2.7,7.48,5.22,10.57,7.41A4.35,4.35,0,0,0,452,161a5.25,5.25,0,0,0-3.94.85,4.61,4.61,0,1,0,5.09,7.65l0,0a4.89,4.89,0,0,0,1.63-6.64,4.61,4.61,0,0,0-.93-.89c1.58,1.13,3.05,2.22,4.3,3.16,2.12,1.64,4.54,3.56,7,5.61a4.66,4.66,0,0,0-1.39-.56,5.59,5.59,0,0,0-4.22.92,5,5,0,1,0,5.41,8.29l.17-.12a5.22,5.22,0,0,0,1.72-7.1,4.69,4.69,0,0,0-.6-.58,131.87,131.87,0,0,1,10.45,9.61,5.24,5.24,0,0,0-2.48-1.31,6.16,6.16,0,0,0-4.57,1,5.37,5.37,0,1,0,5.93,8.92l.05,0a5.7,5.7,0,0,0,2-7.53,65.77,65.77,0,0,1,8.28,10.68,5.57,5.57,0,0,0-2.72-1.46,6.48,6.48,0,0,0-7.54,5.17c0,.15-.05.3-.07.45a57.59,57.59,0,0,0-22,5.09c-23.82,10.55-47.16,33.5-63.27,59.5-14.52,23.37-27.24,46.53-41.54,61.87,1.93-.13,3.86-.3,5.77-.5a194.89,194.89,0,0,0,17.57-24.23c10.73-17.26,24.69-39.13,38.11-56.24,15.13-19.27,42.39-40.66,67-41.12a6,6,0,0,0,7.55.5,44.94,44.94,0,0,1,4.6.88c.26-1.16.51-2.33.74-3.5q.65-3.34,1.15-6.69a57.9,57.9,0,0,0-9.68-12.21c-19.73-19.59-38.47-29.38-54.29-42.65s-22.25-21.4-23.14-24.48C404.13,113.26,419.62,129.42,448.07,147.32Zm-20.43-77.7a4.75,4.75,0,0,1,1.22-.47v0a3.15,3.15,0,0,1,3.87,2.2,3.1,3.1,0,0,1-.67,2.87s-.25-4.51-3.87-3.26c-3.23,1.14-2.37,5-2.37,5A4.62,4.62,0,0,1,427.64,69.62Zm25,37.08v0s0-.94-.08-2.81-.41-4.79,1.11-4.48S454,102.81,452.62,106.7Zm.09-38a21,21,0,0,1,2.35,2.17c3.26,3.73,6.78,8.85-1.28,17.29l-.44.47-.37-.48a24,24,0,0,1-2.86-5.45,24.83,24.83,0,0,1-3.7,4.36,19.67,19.67,0,0,0,12.29,4.11.47.47,0,0,1,.46.49v0a.58.58,0,0,1-.59.5,20.77,20.77,0,0,1-13-4.41,23.25,23.25,0,0,1-2.84,2.08c-.43.25-.91.48-1.34.71a29,29,0,0,0,17.37,5.72.45.45,0,0,1,.52.38.19.19,0,0,1,0,.08.6.6,0,0,1-.55.55c-.39,0-.78,0-1.17,0a39.29,39.29,0,0,0,.83,14.29A31.9,31.9,0,0,1,456,97.28a27.91,27.91,0,0,1-5-1,48.63,48.63,0,0,0-5.35,7.55,50.71,50.71,0,0,1,2.63-8.42A31.17,31.17,0,0,1,445,94a59.9,59.9,0,0,1-5.34,3.44l3.7-4.27-.82-.52a12.15,12.15,0,0,1-11.34,2.7s4.39.64,10.3-3.36c-.43-.26-.81-.54-1.21-.82A17.65,17.65,0,0,1,424.6,89.6a13,13,0,0,1-6-13.39,17.8,17.8,0,0,1,3.58-6.83C419,73.74,418.16,79.61,421.17,84a13.71,13.71,0,0,0,6.7,5.52,17,17,0,0,0,3,.87c6.34,1.22,11.62-1.93,14.63-4.25A21,21,0,0,0,452.71,68.72ZM414.56,47.31a1.31,1.31,0,0,1-.87-.54c-.49-1.09.86-2,.74-1.92a3.34,3.34,0,0,0,1.29,2.39,1.39,1.39,0,0,1-.35.09A3.14,3.14,0,0,1,414.56,47.31Zm-8.91,18.45a4.93,4.93,0,0,1,6.09,3.3.83.83,0,0,0,0,.15,4,4,0,0,1-.29,2.6c.32-.62-.38-2-.64-2.42a4,4,0,0,0-2.72-2.18c-3.55-.68-7.14,3-9.23,5.51,0,0-.36.44-.51.59A13.18,13.18,0,0,1,405.65,65.76ZM343.41,37.63a3.17,3.17,0,0,1-2.86-.59s4.56-.26,3.28-3.83c-1.12-3.28-5-2.34-5-2.34A4.57,4.57,0,0,1,345,32.43a4.43,4.43,0,0,1,.55,1.37A3.1,3.1,0,0,1,343.41,37.63ZM310.78,57.7c1.84-.15,4.78-.48,4.46,1.08-.14.7-.93.8-2.1.58A46.85,46.85,0,0,1,308,57.75,20.28,20.28,0,0,0,310.78,57.7Zm33,2.32c-3.77,3.29-8.85,6.82-17.27-1.18l-.49-.45.5-.36a24.62,24.62,0,0,1,5.46-3,24,24,0,0,1-4.34-3.63,20.06,20.06,0,0,0-4.16,12.31.42.42,0,0,1-.4.44h-.11a.52.52,0,0,1-.5-.55,21,21,0,0,1,4.45-13,24.78,24.78,0,0,1-2-2.86,10.11,10.11,0,0,1-.71-1.34,28.87,28.87,0,0,0-5.77,17.41.45.45,0,0,1-.39.51.24.24,0,0,1-.12,0,.5.5,0,0,1-.51-.5c0-.42,0-.81,0-1.18a38.75,38.75,0,0,0-14.27.87,32.77,32.77,0,0,1,14.34-2.48,25.57,25.57,0,0,1,1-5,46,46,0,0,0-7.52-5.32,53.53,53.53,0,0,1,8.42,2.58A25.67,25.67,0,0,1,320.78,50a53.72,53.72,0,0,1-3.37-5.33l4.26,3.67c.16-.27.33-.53.51-.79a12.13,12.13,0,0,1-2.73-11.24s-.64,4.33,3.32,10.27c.28-.41.54-.82.83-1.21a17.77,17.77,0,0,1,1.58-15.71c2.92-4.33,8-7.15,13.38-6a17.51,17.51,0,0,1,6.82,3.56c-4.37-3.27-10.22-4.06-14.72-1A13.45,13.45,0,0,0,325.22,33c-3.11,7.65.62,14.12,3.25,17.57a20.79,20.79,0,0,0,17.45,7.11A20.26,20.26,0,0,1,343.74,60Zm12.06-3.45a2.44,2.44,0,0,1,2.63.38,5.45,5.45,0,0,1,.46.41,7.3,7.3,0,0,0-2.33.7,8.18,8.18,0,0,0-2,1.37A2.58,2.58,0,0,1,355.8,56.57Zm9.67-7.17a5,5,0,0,0-.78,2.92,3.1,3.1,0,0,1-.5-3.9,2.56,2.56,0,0,1,2.3-1.13c.07.32.13.63.2.94A3.12,3.12,0,0,0,365.47,49.4Zm63.86,100.78a1.86,1.86,0,0,1-2.5-2.49,5.19,5.19,0,0,0,1.25,1.31,5.59,5.59,0,0,0,1.68.91C429.84,149.91,429.65,150.05,429.33,150.18Zm11.11,9a1.85,1.85,0,0,1-2.49-2.47,8.54,8.54,0,0,0,1.25,1.3,5.27,5.27,0,0,0,1.7.91A1.1,1.1,0,0,1,440.44,159.18ZM452,167.64v.07a3,3,0,0,1-3.17.12,2.58,2.58,0,0,1-.64-3.61l.12-.16c.09,0,.21,1.92,1.46,2.44a4.13,4.13,0,0,0,2.92.47A2.07,2.07,0,0,1,452,167.64Zm11.67,10.13a2.88,2.88,0,0,1-3.24-.17,2.56,2.56,0,0,1-.24-3.64l.14-.15c.09,0,0,1.9,1.18,2.57a4,4,0,0,0,2.85.78c.15-.14-.14.22-.72.53Zm9.61,10.69v.07a3,3,0,0,1-3.45-.66,2.9,2.9,0,0,1,.59-4.08,3.7,3.7,0,0,0,.65,3.1,4.18,4.18,0,0,0,2.92,1.3A2.21,2.21,0,0,1,473.24,188.46Zm5.83,8.65,0,.07a8.3,8.3,0,0,0-1.32,0,4.24,4.24,0,0,1,2.53-2.92A5.7,5.7,0,0,0,479.07,197.11Zm8.36-1.41c.48.92.81,1.86,1.2,2.79a5.93,5.93,0,0,0-1.2-.35l0,.07A5.6,5.6,0,0,0,487.43,195.7ZM371,27.67a1.82,1.82,0,0,1,2.05.4,2,2,0,0,1,.42.41,5,5,0,0,0-1.62.61,4.07,4.07,0,0,0-.76.61,17.22,17.22,0,0,1-.28-1.75A.87.87,0,0,1,371,27.67Zm-1,20.74c-.64-2.25-1.09-4.19-1.41-5.84a5.43,5.43,0,0,0,.79.8c5.89,18.05,22.44,36.32,22.44,36.32l-.54,3.82c-.19,0-1.72-.81-11.55-14.51a65.47,65.47,0,0,1-9.1-18.62A4.71,4.71,0,0,0,369.94,48.41Zm33.53,59.77A126.78,126.78,0,0,1,379.21,73.8a13.43,13.43,0,0,0-.84-1.48,7.58,7.58,0,0,1,.6.88l-1.47-2.54a182.87,182.87,0,0,0,28.35,32.21,427.49,427.49,0,0,0,33.48,27.44,249.13,249.13,0,0,1-34.61-26.26c-1.94-1.74-3.83-3.47-5.5-5.22,2,2.12,4.06,4.23,6.26,6.38a363.21,363.21,0,0,0,32.65,27.9,223.66,223.66,0,0,1-33.81-26.79A141.75,141.75,0,0,1,392,92.74a160.15,160.15,0,0,0,12.74,14.34c16.54,16.68,32,28.3,32.2,28.75A250.22,250.22,0,0,1,403.47,108.18Z"/><path d="M488.06,208.18H488a43.12,43.12,0,0,0-7-.87,7.11,7.11,0,0,0-2.47-2.05,5.49,5.49,0,0,0-1.52-.53c-2.73-.53-5.6,1.05-7.63,3.51a70.18,70.18,0,0,0-19.26,6.71c-23.93,12.3-39.43,36.49-48.91,50.05-7.45,10.69-23.56,37.92-40.66,57.27,1.35-.19,2.71-.41,4.05-.64,14.31-16,24-29.82,24.28-30a259.05,259.05,0,0,1-21.76,29.54l1-.2q12.48-13.49,23.57-28.15a229.17,229.17,0,0,1-21,27.63l.93-.21c13.48-14.17,22.5-26.1,22.84-26.2a276,276,0,0,1-20.27,25.62c1.86-.45,3.69-.93,5.52-1.44A288,288,0,0,0,406,282.75c18-28.57,34.23-44.16,46.87-52.65a87.73,87.73,0,0,1,16.1-8.62A11.14,11.14,0,0,0,479.26,226a7.49,7.49,0,0,0,2.31-.68,22.71,22.71,0,0,0-6.3,12.05,17.28,17.28,0,0,0-5.38-2.08c-7.53-1.44-18.14,1.24-30.68,13.86-19.68,19.85-29.58,38.66-42.88,54.56-4.52,5.41-8.46,9.72-11.83,13.15q4.38-1.36,8.66-3c3.62-4.13,7.21-8.68,10.65-13.35a4.15,4.15,0,0,0,.32,4.09,3.88,3.88,0,0,0,5.28,1.34l.09-.05a3.92,3.92,0,0,0,.82-5.48,4.3,4.3,0,0,0-2.65-1.82,3.59,3.59,0,0,0-2.67.53c-.14.14-.27.28-.4.43,2.71-3.63,5.28-7.22,7.7-10.68a4.65,4.65,0,0,0,.35,4.67,4.26,4.26,0,1,0,7-4.75,4.82,4.82,0,0,0-3.05-2.07,4,4,0,0,0-3.12.6,3.8,3.8,0,0,0-.76.79c2.75-3.93,5.22-7.44,7.43-10.47a5.06,5.06,0,0,0,.31,5.21,4.8,4.8,0,0,0,6.54,1.62l.06,0a4.79,4.79,0,0,0,1-6.73,5.21,5.21,0,0,0-3.33-2.26,4.46,4.46,0,0,0-3.3.66,4,4,0,0,0-.94,1c1.16-1.63,2.27-3.13,3.24-4.41,1.63-2.11,3.55-4.52,5.6-7a5.47,5.47,0,0,0,.4,5.61,5.21,5.21,0,0,0,7.1,1.76l.08,0a5.27,5.27,0,0,0,1.1-7.31,5.6,5.6,0,0,0-3.58-2.4,4.85,4.85,0,0,0-3.58.7,5.79,5.79,0,0,0-.48.51,123.74,123.74,0,0,1,9.25-10,5.79,5.79,0,0,0,0,6.63,5.6,5.6,0,0,0,7.64,1.84l0,0a5.65,5.65,0,0,0,1.21-7.84,6,6,0,0,0-3.86-2.59,5.09,5.09,0,0,0-3.74.77,67.53,67.53,0,0,1,10.94-8.53,6.22,6.22,0,0,0,7.49,9.71l.13-.08a6,6,0,0,0,1.26-8.36,6.35,6.35,0,0,0-4.09-2.78,5.74,5.74,0,0,0-1.94,0,28.51,28.51,0,0,1,9.8-3.23,15.36,15.36,0,0,1,10.32,2.1,152.82,152.82,0,0,0,9.61-22c-3.81,2.2-8.38,2.09-10.79,0a43.16,43.16,0,0,1,11.53-2.14Q486.79,213.11,488.06,208.18Zm-80.52,94.67a4.63,4.63,0,0,0,.89-1.7,2,2,0,0,1,.07,2.43,1.9,1.9,0,0,1-2.14.59l-.13,0C406.26,304,407.15,303.53,407.54,302.85Zm9-11.2a5.15,5.15,0,0,0,.9-1.72,2.06,2.06,0,0,1,.06,2.43,1.87,1.87,0,0,1-2.16.59l-.12,0A7.94,7.94,0,0,0,416.53,291.65ZM425,281.09v0a4.05,4.05,0,0,0,.51-3,3,3,0,0,1,.81,3.9,2.49,2.49,0,0,1-3.41.79,2,2,0,0,1-.33-.24C422.68,282.48,424.5,282.36,425,281.09ZM435,269.31a4.2,4.2,0,0,0,.8-2.82,2.9,2.9,0,0,1,.42,3.95,2.64,2.64,0,0,1-3.7.25l-.13-.11C432.42,270.43,434.31,270.46,435,269.31Zm7.43-9a3.8,3.8,0,0,0,3-.61v-.07a4.38,4.38,0,0,0,1.32-2.93,3.15,3.15,0,0,1-.27,4.18,2.83,2.83,0,0,1-3.63-.1C442.5,260.52,442.32,260.27,442.4,260.35Zm14.94-9.13c2.15-1.07,1.37-4.19,1.37-4.19a3.37,3.37,0,0,1,.37,4.79,3.47,3.47,0,0,1-4.85.37,3.69,3.69,0,0,1-.68-.79c-.53-.68-.71-1.28-.61-1.11a4.84,4.84,0,0,0,.66.62l0-.07A3.78,3.78,0,0,0,457.34,251.22Z"/><path d="M338.89,273.79l0,.06a7.45,7.45,0,0,0-3.89.26,11.29,11.29,0,0,1,5.93,3.14A12.52,12.52,0,0,1,337.2,279a19.65,19.65,0,0,1,3,1.46,26.7,26.7,0,0,0,5.43-2.7A14.51,14.51,0,0,0,338.89,273.79Z"/><path d="M470.44,248.44c-2.25-.39-4.84.45-6.43,3.65a6.73,6.73,0,0,0,.56,6.62q3.48-4.89,6.58-10.08A5.71,5.71,0,0,0,470.44,248.44Z"/><path d="M187.63,193c.26,1.79.55,3.59.87,5.37a21.74,21.74,0,0,0,8,1.64l0-.11A88.73,88.73,0,0,1,187.63,193Z"/><path d="M346.93,313.82c6.46-5.18,5.6-10.43,5.6-10.43l1.49.74c1.51.73,2.47.08,3.44-3.19s-.16-8.61-.16-8.61a6.57,6.57,0,0,0,6.18.84c1.1-.72.54-2.76.54-2.76a21.54,21.54,0,0,0,5.2-.06c2.16-.31,2.13-1.58,1.23-3.19s-1.6-3.28-1.6-3.28,1.59,0,1.65-1.1-2.75-4.08-2.75-4.08,2.44.35,7-1.82,6.89-7.32,6.62-8-1.81-1-1.81-1c1.33-1.56,5.21-8.3,1.27-13.53a9.22,9.22,0,0,0-5.48-3.91,7.12,7.12,0,0,0-6.08,1.89,4.34,4.34,0,0,0-.12,6.19,4.46,4.46,0,0,0,2.09,1.21c2.59.23,5.23-1.78,4.17-4.55a3.87,3.87,0,0,1,2.7,2.55c2,5.34-4.35,9-12.44,11.9s-20.65-1.49-29-.27a10.72,10.72,0,0,0-9.15,7.47,15.39,15.39,0,0,0-.51,1.76l-.72.07a24.73,24.73,0,0,0-12.92,6.44c-6-17.89-17.7-36.69-25-46.17,0,0-.82-8.14-13.82-23-5.75-6.59-14.14-13.45-22.65-19.8a4.1,4.1,0,0,0,4.14-.33,3.88,3.88,0,0,0,1.31-5.37,3.48,3.48,0,0,0-2.27-1.49,4.24,4.24,0,0,0-3.15.7,3.91,3.91,0,0,0-1.32,5.38,2.8,2.8,0,0,0,.58.56c-3.69-2.75-7.34-5.36-10.85-7.84a4.61,4.61,0,0,0,4.71-.34,4.34,4.34,0,0,0,1.5-6l0-.06a4,4,0,0,0-2.67-1.73,4.7,4.7,0,0,0-3.58.8,4.42,4.42,0,0,0-1.48,6.09,3.63,3.63,0,0,0,.84.82c-3.85-2.72-7.5-5.25-10.56-7.44a5.1,5.1,0,0,0,5.28-.34,4.89,4.89,0,0,0,1.61-6.63,4.44,4.44,0,0,0-2.85-1.83,5.26,5.26,0,0,0-3.89.84,4.86,4.86,0,0,0-1.62,6.65,4.19,4.19,0,0,0,1.08,1c-1.66-1.18-3.2-2.31-4.48-3.3-2.12-1.62-4.52-3.54-7-5.57a5.6,5.6,0,0,0,7.43-2.55,5.46,5.46,0,0,0-.08-5,4.67,4.67,0,0,0-3.06-2,5.68,5.68,0,0,0-4.22.9,5.25,5.25,0,0,0-1.74,7.19,4.15,4.15,0,0,0,.56.55c-3.4-2.85-6.88-6-10.17-9.38a5.89,5.89,0,0,0,8.64-7.59,5,5,0,0,0-3.29-2.12,6,6,0,0,0-4.54,1,5.62,5.62,0,0,0-1.92,7.61,67.59,67.59,0,0,1-8.39-10.83,6,6,0,0,0,7.62.47,6,6,0,0,0,2-8.25,5.31,5.31,0,0,0-2.54-1.88,58.74,58.74,0,0,0,16.32-4.65c23.81-10.54,47.16-33.49,63.26-59.48C296,54,307.49,33.38,319.94,18.22c-1.94.26-3.88.56-5.8.9a206.62,206.62,0,0,0-12.81,18.42c-10.72,17.26-24.7,39.15-38.1,56.24-11.43,14.58-29.82,30.39-48.73,37.41a10.32,10.32,0,0,0,1.26-6.39,76,76,0,0,0,7.55-3.35c23.85-12.45,39.33-36.59,48.8-50.24,6.65-9.52,20.17-32.25,35.15-50.74-1.55.34-3.1.71-4.64,1.1-10.89,12.82-17.92,22.87-18.2,23,.27-.15,6-10,15.88-22.41-.62.16-1.23.34-1.84.51-10.16,11.59-16.54,20.6-16.84,20.72.27-.12,5.48-8.88,14.55-20l-1.63.5c-9.37,10.47-15.3,18.31-15.66,18.4.3-.1,5.13-7.65,13.35-17.65q-2.89.95-5.73,2a295.88,295.88,0,0,0-19.06,26.86c-18,28.59-34.23,44.17-46.86,52.66a85.76,85.76,0,0,1-18.28,9.37c-.71.19-1.23.36-1.38.42l-.13,0a21.75,21.75,0,0,0,6.48-14.77c7.13,0,16.28-3.54,26.83-14.16C253.87,67.21,263.71,48.43,277,32.51c.95-1.13,1.88-2.2,2.77-3.21q-4.14,1.77-8.17,3.8c-.82,1.07-1.63,2.14-2.44,3.22a3.68,3.68,0,0,0,.74-2.37c-1.93,1-3.83,2-5.71,3.1a3.82,3.82,0,0,0,4.19.05,4.29,4.29,0,0,0,.72-.69c-2.8,3.75-5.48,7.51-8,11.08A4.69,4.69,0,0,0,258,40.8c-1.66,1.05-3.29,2.13-4.91,3.24a4.76,4.76,0,0,0,.79,3.49A4.46,4.46,0,0,0,259.94,49h0a3.54,3.54,0,0,0,.79-.85c-2.74,3.94-5.24,7.5-7.45,10.57a5.22,5.22,0,0,0-2.23-7.08,5.6,5.6,0,0,0-1.54-.52,4.28,4.28,0,0,0-3.3.66,5,5,0,0,0,5.56,8.35l0,0a4.25,4.25,0,0,0,1-1c-1.18,1.63-2.29,3.15-3.26,4.41-1.63,2.11-3.55,4.54-5.59,7a5.43,5.43,0,0,0-.4-5.6A5.62,5.62,0,0,0,240,62.47a4.69,4.69,0,0,0-3.57.71,5.25,5.25,0,0,0-1.09,7.23,5.19,5.19,0,0,0,7.06,1.77l.13-.08a3.71,3.71,0,0,0,.47-.5c-2.86,3.44-5.89,6.75-9.08,9.89a5.8,5.8,0,0,0-.14-6.46,6.06,6.06,0,0,0-3.86-2.41,5.1,5.1,0,0,0-3.84.75,5.65,5.65,0,0,0-1.2,7.84,5.58,5.58,0,0,0,7.61,1.89h0a68.25,68.25,0,0,1-11,8.54A6,6,0,0,0,222.1,84a6.52,6.52,0,0,0-4-2.82,5.53,5.53,0,0,0-3.31.42c-1.08,1.51-2.12,3-3.15,4.58a6.46,6.46,0,0,0,1.1,4.22,6.15,6.15,0,0,0,5.94,2.8,28,28,0,0,1-9.75,3.2,16.71,16.71,0,0,1-2.12,0c-.13-.56-.31-1.1-.49-1.63-1.18,2.07-2.32,4.18-3.41,6.31a14.72,14.72,0,0,1-6.11,13.55A154.94,154.94,0,0,0,189,141.42c-.12.61-.23,1.22-.34,1.84,2,5.28,5.8,11.16,12.29,17.68,19.75,19.59,38.48,29.41,54.3,42.65s22.33,21.46,23.07,24.55c0,0-15.48-16.19-43.93-34.11-23.53-14.8-38.18-28.4-47.35-39.78a151.81,151.81,0,0,0-.88,21.14c10.74,10.26,22.43,17.93,30.43,23.5,13.54,9.4,53.89,32.76,70.57,54.39l-.78,4s-10.44-13.45-36.12-29.33c-17.22-10.74-39-24.53-56-37.91-2.53-2-5.1-4.2-7.64-6.56q.28,3.56.74,7.06a184,184,0,0,0,25.83,19.34C239,225.92,264.69,239.69,279.59,256c1.94,2.12,3.84,4.26,5.66,6.36-.53,1.48-2.53,6.56-5.87,8.42-3.94,2.21-5.67.85-6.58-.48a3.2,3.2,0,0,1,0-3s-3.87-.35-5.39,2.76.87,6.87,3.7,7.77a5.72,5.72,0,0,0-1.32,1.23,3,3,0,0,0,2.35,1.87c1.83.24,1.77.86.13,2.59s-8.29,7.33-16.09,7.57-16.29-3.06-20.64-13.59c-4.13-10.09,2.8-17.3,7-19.71a12.9,12.9,0,0,1,10.24-1c2.63.9,5.62,3.9,4,6.93A7.44,7.44,0,0,0,250,262c-3.78,1.22-7.29,5.81-4.48,10.68s9.59,6.3,16-.19a11.58,11.58,0,0,0,3-12.64l.54,0s5-.62-.11-7.08-10.32-5.47-10.32-5.47l.76-1.5c.75-1.49.11-2.45-3.18-3.44s-8.59.26-8.59.26a6.64,6.64,0,0,0,.87-6.18c-.74-1.13-2.75-.53-2.75-.53a22.87,22.87,0,0,0,0-5.23c-.33-2.14-1.62-2.08-3.2-1.21s-3.25,1.7-3.25,1.7,0-1.62-1.17-1.71-4.07,2.75-4.07,2.75.34-2.43-1.82-6.95a13.36,13.36,0,0,0-7.59-6.6.77.77,0,0,0-.34-.07c-.69.27-1,1.84-1,1.84-1.59-1.34-8.3-5.16-13.53-1.22-5.57,4.21-4.47,8.87-2.06,11.5a4.43,4.43,0,0,0,7.41-2c.23-2.56-1.75-5.19-4.51-4.13a3.89,3.89,0,0,1,2.54-2.74c5.36-2,9,4.28,11.81,12.37s-1.57,20.69-.37,29.05a10.52,10.52,0,0,0,7.41,9.11c.85.27,1.54.43,1.74.48s.05.49.09.73a22.12,22.12,0,0,0,1.85,6.26,153,153,0,0,0,17.16,14.61,27.25,27.25,0,0,0,4.75.89,20.57,20.57,0,0,0,3.76-.13,4.14,4.14,0,0,0-1.33.58,3.77,3.77,0,0,0-1.63,2.53c2.22,1.48,4.48,2.89,6.79,4.25a29.13,29.13,0,0,1,3.14-1.22c-.48.22-1,.4-1.43.64s-.87.47-1.38.78c1.8,1.05,3.61,2.08,5.46,3.06,6.83-2.74,14.55-2.33,20.12,2.87a20.8,20.8,0,0,1,4.06,4.37,19.45,19.45,0,0,1,2,3.69c2.42.75,4.86,1.45,7.33,2.08a27,27,0,0,0-2.53-7,31.13,31.13,0,0,0-12.92-12.65,28.71,28.71,0,0,0-7.82-2.67,29.29,29.29,0,0,0-6.74-.5,2.65,2.65,0,0,0-3-3.72,44.14,44.14,0,0,0,13.12-10.75c1.35-1.78,6.68-8.19,8.33-15a119.88,119.88,0,0,1,17.83,28.13,23,23,0,0,0-.89,2.28,4.12,4.12,0,0,0-.67-3.1,4.17,4.17,0,0,0-2.65-1.82,3.59,3.59,0,0,0-2.72.54,4.09,4.09,0,0,0,4.57,6.74,3.54,3.54,0,0,0,1.27-1.77,27.69,27.69,0,0,0-1,4.94,23,23,0,0,0,0,3.52,4.07,4.07,0,0,0-.46-1.07,3.75,3.75,0,0,0-2.42-1.64,3.22,3.22,0,0,0-2.41.49,3.68,3.68,0,0,0,4.08,6.09h0a3.22,3.22,0,0,0,1.34-2.71,26.33,26.33,0,0,0,2.23,7.66,3.22,3.22,0,0,0-2-1.28,2.68,2.68,0,0,0-2.06.41,3,3,0,0,0-.63,4.2,3,3,0,0,0,4,1l.1,0a2.92,2.92,0,0,0,1.11-3,39.23,39.23,0,0,0,3,5c2.31.44,4.63.82,6.94,1.15a7.35,7.35,0,0,1-1.18-1,68.08,68.08,0,0,0-1-29.62c-.16-.64-.42-1.31-.59-2a23.4,23.4,0,0,1,7.74-5.16c10.11-4.22,17.3,2.7,19.7,6.87a12.8,12.8,0,0,1,.89,10.22c-.91,2.65-3.91,5.67-6.94,4a7.47,7.47,0,0,0,1.75-6.76c-1.19-3.79-5.77-7.28-10.64-4.43s-6.39,9.59.11,16A11.47,11.47,0,0,0,340,313.42l-.11.53S340.48,319,346.93,313.82ZM253.07,191.18a2.05,2.05,0,0,1,2,.21,1.89,1.89,0,0,1,.5,2.26,5.92,5.92,0,0,0-1.24-1.31,5,5,0,0,0-1.7-.89A1.28,1.28,0,0,1,253.07,191.18Zm-11.15-8.93a2,2,0,0,1,2,.22,1.91,1.91,0,0,1,.51,2.25c-.14,0-.59-.92-1.25-1.31a4.69,4.69,0,0,0-1.72-.88A1.64,1.64,0,0,1,241.92,182.25Zm-11.41-8.53a3,3,0,0,1,3.16-.12,2.58,2.58,0,0,1,.67,3.61l-.12.15c-.11,0-.22-1.9-1.46-2.43a4.09,4.09,0,0,0-3-.5A2.21,2.21,0,0,1,230.51,173.72Zm-11.69-10a3,3,0,0,1,3.24.15,2.6,2.6,0,0,1,.21,3.71.94.94,0,0,1-.1.1c-.08,0,0-1.93-1.18-2.57a4.12,4.12,0,0,0-2.84-.8h-.06A2,2,0,0,1,218.82,163.68Zm-9.65-10.77a2.81,2.81,0,0,1,3.84,1,2.76,2.76,0,0,1-1,3.81,3.64,3.64,0,0,0-.63-3.09,4.31,4.31,0,0,0-2.92-1.28A2.26,2.26,0,0,1,209.17,152.91Zm2.25-26.86h0a3.47,3.47,0,0,1-1.36,3.19,4.93,4.93,0,0,0-1-2.46C209.82,126.56,210.69,126.32,211.42,126.05Zm45.39-81.46a5.08,5.08,0,0,0-.89,1.71,2.06,2.06,0,0,1,0-2.46,1.83,1.83,0,0,1,2.12-.55l.12,0C258.1,43.47,257.21,43.94,256.81,44.59Zm-8.52,10.56h0a4.19,4.19,0,0,0-.49,3.07,3,3,0,0,1-.8-3.93,2.53,2.53,0,0,1,3.48-.75,1.44,1.44,0,0,1,.25.18C250.7,53.77,248.83,54,248.29,55.15ZM238.36,67a4,4,0,0,0-.78,2.82,3,3,0,0,1-.41-4,2.63,2.63,0,0,1,3.68-.27.8.8,0,0,1,.13.13C240.93,65.82,239.12,65.8,238.36,67ZM228,76.57a4.38,4.38,0,0,0-1.32,2.94,3.13,3.13,0,0,1,.24-4.21,2.86,2.86,0,0,1,3.63.11,2,2,0,0,1,.45.47A3.67,3.67,0,0,0,228,76.57ZM216.08,85c-2.18,1.07-1.38,4.19-1.38,4.19a3.62,3.62,0,0,1,0-5.16,4,4,0,0,1,.51-.41,3.69,3.69,0,0,1,4.58,1.16,3.14,3.14,0,0,1,.64,1.12,3.05,3.05,0,0,0-.74-.54l.06,0A3.67,3.67,0,0,0,216.08,85Zm-11.64,56.92h.06a4,4,0,0,1-2.19,5.2l-.13,0s2.06-2.37.87-4.41-4.24-1.39-4.11-1.37a2.93,2.93,0,0,1,.93-.65A3.45,3.45,0,0,1,204.44,141.93Zm-12.07-13,.06,0a52.71,52.71,0,0,0,8.33-.48,5.49,5.49,0,0,0,.85,5.87,48.89,48.89,0,0,1-6.51.46c-1.13,0-2.23-.12-3.33-.2A16.72,16.72,0,0,1,192.37,129Zm.16,10a52.23,52.23,0,0,0,6,.09c-.28.11-.55.22-.81.35a6.31,6.31,0,0,0-2.79,6A30.68,30.68,0,0,1,192.53,139Zm62.34,132.68a4.49,4.49,0,0,1-1.33.52A3.14,3.14,0,0,1,249.7,270a3.08,3.08,0,0,1,.63-2.79s.16,3,2.23,3.4a3.17,3.17,0,0,0,1.64-.18c3.23-1.12,2.33-5,2.33-5A4.56,4.56,0,0,1,254.87,271.66Zm-25.08-37s0,.92.05,2.81.46,4.78-1.06,4.48S228.45,238.54,229.79,234.63Zm-.09,38a21.7,21.7,0,0,1-2.33-2.17c-3.28-3.73-6.78-8.82,1.26-17.28l.44-.45.37.47a23.93,23.93,0,0,1,2.87,5.43,23.66,23.66,0,0,1,3.71-4.34,19.57,19.57,0,0,0-12.28-4.1.49.49,0,0,1-.47-.5v-.05a.54.54,0,0,1,.59-.47h0a20.86,20.86,0,0,1,12.94,4.39,19.47,19.47,0,0,1,2.83-2,14.49,14.49,0,0,1,1.35-.73c-5.4-3.83-11.91-6-17.4-5.7l-.15,0a.47.47,0,0,1-.38-.48.58.58,0,0,1,.54-.55c.39,0,.79,0,1.18,0a39.23,39.23,0,0,0-.82-14.28,32.5,32.5,0,0,1,2.41,14.35,24.07,24.07,0,0,1,5,1,47.22,47.22,0,0,0,5.38-7.57,52.91,52.91,0,0,1-2.61,8.42,34.5,34.5,0,0,1,3.35,1.49,56.33,56.33,0,0,1,5.34-3.43l-3.73,4.38.83.5a12.14,12.14,0,0,1,11.32-2.71s-4.38-.62-10.29,3.35a14.38,14.38,0,0,1,1.19.86,17.56,17.56,0,0,1,15.69,1.53,12.91,12.91,0,0,1,5.94,13.34,18.14,18.14,0,0,1-3.54,6.83c3.27-4.39,4.09-10.24,1.05-14.74a13.43,13.43,0,0,0-6.65-5.51c-7.62-3.07-14.14.71-17.6,3.35A21,21,0,0,0,229.7,272.59Zm29.84,26.26v0c-.33.16-.67.3-1,.48a3.57,3.57,0,0,0-.41-1,5.37,5.37,0,0,0-1.25-1.31,1.51,1.51,0,0,1,.46-.13,2,2,0,0,1,2.14.61A1.47,1.47,0,0,1,259.54,298.85Zm5.36-2.06c-.62.15-1.24.27-1.84.44s-1.09.54-1.65.76a3.27,3.27,0,0,0-.47-1.46,3.15,3.15,0,0,0-2.05-1.33l-.1,0a26.86,26.86,0,0,0,7.06-2.22A2.89,2.89,0,0,0,264.9,296.79Zm3.63-1.88a1.27,1.27,0,0,1-.49,1.3l-.24,0a2.93,2.93,0,0,0-.35-1.18,3.66,3.66,0,0,0-.88-1l.41-.09A1.31,1.31,0,0,1,268.53,294.91Zm8.2-19.32-.12,0a4.87,4.87,0,0,1-5.92-3.31,3.85,3.85,0,0,1,.27-2.61c-.3.62.38,2,.65,2.44a4,4,0,0,0,2.67,2.17c3.55.68,7.14-3,9.22-5.53a5.57,5.57,0,0,1,.52-.57A13.2,13.2,0,0,1,276.73,275.59Zm26.48,22.35a2.33,2.33,0,0,1-2.66.05l-.34-.23a8.63,8.63,0,0,0,2-1.09,7.91,7.91,0,0,0,1.65-1.72A2.62,2.62,0,0,1,303.21,297.94Zm-.84,10.63h0a1.92,1.92,0,0,1-2.09-.4,4.12,4.12,0,0,1-.4-.41,5,5,0,0,0,1.63-.63,5.37,5.37,0,0,0,1.32-1.24C302.82,305.76,303.58,307.66,302.37,308.57Zm3,9.13h0a1.48,1.48,0,0,1-1.59-.3c-.24-.23-.37-.4-.3-.36a3.5,3.5,0,0,0,1.3-.39,3.42,3.42,0,0,0,1.07-.89C305.76,315.57,306.3,317.07,305.34,317.7Zm5.31-29.93c-.3.53-.72.92-1.13,1.53l-.11,0-.07-.11a3.75,3.75,0,0,0,1.16-1.79Zm-34.1-49.33h0c-17.35-16-33.34-27.07-33.42-27.4a250.54,250.54,0,0,1,34.62,26.25c1.91,1.73,3.72,3.49,5.45,5.22-2-2.12-4.07-4.23-6.26-6.36a364.69,364.69,0,0,0-32.64-27.92A220.21,220.21,0,0,1,278.07,235a142.57,142.57,0,0,1,12.29,13.6A153.17,153.17,0,0,0,277.7,234.2a426.63,426.63,0,0,0-32-28.57A246,246,0,0,1,279,233.12a126.18,126.18,0,0,1,24.27,34.4l.84,1.49-.62-.92c.89,1.5,1.39,2.4,1.49,2.53A185,185,0,0,0,276.55,238.44Zm30.68,43.24h0a3.83,3.83,0,0,0-1.81.11,144.91,144.91,0,0,0-14.81-20.14l.55-3.81s.87-.43,11.56,14.51a60.61,60.61,0,0,1,5.59,9.77A4.15,4.15,0,0,0,307.23,281.68Zm.69,4.75a5.38,5.38,0,0,0,.61-2.54,3.1,3.1,0,0,1,.58,3.93l-.12,0c0,.11-.15.1-.25.19C308.49,287.46,308.21,287,307.92,286.43Zm.94,18.78-.12,0a25.79,25.79,0,0,1,.26-3.73c.57,1.6,1.09,3.36,1.51,5.06a37.36,37.36,0,0,1,1.08,8.42A21.38,21.38,0,0,1,308.86,305.21Zm5.57-1.64a51.54,51.54,0,0,0-3-9.7c.23-.43.54-.83.8-1.25a60.36,60.36,0,0,1,2.29,11Zm48.09-24.95a15.83,15.83,0,0,1-3.44,0c-.71-.14-1.15-.43-1-1.09.35-1.6,3.4-.37,7.27,1C365.34,278.53,364.41,278.5,362.52,278.62ZM329.87,298.7a3.14,3.14,0,0,1,2.86.6s-4.48.23-3.25,3.84c1.09,3.27,5,2.33,5,2.33a3.83,3.83,0,0,1-3.12.57,4.61,4.61,0,0,1-3.66-3.53A3.08,3.08,0,0,1,329.87,298.7Zm4.84,14a17.78,17.78,0,0,1-6.82-3.56c4.37,3.23,10.26,4,14.73,1a13.74,13.74,0,0,0,5.54-6.71c3.12-7.65-.62-14.11-3.27-17.59a20.75,20.75,0,0,0-17.47-7.18,27,27,0,0,1,2.17-2.36c3.75-3.28,8.85-6.83,17.27,1.19l.48.45-.49.37a25.4,25.4,0,0,1-5.45,2.89,24.18,24.18,0,0,1,4.34,3.67,19.9,19.9,0,0,0,4.13-12.31.49.49,0,0,1,.51-.47h0a.59.59,0,0,1,.52.57,21.08,21.08,0,0,1-4.47,13,22.63,22.63,0,0,1,2.05,2.83,9.36,9.36,0,0,1,.7,1.33A29,29,0,0,0,355,272.44a.5.5,0,0,1,.46-.53h0a.59.59,0,0,1,.55.56c0,.38,0,.78,0,1.18a39.53,39.53,0,0,0,14.29-.91A32.39,32.39,0,0,1,356,275.23a26.28,26.28,0,0,1-1,5,46,46,0,0,0,7.52,5.31,52.58,52.58,0,0,1-8.4-2.58c-.43,1.14-1,2.27-1.5,3.36a55,55,0,0,1,3.34,5.31l-4.15-3.79c-.17.26-.36.52-.52.79A12.27,12.27,0,0,1,353.93,300s.62-4.34-3.35-10.29a12.24,12.24,0,0,1-.82,1.21,17.69,17.69,0,0,1-1.66,15.73l0,.07A13,13,0,0,1,334.71,312.71Z"/><path d="M327.82,320.54a4,4,0,0,0-2.15,2.7c.79.07,1.58.13,2.38.18a3.51,3.51,0,0,1,1.43-1.69,3.21,3.21,0,0,1,3,0s.39-3.88-2.73-5.38-6.89.9-7.8,3.82a6.29,6.29,0,0,0-1.24-1.34,3.07,3.07,0,0,0-1.83,2.38,2,2,0,0,1-.48,1.25q2.89.39,5.77.67a4.86,4.86,0,0,1,3.49-3.48,3.89,3.89,0,0,1,2.58.26C329.66,319.58,328.3,320.26,327.82,320.54Z"/></g></g></svg>