<svg class="h-auto w-[107px] text-grey-1000 transition-all duration-300 ease-in-out group-[.open]:text-grey-1000 logo.svg" aria-hidden="true" viewBox="0 0 353.8550415 239.9759979" xmlns="http://www.w3.org/2000/svg"><g><path fill="#9F7D2D" d="M113.9896927,210.2002869h-8.382164v-1.1560364h0.9815369v-7.8464355h-0.9815369v-1.2009277h8.382164 v1.2009277l-0.9815292,0.0014191v7.8450165h0.9815292V210.2002869z M135.0697632,225.4882202h-0.9827118v-7.8450165 l0.9827118-0.0013123v-1.2010498h-8.383461v1.2010498h0.9815292v7.8463287h-0.9815292v1.1560211h8.383461V225.4882202z M261.2688293,196.1701813h-2.1379089l-0.0004883,0.0142517l-0.6639099,25.1816559l-0.0158997,0.5980835l-0.5931091,0.0786438 c-5.5348511,0.7339783-18.1606598,2.9300995-19.5820618,3.178009c-0.0054626,0.000946-0.0109253,0.0019073-0.0162659,0.0027313 l-7.3908997,1.4805603c-0.0022583,0.0005951-0.0046234,0.0010681-0.0068817,0.0016632 c-1.0612488,0.2490845-26.1534424,6.1538391-40.5928955,10.759903l-0.0206604,0.006897l-0.064743,0.0216217 c-2.4827576,0.7925415-4.9799957,1.6150208-7.4222412,2.4445038l-0.1096497,0.0372925h-0.1159363h-10.1843872h-10.1845093 h-0.1158142l-0.1097565-0.0372925c-2.4422607-0.8296051-4.9394989-1.6520844-7.4360352-2.4491425l-0.0905151-0.0298157 c-14.440155-4.6046295-39.5144272-10.5049896-40.5749512-10.7538605c-0.0024948-0.0007019-0.0048676-0.0011749-0.0073624-0.0018921 l-7.3856659-1.4797211c-0.0101013-0.0016632-0.0209045-0.0035706-0.0326691-0.0057068 c-1.4235382-0.2481384-14.0659714-2.445816-19.5693512-3.1757507l-0.5932159-0.0786438l-0.0158005-0.5980835l-0.6638947-25.1816559 l-0.0003586-0.0142517h-2.1380386l2.3120575-26.5124207l2.9116974-4.4398804h22.3642731h0.0003586v-5.9522705l2.8941116-2.0433655 h8.9437866l2.8449326,2.0433655v5.9522705h30.7094955v-4.2967377v-0.0008392h-1.6626434v-8.3617249l3.6778564-3.4951782h27.8443756 l3.6778564,3.4951782v8.3617249h-1.6624146v0.0008392v4.2967377h30.7093811v-5.9522705l2.8449402-2.0433655h8.9437866 l2.8939972,2.0433655v5.9522705h22.3642731l2.9131165,4.4398804L261.2688293,196.1701813z M222.5847168,165.2178802h1.4881592 v-4.258255h4.5352631v4.258255h0.000351h1.5375824h0.0001221l0.001297-4.1078644l-3.8073425-2.8885345l-3.7542419,2.8885345 L222.5847168,165.2178802z M213.1430969,185.9342346l2.7850647-1.8579407v9.238266h10.1297455h10.1296387v-9.238266 l2.7850647,1.8579407v-1.1426086l-11.9945831-8.3507996h-0.9201202h-0.9215393l-11.9932709,8.3521118V185.9342346z M157.1149902,165.2178802h0.000351v10.0068054l10.5710449-8.0028687h-5.054245h-0.000473v-1.1846619h1.1492615v-0.8192749 v-6.3564911c0,0,0.3638306-0.1813965,1.1331024-0.4094696c1.2817078-0.3799896,3.689743-0.8891144,7.4171448-0.901825h0.0001068 c0.0003662,0,0.0004883,0,0.0007172,0c0.0054626,0,0.0102234,0.0007172,0.015213,0.0010681c0,0,0,0,0.0001068,0 c0.0057068-0.0002289,0.0128326-0.0005951,0.0184174-0.0007019c0.0015411-0.0001221,0.0028534-0.0003662,0.0045166-0.0003662 c0.0001221,0,0.0002289,0,0.000351,0h0.0001221c0.0005951,0,0.0010681,0,0.0016632,0c0.0001221,0,0.0002441,0,0.000351,0 c0.0002441,0,0.0005951,0,0.0008392,0c0.000473,0,0.0014191,0,0.0018921,0.0001221 c0.0071259,0,0.0135498,0.0002441,0.0205536,0.000351c0.7368317,0.0029755,1.4227142,0.0250702,2.0576172,0.0620117 c0.0340881,0.0020142,0.0643921,0.0049896,0.098114,0.0070038c0.2841492,0.0174713,0.5617523,0.0367126,0.8254547,0.0594025 c0.0216217,0.0018921,0.0406189,0.0043945,0.0620117,0.0061798c0.2720184,0.0241089,0.5355988,0.0501251,0.7861176,0.0787506 c0.0034485,0.000473,0.006424,0.000946,0.0097504,0.0013123c0.2661896,0.0306396,0.520874,0.0635376,0.7630768,0.0983429 c0.0788727,0.0114136,0.1487274,0.02388,0.2252197,0.0355225c0.1611938,0.024704,0.3247681,0.0491791,0.4747925,0.0751953 c0.106781,0.0184021,0.2018127,0.0378876,0.3030243,0.0569c0.1083374,0.0203094,0.2224884,0.0401459,0.3245239,0.0609283 c1.7775116,0.3609924,2.5960693,0.7692719,2.5960693,0.7692719v7.175766h1.1487885v0.0001221h0.000473v1.1845398h-0.000473 h-5.054245l3.3198395,2.5136261l7.2502594,5.4888916v-10.0064545h0.000946v-4.2967377l-11.058548-8.3662567l-4.1777191-3.1603088 v-0.000351l-0.0001068,0.0001221v0.0002289l-3.0621948,2.316452l-12.1738281,9.2101135V165.2178802z M179.8381195,159.616272 v-0.0268402c-0.0147247-0.0057068-0.0329132-0.0122375-0.048111-0.0180664 C179.8066406,159.5859833,179.8218384,159.6014252,179.8381195,159.616272z M151.2442017,195.4645844h13.569809v-1.8329926 h2.2207184v-1.0197754h-3.2485809v-0.999115h3.2485809v-2.7086945h-3.2485809v-0.9978027h3.2485809v-2.682663 c0,0,2.0119934-1.1547241,5.3162842-1.0728912c3.3042755-0.0818329,5.3164062,1.0728912,5.3164062,1.0728912v2.682663h3.2484436 v0.9978027h-3.2484436v2.7086945h3.2484436v0.999115h-3.2484436v1.0197754h2.2205811v1.8329926h13.5695801v-13.6240845v-0.0014343 l-6.5064087-4.6933594l-8.5771027-6.1860504h-6.0224609h-6.0239105l-8.5770874,6.1860504l-6.5064087,4.6933594v0.0014343 V195.4645844z M114.5546417,161.1100159l0.0014267,4.1078644h1.5373306h0.0010681v-4.258255h4.5352707v4.258255h0.0002365 h1.4872055h0.0003586l-0.0013123-4.1078644l-3.7541199-2.8885345L114.5546417,161.1100159z M105.9226685,185.9342346 l2.7849503-1.8579407v9.238266h10.1297455h10.1309433v-9.238266l2.7837524,1.8579407v-1.1412964l-11.9932632-8.3521118h-0.9214325 h-0.9202347l-11.9944611,8.3507996V185.9342346z M107.1550827,224.6434021 c-0.2258148-0.0429993-0.4130249-0.0781555-0.5537872-0.1034546l0.5537872,0.1110535V224.6434021z M162.6495972,218.3275299 v-4.5988159h-1.431366v4.5988159H162.6495972z M170.9328156,220.6095428l-0.3058777-1.2522583h-8.0482483v17.4180145v0.0034485 h4.4821625v-0.0034485v-1.536972h-3.4542999v-0.0033264v-0.9945984v-0.0033264h3.4542999v-1.4702301h-3.4542999v-0.0033264 v-0.9944763v-0.0033264h3.4542999v-1.4689026h-3.4542999v-0.0033264v-0.9959106v-0.0033264h3.4542999v-1.4689178h-3.4542999 v-0.0033264v-0.9957886v-0.0034332h3.4542999v-1.4687958h-3.4542999v-0.0034485v-0.9944763v-0.0033264h3.4542999v-1.4702301 h-3.4542999v-0.0034332v-0.9944916v-0.0033112h3.4542999v-0.4206238v-0.0033264 C168.4700165,220.9871521,169.7620544,220.7336731,170.9328156,220.6095428z M164.7325287,218.3275299v-4.5988159h-1.4313812 v4.5988159H164.7325287z M166.8154449,218.3275299v-4.5988159h-1.4313812v4.5988159H166.8154449z M168.8996735,218.3275299 v-4.5988159h-1.4312592v4.5988159H168.8996735z M170.9840088,213.728714h-1.4326782v4.5988159h1.4326782V213.728714z M173.0656281,213.728714h-0.714386h-0.715683v4.5988159h0.715683h0.714386V213.728714z M182.1239166,219.3572845h-8.0481262 l-0.3074188,1.2522583c1.1721802,0.1241302,2.4627991,0.3776093,3.8720703,0.8477783v0.0033264v0.4206238h3.4556274v0.0033112 v0.9944916v0.0034332h-3.4556274v1.4702301h3.4556274v0.0033264v0.9944763v0.0034485h-3.4556274v1.4687958h3.4556274v0.0034332 v0.9957886v0.0033264h-3.4556274v1.4689178h3.4556274v0.0033264v0.9959106v0.0033264h-3.4556274v1.4689026h3.4556274v0.0033264 v0.9944763v0.0033264h-3.4556274v1.4702301h3.4556274v0.0033264v0.9945984v0.0033264h-3.4556274v1.536972v0.0034485h4.4834747 v-0.0034485V219.3572845z M175.1512756,218.3275299v-4.5988159h-1.4326782v4.5988159H175.1512756z M177.2342072,218.3275299 v-4.5988159h-1.4312592v4.5988159H177.2342072z M179.3171234,218.3275299v-4.5988159h-1.4313812v4.5988159H179.3171234z M181.4013519,218.3275299v-4.5988159h-1.4312592v4.5988159H181.4013519z M183.4842682,218.3275299v-4.5988159h-1.4312592 v4.5988159H183.4842682z M258.4292297,196.1701813H86.2725449l0.6638947,25.1773682 c5.8675766,0.7782898,19.6391983,3.1876373,19.6408615,3.1876373l0.0103378,0.0020294v-6.8919983h-0.9801102v-1.2010498h8.382164 v1.2010498l-0.9815292,0.0013123v7.8451233h0.9815292v0.5288391c-1.0582657-0.2329407-5.0081558-1.0278625-6.7905426-1.3686523 h-0.0396729l6.8209534,1.3667603c-0.0013123,0,25.7286606,6.0202026,40.6032181,10.759079 c0.015564,0.0048676,6.6795959,0.0010681,6.6795959,0.0010681v-0.0034485v-17.4180145h-0.9093018v-0.0033264v-1.0231018v-0.0033264 h0.211319v-4.5988159h-0.211319v-0.0033264v-0.7762756v-0.0034332h4.4604187v-2.3985443v-0.0033264h2.2205963v-1.0177612 h-3.2484436v-0.0033264v-0.9958954v-0.0033264h3.2484436v-2.7038269h-3.2484436v-0.0034332v-0.9957886v-0.0033264h3.2484436 v-2.6793518v-0.0033264c0,0,2.0120087-1.1547241,5.3162842-1.072876c3.3043976-0.0818481,5.3164062,1.072876,5.3164062,1.072876 v0.0033264v2.6793518h3.2484589v0.0033264v0.9957886v0.0034332h-3.2484589v2.7038269h3.2484589v0.0033264v0.9958954v0.0033264 h-3.2484589v1.0177612h2.2192841v0.0033264v2.3985443h4.4617462v0.0034332v0.7762756v0.0033264h-0.2127533v4.5988159h0.2127533 v0.0033264v1.0231018v0.0033264h-0.909317v17.4180145v0.0034485c0,0,6.6767578-0.000473,6.680191-0.0015411 c14.8260956-4.7231903,40.4259949-10.7176361,40.5925293-10.7568359c1.0958099-0.1004944,7.2755585-1.4601135,7.4028931-1.4829254 v-0.000351l0.0095062-0.0019073c-0.0001221,0.0002441,13.7716217-2.4093475,19.6408691-3.1876373L258.4292297,196.1701813z M167.0508728,184.198761h-0.0640259c0.4334564-0.2549133,1.811615-0.9405518,4.3826294-1.0619507l0.0694885,0.7335052h0.9119263 h0.000351h0.9120483l0.0694885-0.7335052c2.5710144,0.1213989,3.949173,0.8070374,4.3826294,1.0619507h-0.0640259v0.9992371 h3.2647247v-0.9992371h-2.9580231l0.3435364-0.4498444c-0.0614166-0.0463257-1.5376892-1.1382141-4.9019623-1.3032074 l0.0939636-0.9801025h-1.1423798h-0.000351h-1.1423645l0.0940704,0.9801025 c-3.3642731,0.1649933-4.8406677,1.2568817-4.9019623,1.3032074l0.3435364,0.4498444h-2.9581451v0.9992371h3.2648468V184.198761z M135.0697632,209.0442505h-0.9827118v-7.8450165l0.9827118-0.0014191v-1.2009277h-8.383461v1.2009277h0.9815292v7.8464355 h-0.9815292v1.1560364h8.383461V209.0442505z M188.5227051,188.1904602h-0.8015594v-6.3510284h0.8015594v-1.0442505h-6.8431549 v1.0442505h0.8014526v6.3510284h-0.8014526v0.9432831h6.8431549V188.1904602z M156.1800232,181.8394318h0.8014526v6.3510284 h-0.8014526v0.9432831h6.8430481v-0.9432831h-0.8015747v-6.3510284h0.8015747v-1.0442505h-6.8430481V181.8394318z M218.0163116,209.0442505h-0.9828339v-7.8464355h0.9828339v-1.2009277h-8.3835907v1.2009277l0.9828339,0.0014191v7.8450165 h-0.9828339v1.1560364h8.3835907V209.0442505z M193.3019714,211.4012146h-0.8369751v-6.6727142h0.8369751v-1.056488h-7.1511841 v1.056488h0.8369598v6.6727142h-0.8369598v0.9869995h7.1511841V211.4012146z M218.0163116,225.4882202h-0.9828339v-7.8463287 h0.9828339v-1.2010498h-8.3835907v1.2010498l0.9828339,0.0013123v7.8450165h-0.9828339v1.1560211h8.3835907V225.4882202z M239.0950775,209.0442505h-0.9815216v-7.8464355h0.9815216v-1.2009277h-8.3834686v1.2009277l0.9828339,0.0014191v7.8450165 h-0.9828339v1.1560364h8.3834686V209.0442505z M239.0950775,217.6452179v-1.2010498h-8.3834686v1.2010498l0.9828339,0.0013123 v7.8451233h-0.9828339v0.5288391c0.0001221,0,0.000351-0.0001221,0.000473-0.0001221 c0.0005951-0.0001068,0.007843-0.00177,0.007843-0.00177l7.39505-1.4815063v-6.8918762H239.0950775z M158.5519409,211.4012146 h-0.8383942v-6.6727142h0.8383942v-1.056488h-7.1526031v1.056488h0.8382721v6.6727142h-0.8382721v0.9869995h7.1526031V211.4012146z M158.5519409,230.379364h-0.8383942v-6.6604767h0.8383942v-1.0674133h-7.1526031v1.0674133h0.8229523v6.5595093h0.0153198 v0.1009674h-0.8382721v0.9869995h7.1526031V230.379364z M193.3019714,230.379364h-0.8369751v-6.6604767h0.8369751v-1.0674133 h-7.1511841v1.0674133h0.8369598v6.6604767h-0.8369598v0.9869995h7.1511841V230.379364z M167.0508728,201.1099091h-0.0640259 c0.4334564-0.2549133,1.811615-0.9405518,4.3826294-1.0619507l0.0694885,0.7335052h0.9119263h0.000351h0.9120483 l0.0694885-0.7335052c2.5710144,0.1213989,3.949173,0.8070374,4.3826294,1.0619507h-0.0640259v0.9992371h3.2647247v-0.9992371 h-2.9580231l0.3435364-0.4498444c-0.0614166-0.0463257-1.5376892-1.1382141-4.9019623-1.3032074l0.0939636-0.9801025h-1.1423798 h-0.000351h-1.1423645l0.0940704,0.9801025c-3.3642731,0.1649933-4.8406677,1.2568817-4.9019623,1.3032074l0.3435364,0.4498444 h-2.9581451v0.9992371h3.2648468V201.1099091z M231.4721832,185.8733673l0.0013733,4.7424927h-5.5917358h-5.5917664 l0.0013885-4.7424927c0.6638641-2.3065186,4.9442444-2.587326,5.5903778-2.6173096 C226.5279694,183.2860413,230.8096924,183.5668488,231.4721832,185.8733673z M124.4743042,185.8733673l0.0013733,4.7424927 h-0.06353v0.0010681h-5.591774h-5.5917282l0.0013885-4.7438202c0.6624985-2.3065186,4.9441986-2.587326,5.5903397-2.6173096 c0.0097656,0.0004425,0.0229263,0.0011597,0.0343094,0.0017395c0.0095062-0.000473,0.0209351-0.0010986,0.0292587-0.0014801 C119.5300827,183.2860413,123.8118134,183.5668488,124.4743042,185.8733673z"></path><g><path fill="#9F7D2D" d="M48.480938,207.4886627c-0.2070389,0-0.2760391,0.2298279-0.4140778,0.5058899 c-0.7822609,1.3809357-2.876442,2.5775909-5.8909264,2.5775909c-0.8515816,0-1.0586433-0.2760468-1.2197685-0.8056793 c-0.2529526-0.759491-0.3219719-2.0710754-0.3219719-4.2108307c0-0.414093,0-0.8519287,0.0459137-1.3115997 c0.0462151-0.3916016,0.2991638-0.5527496,0.7594795-0.5527496c0.8053665,0,1.4958267,0,2.2090912,0.0462341 c1.1504478,0.0917969,1.4727211,0.3222656,1.7487793,1.5645142c0.0690193,0.3222809,0.1842537,0.7363739,0.4143982,0.759491 c0.2070618,0,0.3678627-0.1611481,0.3678627-0.4140778c0-1.104248-0.2529297-2.6000977-0.2529297-3.4744873 c0-0.5296326,0.0690002-1.1735535,0.0690002-1.4727173c0-0.2073517-0.1149139-0.3684998-0.3450584-0.3684998 c-0.1380386,0-0.253273,0.1380157-0.3222923,0.2991638c-0.5752258,1.5651703-1.2425766,1.9099274-2.9454422,1.9099274h-0.9665375 c-0.4140778,0-0.8053703-0.045578-0.8053703-0.7594757c-0.0458908-0.4140778-0.0690193-1.5645294-0.0690193-2.5307312 c0-0.2535858,0.0231285-1.5651855,0.0921249-1.8181152c0.1380386-0.5752411,0.5293312-0.6445618,1.0583229-0.7132721 c0.2763786-0.0231018,1.2657013-0.0462036,2.1173058-0.0462036c2.2318802,0,3.0603561,0.6901398,3.0603561,2.3702087 c0,0.2298584,0.1152534,0.3678741,0.2991867,0.3678741c0.3912926,0,0.4830971-0.4371948,0.4830971-1.0811157 c0-0.7363739-0.1839333-1.4496155-0.2070618-2.4164429c0-0.2067413-0.1380157-0.3909912-0.2991638-0.3909912 c-0.7822647,0-3.5434723,0.1149292-7.823616,0.1149292c-1.3347015,0-3.1297188-0.1380463-3.5210075-0.1380463 c-0.2988663,0-0.5290146,0.1380463-0.5290146,0.3222961c0,0.4602966,0.2529526,0.390976,1.219471,0.5983276 c0.8284988,0.1611481,1.1966629,0.5983429,1.2425766,1.2191467c0.0690193,0.483429,0.1380157,2.8536682,0.1380157,5.3156891 c0,2.7843323-0.1839294,5.8909302-0.3450546,6.9495697c-0.0459137,0.3684998-0.4603157,0.8512726-0.7594795,0.9437256 c-0.3219719,0.1149139-0.7363701,0.1611481-0.7363701,0.5058899c0,0.2991791,0.2073593,0.3684998,0.7135849,0.3684998 c0.8281555,0,1.7028656-0.1842499,3.0144615-0.1842499c2.4161301,0,4.5562248,0.3453979,5.2235756,0.3453979 c2.5541687,0,3.7508316-2.0479584,3.7508316-3.9354095C48.734211,207.6035767,48.642086,207.4886627,48.480938,207.4886627z"></path><path fill="#9F7D2D" d="M303.9254456,203.0929413c-0.0690308-0.0224609-0.1152344-0.1148987-0.1152344-0.1604919 c0-0.0693512,0.0462036-0.1386719,0.138031-0.1611481c1.4958496-0.5527496,2.5082703-1.3809204,2.5082703-3.1296997 c0-1.8868256-1.8178101-3.129715-4.3260803-3.129715c-1.0814209,0-2.1169739,0.2304688-2.899231,0.8281708 c-1.0586548,0.8287964-1.749115,1.9330444-1.749115,3.2221527c0,1.5414124,0.6673584,2.6000824,1.6107483,3.1521759 c0.1152649,0.0693359,0.2301636,0.1380463,0.2301636,0.230484c0,0.0918121-0.0690002,0.1611328-0.138031,0.183609 c-1.5186462,0.6445465-2.4161377,1.7263184-2.4161377,3.4057617c0,2.922348,2.301239,4.2801666,4.9703064,4.2801666 c3.428894,0,5.2466736-1.9330444,5.2466736-4.5562286C306.9858093,204.7037048,305.7891541,203.94487,303.9254456,203.0929413z M299.184967,199.4573517c0-1.3347015,1.2657166-2.4158325,2.8305664-2.4158325 c1.5876465,0,2.8302307,1.4033966,2.8302307,3.1290741c0,1.2428894-0.7132874,2.1635132-1.8868408,2.1635132 C301.1180115,202.3341064,299.184967,200.930069,299.184967,199.4573517z M301.9234009,211.1473694 c-1.541748,0-3.4057922-1.7718811-3.4057922-4.2339325c0-1.2428894,0.5983582-2.0710602,1.2657166-2.4395752 c0.0921326-0.0462189,0.1842346-0.0462189,0.2532349-0.0462189c0.0918274,0,0.2298584,0.0231171,0.3909912,0.092453 c0.851593,0.3678589,1.7719116,0.6439209,2.6004028,1.0355377c1.2425842,0.5752258,2.2322083,1.3578033,2.2322083,2.8305359 C305.2601624,209.6977539,304.0634766,211.1473694,301.9234009,211.1473694z"></path><path fill="#9F7D2D" d="M70.0618362,207.7878265c-0.0921249-0.0924377-0.2991638-0.1386566-0.4375229-0.1386566 c-0.1608047,0-0.2529373,0.0924225-0.3450623,0.1842346c-0.6442413,0.6676636-1.0586395,1.0355377-1.5417404,1.5189514 c-0.0690155,0.0686951-0.1380386,0.2073822-0.1380386,0.276062c0,0.1149139,0.0231094,0.2529449,0.1149139,0.3453979 c0.5293274,0.5289917,1.0817719,1.0586395,1.5417404,1.5414276c0.0921249,0.0924377,0.2763748,0.1842499,0.4372025,0.1842499 c0.1611481,0,0.2991638-0.0693512,0.4143982-0.2073669c0.529335-0.5983276,0.9434128-0.9430847,1.4727478-1.4727325 c0.0690155-0.0686798,0.1380157-0.2529297,0.1380157-0.32164c0-0.0924377-0.0458908-0.2767029-0.1149139-0.3453979 L70.0618362,207.7878265z"></path><path fill="#9F7D2D" d="M52.2301826,203.5763702c0-0.7132721,0.4140778-1.2653656,1.2425766-1.2653656 c1.1276627,0,1.8409081,0.7132416,2.4851494,1.6569824c0.1842537,0.2760468,0.368187,0.4371948,0.5062065,0.4371948 c0.1611481,0,0.1842537-0.1155701,0.1842537-0.2535858c0-0.3222809-0.1842537-1.2191467-0.1842537-1.7487793 c0-0.2067413-0.0918045-0.3678741-0.2529297-0.4141083c-0.7363739-0.2073517-1.2197914-0.3222656-1.9099274-0.3222656 c-1.7491226,0-3.5900307,0.9893036-3.5900307,3.0147858c0,3.6356201,4.9016037,2.4620361,4.9016037,4.9240875 c0,0.9668274-0.575222,1.6107483-1.7028885,1.6107483c-1.2194443,0-2.2090912-1.6563263-2.4623413-2.5769501 c-0.1380424-0.4603119-0.2070389-0.6676788-0.4599915-0.6676788c-0.2763824,0-0.2991676,0.2536011-0.2991676,0.5065308 c0,0.529007,0.0458946,0.8512878,0.0458946,1.2422638v1.4502563c0,0.138031,0.0690193,0.2760468,0.3450775,0.2991791 c1.0355377,0.0918121,1.6569748,0.390976,2.8074226,0.390976c2.0710716,0,3.3136482-1.8637238,3.3136482-3.336441 C57.2004852,204.3820648,52.2301826,205.8085632,52.2301826,203.5763702z"></path><path fill="#9F7D2D" d="M65.5524902,210.180542c-0.1380386,0-0.2298431,0.0924377-0.4831161,0.1842499 c-0.3681641,0.1380157-0.851265,0.1842499-1.2194481,0.1842499c-1.1507721,0-1.2197914-1.1966858-1.2197914-2.6463013 c0-1.6569672,0.0462151-3.5668945,0.0690193-4.2570343c0.0231094-0.2991791,0.1380196-0.3916168,0.3222733-0.3916168 c0.4830971,0,1.5417442,0.0462189,1.7946892,0.0462189c0.3912964,0,0.4603195-0.0462189,0.6904602-0.667038 c0.0921249-0.2304535,0.2301483-0.5065155,0.2301483-0.7594757c0-0.1611481-0.0458908-0.2073517-0.1380234-0.2073517 c-0.2070389,0-0.253273,0.1611481-0.5062027,0.3222656c-0.3912888,0.2298431-0.7363663,0.2298431-1.6797791,0.2298431 c-0.5524406,0-0.6445656-0.0917969-0.6445656-0.32164c0.0231285-0.2767029,0.0921249-1.7718964,0.0921249-2.1403961 c0-0.3453979-0.0231056-0.3678589-0.1380157-0.3678589c-0.1380424,0-0.2532768,0.1148987-0.4372063,0.3447571 c-0.943409,1.3347015-1.67976,1.956131-2.922657,2.8998566c-0.1149139,0.1149139-0.2070389,0.2067261-0.2070389,0.3678741 c0,0.3222656,0.3912926,0.2529449,0.736351,0.276062c0.5755424,0.0462036,0.5755424,0.1148987,0.5755424,0.5296326 c0,0.9430847-0.13834,3.7736359-0.13834,5.4075012c0,1.7487793,0.6214409,2.6925049,2.3933487,2.6925049 c0.9892998,0,1.8409081-0.3222656,2.5082588-0.8288116c0.3450775-0.2529297,0.5752182-0.4371796,0.5752182-0.6439056 C65.8057404,210.318573,65.690834,210.180542,65.5524902,210.180542z"></path><path fill="#9F7D2D" d="M313.7729492,201.9887085c-0.7825623,0-1.1966553,0.1842499-1.7028809,0.1842499 c-0.3912964,0-0.4371948-0.1155548-0.4371948-0.6445618c0-0.7363434,0.0921326-1.2428894,0.1611633-1.5876312 c0.1380005-0.4372101,0.2760315-0.6445618,0.8512573-0.7132568c1.4727478-0.1842651,2.7615356-0.2073669,4.2111511-0.2535858 c0.3450623,0,0.552124-0.183609,0.62146-0.529007c0.2070312-1.0124054,0.6442261-2.1397552,0.6442261-2.4389191 c0-0.1842499-0.0462341-0.2991791-0.2532654-0.2991791c-0.0917969,0-0.2070312,0.0455933-0.2991638,0.1605072 c-0.5061951,0.6445618-0.6442566,0.8057098-1.403717,0.8519135c-1.403717,0.1149139-2.9454651,0.1149139-4.302948,0.1611481 c-0.4143982,0.0224762-0.5752258,0.0224762-0.6442566,0.4140778c-0.0921021,2.0017395-0.2991638,3.7049408-0.5983276,5.7066803 c-0.0462036,0.276062-0.1152344,0.4603119-0.1152344,0.6445618c0,0.4602966,0.138031,0.7819366,0.5061951,0.7819366 c0.5524597,0,1.3578491-0.2529449,2.3243713-0.2529449c1.9330139,0,2.9454651,1.3347015,2.9454651,3.0834808 c0,1.9792633-1.7950134,3.543808-4.0041199,3.543808c-0.8744202,0-1.1966858-0.0917969-2.0020447-0.414093 c-0.2991943-0.1149139-0.4830933-0.2304688-0.690155-0.2304688c-0.138031,0-0.2532654,0.1611481-0.2532654,0.3453827 c0,0.276062,0.2070312,0.3909912,0.5061951,0.552124c0.5755615,0.3222809,1.7950134,0.6445618,2.6004028,0.6445618 c3.1065979,0,6.1441956-1.9561615,6.1441956-5.5455322C318.5824585,203.2540894,316.7184143,201.9887085,313.7729492,201.9887085z "></path><path fill="#9F7D2D" d="M291.2704773,203.0929413c-0.0690002-0.0224609-0.1152344-0.1148987-0.1152344-0.1604919 c0-0.0693512,0.0462341-0.1386719,0.1380615-0.1611481c1.4958191-0.5527496,2.5082397-1.3809204,2.5082397-3.1296997 c0-1.8868256-1.8177795-3.129715-4.3260803-3.129715c-1.0814209,0-2.1169434,0.2304688-2.899231,0.8281708 c-1.0586243,0.8287964-1.7490845,1.9330444-1.7490845,3.2221527c0,1.5414124,0.6673584,2.6000824,1.6107483,3.1521759 c0.1152344,0.0693359,0.2301636,0.1380463,0.2301636,0.230484c0,0.0918121-0.0690308,0.1611328-0.138031,0.183609 c-1.5186157,0.6445465-2.4161377,1.7263184-2.4161377,3.4057617c0,2.922348,2.3012085,4.2801666,4.9703064,4.2801666 c3.4288635,0,5.2466736-1.9330444,5.2466736-4.5562286C294.3308716,204.7037048,293.1342163,203.94487,291.2704773,203.0929413z M286.5300293,199.4573517c0-1.3347015,1.265686-2.4158325,2.8305359-2.4158325 c1.5876465,0,2.8302307,1.4033966,2.8302307,3.1290741c0,1.2428894-0.7132568,2.1635132-1.8868103,2.1635132 C288.4630737,202.3341064,286.5300293,200.930069,286.5300293,199.4573517z M289.2684326,211.1473694 c-1.541748,0-3.4057617-1.7718811-3.4057617-4.2339325c0-1.2428894,0.5983582-2.0710602,1.265686-2.4395752 c0.0921326-0.0462189,0.1842651-0.0462189,0.2532959-0.0462189c0.0917969,0,0.2297974,0.0231171,0.3909607,0.092453 c0.851593,0.3678589,1.7718811,0.6439209,2.6003723,1.0355377c1.2425842,0.5752258,2.2322083,1.3578033,2.2322083,2.8305359 C292.6051941,209.6977539,291.4085388,211.1473694,289.2684326,211.1473694z"></path><path fill="#9F7D2D" d="M280.341217,210.8482056c-0.5752258-0.1380157-1.0814514-0.4603119-1.1045532-1.2428894 c-0.0458984-1.1735535-0.0921326-3.0372772-0.0921326-4.1877289c0-2.2784271,0.0231323-4.3726044,0.0921326-6.6735077 c0.0231018-0.4603119,0.1149292-1.1735535,0.1149292-1.6338654c0-0.2073517-0.138031-0.390976-0.3219604-0.390976 c-0.1152344,0-0.1611328,0.0455933-0.2991638,0.1149139c-1.1045532,1.0355377-1.8640442,1.2653809-3.5206909,1.5876617 c-0.5061951,0.092453-0.9206238,0.4140778-0.9206238,0.6445618c0,0.2067261,0.1152344,0.3678436,0.2991638,0.3678436 c0.2301636,0,0.6442566-0.2760315,1.0814514-0.2760315c0.7825928,0,0.989624,0.1611176,1.0586548,1.1048584 c0.0458679,0.5983276,0.0921326,2.8530121,0.0921326,4.9934082c0,1.2884827,0,3.1753082-0.0921326,4.6024475 c-0.045929,0.7819519-0.6211548,1.0124054-1.9558411,1.2191315c-0.138031,0.0231323-0.2763977,0.1842499-0.2763977,0.3453979 s0.2073975,0.276062,0.3453979,0.276062c0.6442566,0,2.1860046-0.1380157,3.2674255-0.1380157 c1.1507568,0,2.5545044,0.0686646,3.2446289,0.0686646c0.2070312,0,0.3681946-0.1380157,0.3681946-0.3216248 C281.7218323,210.8713074,280.9854431,211.0093536,280.341217,210.8482056z"></path></g><path fill="#9F7D2D" d="M0,123.9354248c0.3093179-1.3473129,0.5455447-2.7210236,0.9447039-4.0417404 c1.9427036-6.4665451,5.8579564-11.7124634,10.814353-16.0666656c8.9781389-7.8836975,18.4984741-15.0955734,28.3713722-21.8315353 c0.3160172-0.2129822,0.641983-0.4093094,0.9680519-0.6021881c2.8541107-1.6766357,5.1293793-0.7784271,5.6848717,2.4582977 c0.2993698,1.7529755,0.1796837,3.5991364,0.0398941,5.388855c-0.0597916,0.7217712-0.5620918,1.5034485-1.0710907,2.0723343 c-0.7251244,0.8149719-1.9160042,0.6785355-2.6711769-0.1364365c-1.2806206-1.3804092-2.295269-1.6764221-3.7588196-0.6586304 c-4.2911644,2.9906464-8.5158367,6.0775375-12.7370567,9.161171c-1.3339157,0.9745483-0.7883701,2.2719193-0.3526649,3.4561996 c2.1821785,5.9209976,4.3843555,11.8355026,6.593132,17.7465515c0.5321426,1.4204025,1.1043892,2.8243637,1.6864777,4.2214203 c0.4225082,1.0046005,1.1309853,1.2141266,2.0058479,0.5554962c2.5979843-1.9525528,5.2591133-3.8255157,7.7240143-5.9344025 c1.1176872-0.9580994,1.7663727-2.4449005,2.7510719-3.58918c0.5953903-0.6953812,1.4702492-1.7064819,2.1288834-1.6400909 c0.6552849,0.066597,1.4137077,1.2141266,1.7364235,2.0392456c0.9247055,2.348465,1.0278473,4.5803833-1.6765289,6.5796356 c-3.4960938,2.581337-6.8459053,5.3590012-10.328701,7.9535446c-1.1076393,0.825119-1.2873192,1.6632233-0.9679527,2.914093 c1.061142,4.1546326,2.1588287,8.3094635,3.0104446,12.5140381c0.7052269,3.4695892,1.1841774,7.0354309,0.1396866,10.5249329 c-1.8062668,6.030838-6.0574341,9.5968781-11.9852352,11.1803131c-2.1954765,0.5853424-4.2578678-0.1530914-5.9078007-1.7962189 c-0.9879494-0.9814453-1.0511932-2.1756744-0.6486835-3.3997498c0.4225082-1.2906799,1.310667-1.7629242,2.7676182-1.6100464 c5.8579578,0.6220856,9.8730011-2.7277222,10.2854576-8.5656738c0.2261772-3.1567383-0.2362251-6.257019-1.2607231-9.2009735 c-2.9207039-8.3792877-5.9843426-16.7153473-9.0346832-25.0516052c-1.4470024-3.9517975-2.9838467-7.8703003-4.5006924-11.7922516 c-0.6320362-1.6398849-1.1908798-1.7464752-2.5880375-0.6452332c-3.565938,2.8040619-6.7593136,5.9542999-9.4338427,9.6466217 c-3.6291819,5.0097961-4.9230995,10.628067-4.6470785,16.7056122c0.0299468,0.6718292,0.1264882,1.3670044,0.0067,2.0191345 c-0.0997899,0.5554962-0.469002,1.0610504-0.7185273,1.5899353c-0.4923506-0.36586-1.2607219-0.6352844-1.423756-1.1109772 c-0.661983-1.9393616-1.134335-3.9450989-1.6765296-5.9277039C0.1729825,128.7056427,0.0898413,128.346283,0,127.9903641 V123.9354248z M179.43396,99.0807571c-0.306076-0.4257584-0.6685791-0.9248047-1.0245972-1.4303513 c-6.2603607-8.9581451-12.3843994-18.026123-19.8655853-26.0395584 c-5.0295868-5.388855-10.7278595-9.8995972-17.8031921-12.3745461c-3.3730621-1.1773796-6.8425598-2.032341-10.4151917-1.2606201 c-5.9809952,1.2906685-9.9061966,5.1659241-12.4609375,10.5381279c-0.5288925,1.1111908-0.7084808,2.4051056-0.9181061,3.6358795 c-0.0565414,0.3360214,0.3626099,0.7550735,0.5655441,1.1343384c0.3293152-0.2694244,0.7251205-0.4856491,0.9746475-0.8117218 c1.7297287-2.265213,3.2299194-4.7468643,5.1892776-6.7891541c2.8141098-2.9340057,6.3002548-3.8421631,10.3053513-2.3917084 c2.8874054,1.0443878,5.6316833,2.3549576,7.8704071,4.4339981c1.2275238,1.1377869,2.3851013,2.5847855,2.9705353,4.1249847 c0.7816772,2.0524368,1.1875305,4.3077087,1.3904724,6.5097885c0.641983,6.9322891,0.0265961,13.8180923-1.2374878,20.6372986 c-1.1076355,5.9510498-2.9505463,11.6759186-5.8512573,17.0150299c-1.3638611,2.5112915-3.9850922,3.8986053-6.7725983,3.3896027 c-1.6665802-0.3059692-3.239975-1.1010361-4.8666611-1.6433334c-1.061142-0.3526688-2.1056366-0.3857574-2.8607101,0.6354904 c-0.7584229,1.0244904-1.0378952,2.1687775-0.276123,3.2864609c0.4390564,0.6452332,1.024498,1.25737,1.6731796,1.6798782 c2.5747452,1.6731796,5.4388046,1.9758987,8.3893509,1.433609c2.9937897-0.5487976,4.9830933-2.5114975,6.5598297-4.9663467 c2.2786255-3.5459442,3.5559998-7.5111389,4.8433075-11.4830399c3.0104523-9.2740555,3.9218597-18.7744904,3.2532806-28.4611053 c-0.1563416-2.2753754-0.3227234-4.5505371-0.5023041-7.0488358c0.4955902,0.4192581,0.811615,0.6787338,1.1210327,0.9447021 c4.7534637,4.1115875,8.8218079,8.8385544,12.4375916,13.9545364 c7.4412994,10.5348816,15.1420593,20.9101791,19.8722839,33.0784454c0.6885834,1.7629166,1.8927612,2.0258408,4.2546082,1.2007217 c1.9559021-0.6852264,2.208786-1.1475296,1.7230377-3.2066727c-0.6519318-2.7841644-1.5367432-5.5352402-1.9160156-8.3559494 c-0.7717133-5.7183762-1.3904572-11.4631424-1.842804-17.2146072c-0.4923553-6.26371-0.8682709-12.5507736,0.0365448-18.8144913 c1.0444946-7.2183685,3.852005-13.5785179,9.3572998-18.574913c0.5821838-0.5288963,1.1144409-1.1676331,1.4935913-1.8528633 c0.6187439-1.1243858,0.1231384-2.9273033-0.9645996-3.905304c-1.0079498-0.9114037-2.1256256-0.7749672-3.1568298-0.1262856 c-0.8117218,0.5089989-1.5967407,1.1243896-2.228775,1.836216c-2.7543182,3.106781-4.4907379,6.8159599-6.0075836,10.6213722 c-2.5314026,6.3601532-3.2499237,13.0729752-3.4461517,19.8190842 C179.1345825,87.8372955,179.3740692,93.4490814,179.43396,99.0807571 M261.0740051,104.8096848 c-0.1363525-0.1130829-0.2727661-0.2261734-0.4091187-0.3360138c0.1696472-0.5288925,0.3325806-1.0610428,0.5122681-1.5866852 c0.7284546-2.1421814,1.5201721-4.2679214,2.1688538-6.4334488c0.31604-1.0677414,0.7350769-2.5346451-0.4191589-3.123436 c-0.8449097-0.4292068-2.2753601-0.276123-3.2133484,0.1396866c-2.7842712,1.234024-5.6649933,1.8660583-8.6688385,2.1023865 c-0.8981018,0.0698471-1.5700378,0.3857651-1.4402924,1.4736023c0.1230316,1.0311966,0.5654297,1.6565323,1.7364197,1.4636536 c0.4956055-0.0799942,1.0079498-0.0998917,1.5134888-0.0899429c1.8628235,0.0466919,2.2254333,0.5788422,1.3273163,2.2321243 c-1.7431183,3.2200699-3.4329529,6.4831924-5.4122009,9.5603333c-3.3264618,5.1758728-6.8691406,10.2187576-10.3053436,15.3249893 c-0.9547577,1.4204102-0.6985321,2.0223923,0.9812469,2.4449005c2.6213379,0.6653366,3.8620605,0.1130905,5.6550293-2.1456299 c3.0935822-3.8951569,6.1938629-7.7937546,9.4504852-11.5526733c3.3064575-3.815567,7.032196-7.2084198,11.7756958-9.1778259 c1.5934143-0.6618805,3.3830261-1.1410294,5.0927429-1.1741257c3.0072021-0.0598984,3.8554688,1.5233383,2.258728,4.0181885 c-1.5002136,2.3419647-3.210022,4.5440369-4.836731,6.8027649c-3.0769348,4.2811127-6.1805725,8.5423279-9.2342529,12.8400955 c-1.0843811,1.5267868-1.8261719,3.2101212-0.8016663,5.0627823c1.0145569,1.832962,2.8175659,2.398407,4.7335815,2.3785095 c2.9106445-0.0332947,5.6483154-0.8716125,8.1631775-2.3551636c0.6652222-0.3924561,1.6499329-0.8515167,1.167511-1.7696228 c-0.1862793-0.3559113-1.3238525-0.3260651-2.0157776-0.2828217c-1.1643066,0.0698547-2.3152771,0.3526764-3.4828186,0.425766 c-1.0178833,0.0665894-1.2607117-0.5820923-0.8948364-1.4102631c0.3193665-0.7286682,0.7351685-1.4238586,1.1775818-2.0857315 c4.9563904-7.3913498,9.9428406-14.7595596,14.8726196-22.1643066c1.4569702-2.1886749,1.031189-3.815361-1.3904419-4.8964996 c-3.9485474-1.756424-8.0567017-2.3052139-12.0917358-0.382515c-2.1522217,1.024498-4.101532,2.4715042-6.1506348,3.7122269 C262.3014221,104.1809006,261.6794434,104.4836197,261.0740051,104.8096848 M77.6099777,123.2465439 c0.2794724,1.2839661,0.5788422,2.9404984,0.9980011,4.5639343c0.5521393,2.1222916,1.1841736,4.2378616,2.7243729,5.9011002 c1.5168457,1.6398773,3.1102295,1.8262634,4.8000641,0.4257507c3.0038452-2.4848938,3.9983902-6.0342865,4.8000336-9.6334152 c0.0799179-0.3626175-0.4623795-1.1310883-0.8548355-1.2541275c-0.3326645-0.0996857-1.0245972,0.3693161-1.2840729,0.7650223 c-0.5887909,0.9081573-0.8914108,2.0158997-1.5301437,2.8808136c-1.0944366,1.4703445-2.33181,1.2839737-3.0802841-0.3591614 c-0.2428284-0.5323486-0.4424057-1.0977936-0.5621948-1.6699371c-0.8582153-4.0750351-1.7430267-8.1431732-2.5114975-12.2381058 c-0.9114075-4.8798523-1.7130737-9.779808-2.5680389-14.6696091c-0.196228-1.1144409-0.6652298-2.0725403-1.9093018-2.2055283 c-0.6853333-0.0730896-1.4271088,0.0432434-2.0956879,0.2361221c-8.6222305,2.531395-15.8572426,9.7999115-17.0149269,21.3625336 c-0.432354,4.3278122-0.0432434,8.5890274,0.5821915,12.843544c0.615387,4.181427,1.573391,8.2662201,3.7722168,11.9652405 c1.7297249,2.9106598,4.1547279,3.2499237,6.2670631,0.6387329c1.3671112-1.6898193,2.6478348-3.5359955,3.5459442-5.5019379 C73.8244629,132.6038361,75.713974,127.7938309,77.6099777,123.2465439 M61.7860336,121.1175537 c0.1662827-4.2612152,0.7218781-8.3295517,2.8341141-12.0151749c1.4237518-2.4814529,3.4196548-4.3710632,6.0940781-5.4686508 c2.647934-1.0878372,4.6004868-0.139679,5.1660309,2.6844788c0.2660675,1.340416,0.2694168,2.7809219,0.1263809,4.1479263 c-0.811615,7.8471603-2.814209,15.374939-6.3202591,22.4670181c-0.4058533,0.8249207-0.9214554,1.616745-1.5001907,2.3285675 c-0.8748627,1.0843964-1.5834427,1.1142426-2.4749527,0.0231476c-0.6552811-0.8015594-1.2141266-1.7363281-1.5933914-2.6976776 C62.6541939,128.8782196,61.9124222,125.0062103,61.7860336,121.1175537 M328.0204773,167.009903 c0.675293,0,1.347229,0.0166473,2.0224915-0.0032501c6.6628723-0.1995697,12.7503662-2.1622772,18.1957703-6.0275879 c2.8074951-1.9957886,4.90979-4.5040436,5.5118713-8.0101776c0.139801-0.8082733,0.3127747-1.8628235-0.7550659-2.1488953 c-1.0112-0.2694092-1.1875305,0.7784271-1.4370422,1.4338074c-1.0478516,2.7709808-2.7476196,4.9797516-5.249176,6.6129303 c-11.3232422,7.3848572-22.8827209,7.0488434-34.4587708,0.8216705 c-6.7693481-3.6425781-9.3407288-12.9034424-5.8479004-19.8056946c0.7717285-1.5235443,1.2274475-1.723114,2.9305725-1.3406067 c4.6337585,1.0478363,9.2709045,1.2973633,13.8547363-0.1928864c3.3397522-1.0845947,6.2770081-2.747818,7.7406616-6.1906128 c1.8961182-4.4508591-0.4856567-9.15448-5.1160889-9.6100769c-2.0690918-0.2030334-4.3677063,0.0730896-6.3170166,0.7948608 c-8.6953125,3.2101288-15.1752319,9.0647278-19.5661926,17.2310486c-1.5567627,2.8942108-2.3817749,5.9411011-1.8428345,9.2409668 c0.7384338,4.4908447,3.3697205,7.7773132,6.9622498,10.2955017 C311.647644,165.0141144,319.5978394,166.8734741,328.0204773,167.009903 M309.8247375,135.0958405 c0.3493042-0.4423981,0.6187134-0.8614502,0.9646912-1.2041779c2.4282532-2.4217529,5.129364-4.5206909,8.2495728-5.937645 c1.2741089-0.5788422,2.834198-0.8283615,4.2413025-0.7518234c1.9060669,0.1063919,2.7476196,1.6100464,1.8927612,3.3396606 c-0.5887756,1.190979-1.5003052,2.3884583-2.5813293,3.1335907c-3.3730774,2.3218536-7.1819153,2.9339905-11.2002258,2.1622772 c-0.3260498-0.0633545-0.6453247-0.1963348-0.9513855-0.3260651 C310.2605286,135.4318542,310.1074524,135.2887268,309.8247375,135.0958405 M302.6368103,116.5032654 c0.6852417-0.8982086,1.2706604-1.6699295,1.8594666-2.4382019c3.2034302-4.1881256,6.4134521-8.3695526,9.6035767-12.5641708 c0.7251282-0.9514084,0.5820923-1.5034485-0.4191589-1.5966415c-3.0836487-0.2927704-5.9277954-0.0233459-8.0467224,2.7709732 c-2.4183044,3.1900253-5.0994568,6.1804657-7.5610962,9.3406448c-0.8814697,1.1276398-1.6565247,1.6831284-3.2266846,1.4137115 c-2.5712891-0.4424057-5.2890625,1.0644913-6.2370911,3.3197632c1.5667725,0.3959045,3.0936584,0.7784195,4.7069702,1.1842804 c-0.1795959,0.2860718-0.256134,0.432457-0.3525696,0.5589447c-4.5506592,5.9177475-9.1145935,11.8255463-13.6351624,17.7631989 c-0.5488892,0.7219696-1.0079651,1.5767365-1.2640686,2.4416504c-0.8549805,2.8773499,0.7417603,5.5384827,3.7256165,5.7847595 c1.7430115,0.1429291,3.5593262-0.3526611,5.3123169-0.7185211c0.7451172-0.1563416,1.4503479-0.6586456,2.07901-1.1310883 c0.2628479-0.1961365,0.3959351-0.7317352,0.3560181-1.0876465c-0.0166321-0.1563263-0.6087646-0.3559113-0.9380798-0.3526611 c-0.7950745,0.0066986-1.6000061,0.2460785-2.378418,0.1697388c-1.2440796-0.1264954-1.5933838-0.8149719-1.0145569-1.916214 c0.4291077-0.8149719,0.9546509-1.5899353,1.5168457-2.3218689c3.5161133-4.5838318,7.0587769-9.1477661,10.5814819-13.7281494 c1.7563171-2.2853165,1.723114-2.2321243,4.4541016-1.3040695c0.8083496,0.276123,1.9260559,0.4026108,2.617981,0.0464935 c1.0510864-0.5353928,1.9126587-1.4967422,2.7409058-2.3850021c0.6653442-0.7118301,0.5189514-1.3371658-0.5055237-1.6965332 C305.304657,117.5976028,304.0306091,117.052063,302.6368103,116.5032654 M235.0398254,119.6573563 c-0.1363373-0.1264877-0.2694244-0.2562256-0.4057617-0.3859634c-0.3526611,0.183136-0.7018738,0.3792648-1.0644836,0.5455475 c-1.7896271,0.8316116-3.516098,1.8762054-5.3855133,2.4351501c-5.4754333,1.6364365-9.7432556-1.7332764-9.3806458-7.2618103 c0.1463928-2.2053223,0.9080658-4.2112732,2.4117126-5.8412094c0.4557037-0.4923477,1.2207184-0.8582077,1.892746-0.9514008 c1.4103699-0.1963348,2.8640594-0.0964432,4.2844696-0.2560272c4.4374542-0.4957962,8.5456848-1.8861542,12.0717316-4.713768 c1.8229065-1.4636536,3.1334839-3.2797699,3.6990204-5.5916824c0.9879456-4.0417404-1.5534973-8.1031799-5.4753418-8.6022263 c-2.2454224-0.2860718-4.3643646,0.3559113-6.3336639,1.373909c-6.6129303,3.4127502-11.250061,8.771759-14.6963043,15.2283554 c-2.1522369,4.0250931-3.4994507,8.2796097-3.2532654,12.9399872c0.2229156,4.1580734,2.2121277,6.5698853,6.2704163,7.3714523 c0.781662,0.1563339,1.5800781,0.2828217,2.3750458,0.3126678c4.351059,0.1530838,8.2796173-0.9181061,11.3565521-4.1879272 C234.0619202,121.3737793,234.5009766,120.4690781,235.0398254,119.6573563 M223.330719,104.3589554 c0.2860718-0.5522385,0.4191589-1.0179977,0.7118225-1.3371582c2.2653198-2.4849014,4.4940948-5.00634,6.8791962-7.3714523 c1.1076355-1.1010361,2.6079407-1.689827,4.2545166-1.6833344c1.8362274,0.0101547,3.0237427,1.3107681,2.4615631,3.0637436 c-0.4091187,1.2740173-1.1010437,2.6146317-2.0424042,3.539444c-2.9272919,2.8706512-6.5598297,4.1911697-10.6713104,4.1113739 C224.4450531,104.6716232,223.972702,104.4953995,223.330719,104.3589554 M100.3187103,98.0954514 c-0.6320419-1.7198792-1.1775818-3.6756821-2.0524445-5.4720993c-1.1077423-2.281868-3.7256241-2.9837494-5.7947159-1.5133972 c-2.5979843,1.8461685-4.4340973,4.3775558-5.385498,7.4412994c-0.1563339,0.5055466,0.1396866,1.4303513,0.5488892,1.7462692 c0.4025116,0.3126678,1.2540283,0.2428284,1.8328705,0.0732956c0.5787354-0.1664886,1.0510864-0.6787338,1.5833359-1.0179977 c0.9115067-0.5788422,1.7197723-0.4690018,2.215477,0.5288925c0.4091034,0.8216705,0.878212,1.6833344,1.0012436,2.5681458 c0.7351761,5.3356552,1.3971634,10.6812668,2.0524445,16.0268707c0.3759155,3.0503387,0.5820923,6.1240311,1.0677414,9.1577225 c0.5721436,3.6092758,1.7530746,3.9684372,4.5706406,1.6366348c0.8082657-0.6685791,1.0710907-1.483551,0.8582077-2.4749527 c-1.5600891-7.3048553-1.543541-14.6497116-0.4258575-22.0012665c0.6154938-4.0614395,1.6832275-8.0067368,3.9451981-11.5027313 c1.2474289-1.9261551,2.2952728-3.0204926,5.0429916-1.8861618c0.7850189,0.3226166,1.5001984,0.1896362,1.9392548-0.6454315 c1.1043854-2.098938,1.6167374-4.3375626,1.4271011-6.7061234c-0.0831375-1.0378952-0.6852264-1.573288-1.7863693-1.4969482 c-1.8660583,0.1331863-3.5093918,0.9049149-4.6603775,2.2686691c-1.7596664,2.0857391-3.4294968,4.2811203-4.8300095,6.6163788 C102.1815186,93.5881577,101.3000565,95.9764099,100.3187103,98.0954514 M194.6405792,119.4707718 c0.2694244,2.4349518,1.1309967,3.4961929,3.210022,3.6724243c2.5847015,0.2129822,6.4932404-1.8928604,7.5942841-4.2378693 c0.2562256-0.548996,0.029953-1.323967,0.0267029-1.9925461c-0.5921478,0.1429367-1.1842804,0.276123-1.7730713,0.4357071 c-0.1097412,0.0298462-0.1928864,0.1563339-0.2993774,0.2261734c-0.8582001,0.5589447-1.3239594,0.3859634-1.50354-0.6086884 c-0.0797882-0.4458542-0.1164398-0.9380035-0.0200043-1.3771591c0.5123596-2.2952652,0.9414673-4.6205826,1.6433411-6.8592072 c1.563446-4.9730377,3.3397522-9.8762436,4.883194-14.8559875c0.5921478-1.9093094,0.9879608-3.9284515,1.121048-5.9177475 c0.1463776-2.1754837-1.2674255-3.6823807-3.0802917-3.7822723c-2.4482574-0.1329803-6.9389954,2.4816513-7.9336395,4.7202759 c-0.2029419,0.4625015-0.2361298,1.3107681,0.0432434,1.5901413c0.2827148,0.2860641,1.061142,0.1662827,1.6000824,0.0864868 c0.6319427-0.0964355,1.237381-0.3427124,1.8527679-0.5221939c-0.0265961,0.7217712-0.0498505,1.4403-0.0865021,2.1620789 c-0.0032349,0.0765381-0.0731812,0.1496353-0.0964355,0.2296295c-1.5967407,5.4487457-3.2732697,10.8708954-4.7568207,16.3462372 C196.1108398,112.3088455,195.4389038,115.9081802,194.6405792,119.4707718 M208.9573212,71.4118729 c-2.790863,0.0032501-5.1327209,2.1588364-5.1194305,4.7170258c0.0099487,2.2619705,1.8894196,3.9649963,4.3709564,3.9649963 c2.7809296-0.0032501,5.1360779-2.1754837,5.1227875-4.7267685 C213.3216858,73.1283035,211.418869,71.4086304,208.9573212,71.4118729"></path><g><path fill="#9F7D2D" d="M79.533783,0.1018826c0.5989532-0.2063922,1.0406265-0.0905173,1.1642075,0.2689839 c0.1239014,0.3595011-0.1139526,0.6419662-0.7706833,1.0691948c-2.3877945,1.6257796-2.9584961,2.6927278-1.8787155,6.6084003 c1.3308029,5.0349417,3.8906403,12.8624363,6.0964355,19.2708645c1.2572937,3.6537514,2.4096222,6.8074131,3.1703491,8.8231869 c1.9916992,5.008297,3.4203949,5.6557198,6.2578888,4.946991c0.5594711-0.1255035,1.9165878-0.6596222,2.3248825,0.1377029 c0.1444397,0.4192009-0.2317505,0.883667-0.7706833,1.0691948c-0.5989532,0.2060699-4.6757584,1.2072182-7.0115509,2.0109596 c-2.4555206,0.8451462-5.3286438,2.0350304-6.5862579,2.4677162c-0.6589737,0.2269363-1.040947,0.0901985-1.1850662-0.3290062 c-0.1235809-0.3591805,0.0539246-0.6214256,0.6923599-0.908062c3.5276031-1.8170853,3.5121994-3.4194336-0.0539246-13.7810898 c-1.1542587-3.3539543-1.7522507-5.0907936-2.2821884-6.0473232c-0.3071823-0.6978168-0.3877487-0.737299-1.4659348-0.3662415 l-21.5822639,7.3607845c-1.4373627,0.494957-1.2293663,1.2938843-0.8544579,2.7726517 c0.4387856,1.8588142,1.741333,6.0325584,2.8750458,9.3268089c1.7108421,4.9710655,4.0142174,6.9919739,6.948967,5.981842 l1.1584244-0.3318977c0.5392532-0.1855278,0.9809265-0.0696526,1.1045074,0.2898483 c0.2474747,0.7186813-0.0500717,1.0220108-2.2061157,1.764122c-1.1979141,0.4124641-4.6738396,1.4075127-6.4106789,2.0055046 c-1.0781822,0.3707352-3.2117577,1.3731651-5.0086212,1.9916992c-1.5570908,0.5357208-2.2385368,0.5023384-2.4856949-0.2163429 c-0.1238976-0.3595009,0.3739471-0.6647568,1.569931-1.2771912c2.7925529-1.2290459,2.4824829-4.2706795-1.6479263-17.0506248 c-2.7681618-8.6267433-3.2008476-9.8843536-3.6338539-11.1422882c-3.6277504-10.5410862-4.50243-11.9148932-7.362709-11.4664803 l-1.9204407,0.2590342c-1.2804031,0.1726885-1.3815117,0.0735044-1.5256348-0.3456993 c-0.1855278-0.5389309,0.031456-0.8817406,0.510685-1.0464048c1.3176346-0.4535494,3.958683-0.7597675,6.3545036-1.5840521 c0.4792252-0.1649857,1.2576103-0.4330063,4.770771-1.7092352c0.8384094-0.2885637,1.3776588-0.4740915,2.8561096-0.849 c0.6198158-0.1460476,0.7806282-0.0674067,0.9250717,0.3517971c0.103035,0.2994776-0.0356293,0.4808331-1.0518608,1.0316401 c-2.3110809,1.2643528-2.8159866,2.9119587-1.8039246,6.0470009c1.2386742,3.7940216,2.4978905,7.6477451,3.7965889,11.4209023 c0.3299675,0.9584541,1.0130196,1.192131,2.3906822,0.7180386l20.6857605-6.8513851 c2.0963364-0.721571,1.9933014-1.0210476,1.1276093-3.5365925l-2.4734955-7.1871338 c-1.5872574-4.6118855-2.9469452-6.4212675-4.9498825-6.4020085L67.929924,5.7030387 c-0.8817444-0.0314565-1.26371-0.1678743-1.366745-0.4673514c-0.1235809-0.3595014,0.054245-0.6217446,0.5931702-0.8072729 c0.7787094-0.2676997,5.2724762-1.6135821,7.3091125-2.3142884C76.7412338,1.3306061,78.2758484,0.5345679,79.533783,0.1018826z"></path><path fill="#9F7D2D" d="M109.2963028,12.6898785c8.8668365-1.5070162,16.3887558,3.060895,17.6941986,10.7413807 c1.3478012,7.9298878-4.2417908,15.1115646-12.8585892,16.57621c-8.5545197,1.4537315-15.3882523-2.8455162-16.6936874-10.5256786 C96.0798264,21.4893112,101.3664169,14.0376863,109.2963028,12.6898785z M108.8324814,14.1179323 c-5.7446365,0.9764309-8.4174576,5.2853079-7.3135986,11.7791185c1.3583984,7.9924793,7.2795792,13.3464794,13.6485214,12.2641239 c5.8069077-0.9870224,8.4996338-5.5562172,7.3428116-12.3623447 C121.1835938,17.9934826,115.3262939,13.0143929,108.8324814,14.1179323z"></path><path fill="#9F7D2D" d="M155.0453949,31.3691711c-3.1681061,3.3565216-5.753952,4.7120323-9.4847412,4.9286957 c-6.0072021,0.348587-9.2664642-3.3324471-9.7142334-11.0469551c-0.1688385-2.9087486-0.2076721-5.7616482-0.4500122-9.93507 c-0.1139526-1.9602442-0.1916351-2.2093267-0.6599426-2.6262836c-0.4015503-0.357255-0.5315552-0.4134264-3.0307159-0.8393717 c-0.5132599-0.0969362-0.7103424-0.2124901-0.7324982-0.5918922c-0.0292053-0.5058699,0.2163544-0.646781,1.793335-0.801816 l5.9927673-0.6018438c0.6323242-0.0365915,0.7770996,0.2721939,0.8027649,0.7148294 c0.2754059,4.7425261,0.3014069,9.5630512,0.6172638,15.0011482c0.3302917,5.6910305,2.7720032,8.4043026,7.3880615,8.1362782 c5.3116302-0.3084641,7.7498169-3.1148186,7.4269104-8.6793823l-0.5983124-10.3070898 c-0.1470184-2.5293474-0.6483917-3.5154076-1.9872131-3.6280727l-1.3391418-0.1123438 c-1.1491089-0.123579-1.5394287-0.2914524-1.5651093-0.7340889c-0.0330658-0.5691032,0.2722015-0.7770996,1.3433075-0.9026041 l6.7477112-0.7090521c0.5691071-0.033061,0.832962,0.1418743,0.8733978,0.8374453 c0.3229065,5.5645638,0.5793762,11.0694246,0.9388733,17.2663269c0.3232269,5.5645618,0.6092224,6.1192226,3.1385803,5.9722118 l0.7549438-0.1072083c1.0749817-0.0622711,1.4059143,0.1720467,1.4389648,0.7411499 c0.0330658,0.5691032-0.4654236,0.7251015-1.5330048,0.9138374c-0.818512,0.1110611-2.7639923,0.477623-4.4006805,0.6997452 c-0.6288147,0.0998268-1.5734558,0.2182693-2.016098,0.2439461c-0.7588043,0.0439758-0.8891144-0.0118752-1.0447998-0.5103645 C155.504715,33.8169899,155.4010315,33.1252708,155.0453949,31.3691711z"></path><path fill="#9F7D2D" d="M168.4772491,31.1756191c0.0776825-2.5954704,0.0333862-3.2303753,0.0003204-4.2450027 c0.0285645-0.9494686,0.2930603-1.3218079,0.7995758-1.3067226c0.6962128,0.0208645,0.817215,0.2147388,1.2052917,2.0636005 c0.7745209,3.7616024,3.5491028,6.3156643,6.9675751,6.4180584c3.60849,0.1081734,6.1991425-1.7785683,6.282608-4.5637379 c0.0741425-2.4690018-1.7105255-4.2331257-5.6550903-5.8085117c-7.1408997-2.7482567-9.0501099-4.5797863-8.9345551-8.4412146 c0.1290283-4.3047047,4.2100067-7.2869587,9.7806702-7.120369c3.2284546,0.0969372,5.8701477,0.7462864,6.0373688,1.5115099 l0.6593018,3.3777056c0.1056061,0.7003851,0.1595306,1.0188007,0.151825,1.2717352 c-0.0150909,0.5065117-0.4063568,0.875-0.9128723,0.8599138c-0.3797302-0.0115557-0.6271973-0.2089596-0.8615265-0.8496428 c-1.1192627-2.8214417-3.4794464-4.4125547-6.707901-4.5091705c-3.0384216-0.0911598-4.7223053,1.1256876-4.7926025,3.4679012 c-0.0796051,2.6587038,0.7896271,3.2550907,8.1221619,5.9455719c4.3246002,1.5869408,6.4010468,4.1836929,6.2870941,7.9818878 c-0.147644,4.9376812-4.1881866,8.6816311-9.1258698,8.533659c-1.392746-0.041729-4.4777069-0.7042389-6.6109619-1.4017334 c-2.1964874-0.6994247-2.7569275-1.0329247-2.7453766-1.4129715L168.4772491,31.1756191z"></path><path fill="#9F7D2D" d="M198.1155548,20.2031307c-0.4407196-0.0484676-0.7202911,0.1755772-0.7620239,0.5533752 c-0.2914429,2.6439381,0.6631622,6.6995602,1.8957367,8.8109875c1.5972137,2.8522568,4.1445312,4.5984039,7.4179077,4.9595108 c2.0774078,0.2291832,5.3992615-0.4243393,7.4333344-1.5381508c0.6082611-0.3152046,0.9369507-0.4063644,1.314743-0.3646393 c0.188736,0.0208664,0.2940216,0.2234039,0.2593536,0.5382919c-0.0696411,0.6294479-0.8522034,1.3715591-2.7675171,2.5620842 c-2.8034668,1.7301025-5.4814301,2.3268089-8.8180389,1.9589615c-7.6172485-0.8400116-12.3013611-6.8998528-11.4408112-14.7061634 c0.8746796-7.9321356,7.1226196-13.7422514,13.9842834-12.9856939c4.7845612,0.5273752,8.2210083,3.4550619,10.0226898,8.4964228 c0.2455597,0.664114,0.4561157,1.6431141,0.400589,2.1467361c-0.0901947,0.8185062-0.7613678,1.1266499-2.0273285,1.0508995 L198.1155548,20.2031307z M200.1309967,13.4801388c-0.9433594,1.0428743-2.0115967,3.219141-2.129715,4.2892971 c-0.034668,0.3145638,0.056488,0.6432514,0.4972076,0.6920414c2.9588165,0.3261185,5.9876099,0.596386,8.9531708,0.8595924 c3.406601,0.3119946,3.9869385,0.2484398,4.0979919-0.7588043c0.1527863-1.3850422-0.6531982-3.3215342-1.8854523-4.8593645 c-1.0082092-1.2579327-2.484726-2.3130045-4.3104858-2.5142603 C203.3392334,10.9665203,201.5214996,11.8495445,200.1309967,13.4801388z"></path><path fill="#9F7D2D" d="M254.2786102,19.1747017c8.6627045,2.4186077,13.5185394,9.7585297,11.4237823,17.2624741 c-2.1630859,7.7478905-10.2820435,11.8600044-18.7011108,9.5097656 c-8.3577576-2.3335457-12.7057953-9.137104-10.610733-16.6410503 C238.5706635,21.4970131,246.5307159,17.0115948,254.2786102,19.1747017z M253.2495422,20.2686119 c-5.6123962-1.5670395-9.8676605,1.190527-11.6391754,7.5354004c-2.1801147,7.808876,0.892334,15.1770439,7.1149139,16.9142075 c5.6737061,1.5840492,10.0580139-1.4004517,11.9145813-8.0502586 C262.7689514,29.0420437,259.5944214,22.0397968,253.2495422,20.2686119z"></path><path fill="#9F7D2D" d="M283.6257935,28.9422188c-0.241394,0.5854721-0.0796204,0.857666,1.1497498,1.3648205l1.7323303,0.7831974 c1.6392822,0.6763115,2.8484192,0.901001,3.8270874,0.6881886c0.2237244-0.0446167,0.895874-0.1784668,1.1298828-0.0818501 c0.2927246,0.1206894,0.4063416,0.5100403,0.2371826,0.9199371c-0.3139038,0.7610512-1.3686523,1.4906464-2.5126343,1.7724686 c-0.7546387,0.1681938-1.1783447,0.1990089-1.8222351-0.0667648l-4.0986328-1.6906166 c-0.5270386-0.2176285-1.1298523,0.0818481-1.3474731,0.608902l-5.0240479,12.1781006 c-2.5842285,6.2649498-2.4542236,7.2776527,0.9725952,9.1024399c0.5957336,0.3826141,0.8743591,0.7032776,0.7055054,1.1131706 c-0.2416992,0.5854721-0.6413269,0.5575485-2.222168-0.094368c-1.5220947-0.6281662-2.8410034-1.5834084-4.5390015-2.2837944 c-1.7564392-0.7244606-3.5751343-1.1321068-4.6876526-1.591114c-0.6438904-0.2657738-0.8399963-0.6207809-0.6711731-1.0306778 c0.2176208-0.5267334,0.5482483-0.6644363,1.5230713-0.5363617c1.4572449,0.1216507,2.4051208-0.5151787,2.9848022-1.9204445 l6.8356628-16.5694695c0.2173157-0.5267334,0.0006409-1.1642056-0.4676514-1.3574371l-3.0548096-1.3972397 c-0.5270691-0.2176266-0.723175-0.5723133-0.5780945-0.92379c0.120697-0.2927361,0.3826294-0.5957451,0.9995422-1.0948734 c0.510376-0.406044,0.6756592-0.4747334,1.0855713-0.3058968l2.6930542,1.1112442 c0.4686279,0.1932316,1.0232849,0.0109138,1.1924438-0.398983c5.6188049-10.6309605,13.6661682-15.1902056,21.2189026-12.0744228 c1.932312,0.7970018,2.3486328,1.448597,1.8414917,2.6779633c-0.7488708,1.8151588-2.269043,3.1748447-3.0888367,2.8365269 c-0.4098816-0.1688366-0.4544983-0.3928833-0.4952698-0.9578133c-0.0577698-1.1886005-0.4882202-1.6402245-2.4789429-2.461298 C291.9235229,15.3052492,287.6595764,19.1644287,283.6257935,28.9422188z"></path></g></g></svg>