<?xml version="1.0" encoding="UTF-8" standalone="no"?>
<!DOCTYPE svg PUBLIC "-//W3C//DTD SVG 1.1//EN" "http://www.w3.org/Graphics/SVG/1.1/DTD/svg11.dtd">
<svg width="100%" height="100%" viewBox="0 0 369 86" version="1.1" xmlns="http://www.w3.org/2000/svg" xmlns:xlink="http://www.w3.org/1999/xlink" xml:space="preserve" xmlns:serif="http://www.serif.com/" style="fill-rule:evenodd;clip-rule:evenodd;stroke-linejoin:round;stroke-miterlimit:2;">
    <g>
        <g>
            <path d="M26.425,84.579L22.441,84.579L22.441,66.477L13.485,81.808C11.891,79.38 10.348,76.863 8.856,74.257C7.287,71.524 5.883,68.893 4.644,66.363L4.644,84.578L0.659,84.578L0.659,60.291L5.327,60.291L13.409,74.067L21.833,60.178L26.424,60.178L26.424,84.579L26.425,84.579Z"/>
            <path d="M74.223,84.579L69.708,84.579L66.255,77.748L54.263,77.748L50.772,84.579L46.295,84.579L58.059,60.292L62.119,60.292L74.223,84.579ZM63.94,73.764L60.146,66.022L56.275,73.764L63.94,73.764Z"/>
            <path d="M120.01,76.647C120.01,78.747 119.137,80.606 117.392,82.226C115.317,84.149 112.459,85.11 108.816,85.11C106.286,85.11 103.744,84.655 101.189,83.744C99.291,83.061 97.559,82.226 95.99,81.239C95.358,80.784 94.725,80.316 94.092,79.835L96.901,76.647C98.469,77.912 100.303,78.975 102.403,79.835C104.503,80.67 106.539,81.087 108.513,81.087C110.233,81.087 111.763,80.809 113.105,80.252C114.749,79.569 115.571,78.633 115.571,77.444C115.571,76.836 115.432,76.293 115.154,75.812C114.876,75.331 114.42,75.04 113.788,74.939L101.797,73.156C100.051,72.878 98.584,72.131 97.395,70.917C96.206,69.677 95.611,68.26 95.611,66.667C95.611,64.213 96.978,62.366 99.709,61.126C101.885,60.139 104.567,59.646 107.754,59.646C109.702,59.646 111.637,60.026 113.56,60.785C115.28,61.469 116.988,62.442 118.683,63.708L115.61,66.705C114.143,65.82 112.613,65.099 111.019,64.542C109.121,63.885 107.351,63.556 105.707,63.556C104.391,63.556 103.089,63.834 101.798,64.391C100.508,64.948 99.862,65.58 99.862,66.288C99.862,67.073 100.229,67.718 100.963,68.223C101.722,68.729 102.595,69.033 103.581,69.134L111.778,70.083C114.029,70.361 115.876,70.969 117.318,71.904C119.112,73.093 120.01,74.675 120.01,76.647Z"/>
            <path d="M165.797,76.647C165.797,78.747 164.924,80.606 163.179,82.226C161.104,84.149 158.245,85.11 154.603,85.11C152.074,85.11 149.531,84.655 146.976,83.744C145.078,83.061 143.346,82.226 141.777,81.239C141.145,80.784 140.512,80.316 139.879,79.835L142.687,76.647C144.255,77.912 146.089,78.975 148.189,79.835C150.289,80.67 152.325,81.087 154.299,81.087C156.019,81.087 157.549,80.809 158.89,80.252C160.534,79.569 161.356,78.633 161.356,77.444C161.356,76.836 161.217,76.293 160.939,75.812C160.661,75.331 160.205,75.04 159.573,74.939L147.582,73.156C145.836,72.878 144.369,72.131 143.18,70.917C141.991,69.677 141.396,68.26 141.396,66.667C141.396,64.213 142.763,62.366 145.494,61.126C147.67,60.139 150.351,59.646 153.539,59.646C155.487,59.646 157.422,60.026 159.345,60.785C161.065,61.469 162.773,62.442 164.468,63.708L161.395,66.705C159.928,65.82 158.397,65.099 156.803,64.542C154.905,63.885 153.135,63.556 151.491,63.556C150.175,63.556 148.873,63.834 147.582,64.391C146.292,64.948 145.646,65.58 145.646,66.288C145.646,67.073 146.013,67.718 146.747,68.223C147.506,68.729 148.379,69.033 149.365,69.134L157.562,70.083C159.813,70.361 161.66,70.969 163.102,71.904C164.899,73.093 165.797,74.675 165.797,76.647Z"/>
            <path d="M213.634,71.866C213.634,75.99 212.154,79.291 209.194,81.771C206.538,83.997 203.351,85.11 199.631,85.11C195.811,85.11 192.586,83.985 189.955,81.733C187.096,79.279 185.667,75.991 185.667,71.867C185.667,68.376 187.122,65.441 190.031,63.063C192.788,60.811 195.989,59.685 199.631,59.685C203.173,59.685 206.335,60.785 209.118,62.987C212.128,65.364 213.634,68.324 213.634,71.866ZM209.269,71.866C209.269,69.791 208.283,67.995 206.31,66.477C204.362,64.934 202.136,64.162 199.631,64.162C197.026,64.162 194.749,64.934 192.801,66.477C190.878,67.995 189.917,69.791 189.917,71.866C189.917,74.725 190.778,76.951 192.498,78.545C194.218,80.139 196.596,80.936 199.631,80.936C202.642,80.936 204.995,80.101 206.69,78.432C208.409,76.736 209.269,74.548 209.269,71.866Z"/>
            <path d="M254.26,84.579L233.502,84.579L233.502,60.291L237.753,60.291L237.753,80.481L254.26,80.481L254.26,84.579Z"/>
            <rect x="274.128" y="60.291" width="4.098" height="24.287"/>
            <path d="M320.561,84.579L316.463,84.579L302.461,67.084L302.461,84.579L298.096,84.579L298.096,60.291L302.346,60.291L316.349,77.672L316.349,60.291L320.561,60.291L320.561,84.579Z"/>
            <path d="M368.397,71.866C368.397,75.99 366.917,79.291 363.957,81.771C361.301,83.997 358.113,85.11 354.395,85.11C350.575,85.11 347.349,83.985 344.719,81.733C341.86,79.279 340.431,75.991 340.431,71.867C340.431,68.376 341.886,65.441 344.795,63.063C347.552,60.811 350.752,59.685 354.395,59.685C357.937,59.685 361.099,60.785 363.882,62.987C366.892,65.364 368.397,68.324 368.397,71.866ZM364.033,71.866C364.033,69.791 363.047,67.995 361.074,66.477C359.125,64.934 356.9,64.162 354.395,64.162C351.79,64.162 349.513,64.934 347.565,66.477C345.642,67.995 344.681,69.791 344.681,71.866C344.681,74.725 345.541,76.951 347.261,78.545C348.982,80.139 351.359,80.936 354.395,80.936C357.406,80.936 359.759,80.101 361.453,78.432C363.173,76.736 364.033,74.548 364.033,71.866Z"/>
        </g>
        <path d="M184.279,28.452C182.766,28.868 180.723,30.609 180.193,32.159C179.663,33.71 179.928,34.58 180.836,34.467C182.539,32.5 183.863,31.441 184.279,28.452ZM266.173,18.869C266.298,18.245 266.928,17.812 267.557,18.038C268.186,18.264 268.312,18.541 268.312,18.541C268.312,18.541 269.042,18.49 269.646,19.271C270.25,20.051 270.401,20.278 270.426,21.084C270.451,21.889 270.426,22.468 270.426,22.468C270.426,22.468 271.206,23.676 271.861,23.978C272.516,24.28 273.144,24.356 274.202,23.777C275.259,23.198 274.907,23.928 274.705,24.255C274.504,24.582 273.094,25.916 271.836,25.967C270.578,26.017 269.344,24.734 269.218,23.802C268.715,23.727 268.161,23.752 268.639,23.097C268.74,21.637 268.765,21.662 268.513,21.084C268.261,20.505 267.858,20.228 267.229,19.926C266.601,19.624 266.048,19.498 266.173,18.869ZM261.417,21.764C261.945,21.261 263.254,20.329 263.632,20.203C264.01,20.077 264.261,20.253 264.06,20.656C263.858,21.059 263.355,21.562 263.632,22.267C263.909,22.972 264.085,24.129 265.218,24.356C266.35,24.583 266.577,24.708 267.383,24.205C268.189,23.702 268.214,24.23 267.911,24.658C267.609,25.086 266.552,26.219 265.319,26.244C264.086,26.269 262.877,25.464 262.399,24.281C262.079,23.489 262.257,22.438 262.6,21.89C262.297,21.738 260.888,22.267 261.417,21.764ZM253.412,17.384C252.934,16.452 252.808,15.547 253.236,14.817C253.664,14.087 254.494,13.03 255.073,13.08C255.652,13.13 255.929,13.533 255.4,14.641C254.872,15.748 254.293,16.402 253.412,17.384ZM255.577,11.645C254.721,12.123 252.708,13.659 252.154,15.396C251.6,17.133 251.55,18.794 251.952,19.725C252.355,20.656 253.034,21.386 253.034,22.62C253.034,23.853 253.89,25.892 255.425,25.817C256.961,25.741 258.093,24.76 259.075,23.476C260.056,22.193 260.811,21.614 260.182,19.902C259.553,18.191 258.52,18.115 257.816,17.989C256.558,18.946 256.457,19.222 256.457,19.222C256.457,19.222 257.665,19.675 258.219,20.355C258.773,21.035 258.974,21.815 258.848,22.52C258.722,23.225 258.395,23.703 257.791,23.929C256.582,24.382 255.578,24.125 255.167,23.354C254.651,22.388 254.677,20.945 254.469,20.355C254.016,19.071 253.714,18.517 253.512,17.888C254.997,16.378 255.299,16.076 256.13,14.918C256.961,13.76 257.665,12.754 256.91,11.872C256.497,11.388 255.823,11.507 255.577,11.645ZM230.029,17.963C230.029,17.963 230.381,23.953 235.139,23.953C238.014,23.953 239.739,21.545 239.846,21.134C240.022,20.454 240.978,17.434 239.594,15.622C238.209,13.81 236.171,12.526 234.635,13.231C231.665,14.594 234.88,17.561 235.591,17.912C237.73,18.969 238.561,18.466 238.939,18.365C239.316,18.264 239.518,18.642 238.838,19.372C238.158,20.102 237.328,20.681 237.328,20.681C237.328,20.681 235.667,20.933 234.006,19.422C232.345,17.912 231.891,16.679 232.093,15.345C232.294,14.011 232.873,12.853 234.182,11.947C235.491,11.041 237.203,10.764 238.763,11.922C240.323,13.08 241.557,14.389 241.355,16.881C241.154,19.373 241.128,19.599 240.726,20.631L240.641,20.819C240.986,20.397 241.108,21.021 241.104,20.983C241.18,21.587 241.255,24.331 242.665,23.852C244.075,23.374 245.736,21.436 246.214,20.882C246.415,21.235 245.736,22.241 244.729,23.273C243.722,24.305 242.59,25.865 241.507,25.815C240.425,25.765 238.971,24.419 240.355,21.323C239.44,22.806 237.251,25.544 236.07,25.966C234.66,26.469 233.478,26.318 232.219,25.412C230.96,24.507 228.343,22.494 230.029,17.963ZM247.372,16.629C246.919,15.723 247.196,13.961 248.178,13.558C249.159,13.156 249.084,14.036 248.731,14.766C248.378,15.496 247.951,16.151 247.372,16.629ZM251.273,22.695C250.971,23.173 248.957,25.69 248.152,25.841C247.346,25.992 246.667,25.262 246.466,24.96C246.264,24.658 246.617,24.507 246.843,24.607C246.919,22.065 246.818,21.687 246.516,20.252C246.214,18.817 245.484,17.031 245.862,15.646C246.239,14.262 247.12,12.575 248.807,11.795C250.494,11.015 250.519,12.953 250.166,13.859C249.813,14.765 248.379,16.376 247.548,17.031C248.076,18.163 248.454,18.944 248.379,20.454C248.303,21.964 248.052,23.676 248.48,24.079C248.908,24.482 249.739,24.054 250.922,22.392C251.038,22.259 251.528,22.291 251.273,22.695ZM226.002,13.457C226.354,12.979 227.613,13.105 227.235,14.011C226.858,14.917 225.322,15.672 224.869,15.798C224.416,15.924 224.643,15.445 225.171,14.766C225.7,14.087 225.65,13.936 226.002,13.457ZM217.394,18.617C216.563,17.459 216.085,16.276 217.344,14.136C218.602,11.997 219.609,12.249 219.458,13.532C219.229,15.48 218.571,17.048 217.394,18.617ZM208.962,24.004C209.597,23.699 210.155,23.574 210.969,23.136C211.769,22.706 212.753,22.063 213.115,21.814C213.845,21.311 214.323,22.091 213.92,22.368C213.517,22.645 212.586,23.048 212.158,23.778C211.73,24.508 211.554,25.061 211.931,24.986C212.308,24.91 215.606,22.469 217.066,19.171C216.437,18.441 215.606,18.039 215.354,17.309C215.102,16.579 215.128,15.018 216.034,13.609C216.94,12.2 218.022,11.142 218.903,11.646C219.784,12.149 220.136,12.779 220.061,13.484C219.986,14.189 219.457,16.127 218.727,17.511C217.997,18.895 215.707,22.469 214.146,23.929C212.585,25.389 211.931,25.993 211.201,25.716C210.471,25.439 210.572,24.382 211.226,23.627C210.674,23.676 207.704,24.608 208.962,24.004ZM194.816,21.99C194.589,20.882 194.766,20.203 193.834,20.077C192.903,19.951 191.921,20.908 191.418,21.537C190.915,22.166 190.034,24.054 190.915,24.784C191.49,25.261 192.21,25.096 192.476,24.986C192.778,24.859 194.212,23.072 194.816,21.99ZM196.575,21.056C196.451,19.912 195.705,18.943 195.034,18.719C194.362,18.495 194.039,19.117 193.443,19.316C192.847,19.515 191.33,19.689 190.087,21.23C188.844,22.771 188.372,23.319 188.521,24.338C188.67,25.357 189.714,25.954 190.858,26.103C191.47,26.183 192.078,25.812 192.699,25.603C193.238,25.422 193.881,25.174 194.164,25.183C194.661,25.829 195.805,26.451 196.824,26.003C197.386,25.756 197.147,25.506 197.147,25.506C197.147,25.506 196.774,25.332 196.575,24.934C196.377,24.536 196.6,23.592 196.6,23.592C196.6,23.592 197.57,22.051 197.843,21.454C197.518,20.985 197.207,20.885 196.575,21.056ZM188.222,18.396C188.584,18.999 187.973,23.667 187.153,26.551C186.333,29.435 184.244,34.134 180.515,35.153C176.786,36.172 177.408,32.965 178.601,31.498C179.794,30.031 183.349,27.968 184.841,27.247C185.736,25.258 186.581,21.38 186.209,18.62C184.767,19.44 183.077,21.728 183.002,23.07C182.927,24.412 183.276,24.835 184.021,25.282C184.767,25.729 184.046,26.053 183.449,26.078C182.354,26.124 181.411,26.223 180.988,24.71C180.466,22.845 181.336,21.329 182.554,20.061C183.772,18.793 185.462,18.395 185.985,18.271C186.507,18.147 186.656,18.445 187.004,18.445C187.352,18.446 187.998,18.023 188.222,18.396ZM176.14,18.943C176.538,18.719 177.681,18.421 178.353,18.47C179.024,18.52 179.372,18.769 179.347,19.241C179.322,19.714 179.073,19.739 178.8,20.385C178.526,21.032 177.781,22.424 177.557,23.07C177.333,23.716 176.712,24.04 176.985,24.586C177.259,25.133 177.855,25.033 177.756,25.307C177.657,25.581 177.135,26.127 176.463,26.028C175.792,25.929 174.872,25.332 174.996,24.66C175.12,23.988 175.891,22.224 176.413,21.279C176.935,20.334 177.333,19.912 177.358,19.489C177.383,19.068 175.742,19.167 176.14,18.943ZM171.416,18.471C171.629,18.228 172.435,17.949 173.107,17.999C173.778,18.049 173.853,18.397 174.226,18.422C174.599,18.447 174.823,18.472 175.146,18.621C175.469,18.77 175.494,19.267 175.121,19.789C174.748,20.311 174.077,21.703 173.605,22.648C173.132,23.593 172.71,24.587 172.337,25.085C171.964,25.582 170.721,26.129 170.348,25.93C169.975,25.731 170.497,24.935 170.821,24.364C171.144,23.792 172.138,21.729 172.561,20.908C172.984,20.088 173.207,19.591 173.332,19.392C173.456,19.193 173.332,19.143 172.785,19.019C172.237,18.894 171.243,18.67 171.416,18.471ZM165.226,17.824C165.418,17.369 166.171,17.302 166.668,17.675C167.165,18.048 167.563,17.973 167.96,17.998C168.358,18.023 168.681,18.321 168.482,18.744C168.283,19.166 167.065,21.553 166.692,22.299C166.319,23.045 165.375,24.188 165.921,24.387C166.468,24.586 167.438,24.163 167.885,23.815C168.332,23.467 168.457,23.939 167.835,24.387C167.214,24.834 166.07,25.68 165.126,25.581C164.181,25.481 163.784,25.332 164.032,24.288C164.281,23.244 164.778,22.423 165.325,21.255C165.872,20.086 166.443,19.142 166.593,18.918C166.742,18.695 166.319,18.794 165.897,18.595C165.475,18.396 165.027,18.297 165.226,17.824ZM160.205,17.8C160.704,17.683 162.94,17.75 163.312,17.75C163.684,17.75 163.526,18.412 163.188,18.968C162.84,19.54 161.497,22.523 161.174,23.293C160.851,24.064 160.304,24.81 160.95,24.785C161.596,24.76 162.367,24.487 162.765,24.288C161.571,25.332 160.701,25.655 159.98,25.73C159.259,25.805 158.315,25.606 158.862,24.189C159.409,22.772 160.577,20.46 161.05,19.639C161.522,18.819 161.845,18.396 161.398,18.297C160.95,18.198 159.459,17.974 160.205,17.8ZM161.149,7.905C162.094,7.905 162.442,8.054 161.945,8.527C161.736,8.725 161.263,9.299 160.821,10.19C160.213,11.417 159.53,13.248 158.464,15.538C156.624,19.491 155.73,21.48 155.232,22.897C154.734,24.314 154.337,24.985 154.933,24.985C155.53,24.985 156.425,24.612 156.425,24.612C156.425,24.612 156.599,24.96 155.903,25.333C155.207,25.706 154.66,25.83 153.964,25.78C153.268,25.73 152.522,25.68 153.169,23.492C153.815,21.304 155.158,18.818 155.879,17.053C156.6,15.288 158.912,10.415 159.31,9.645C159.708,8.874 159.906,8.526 159.186,8.377C158.465,8.228 158.067,8.278 157.794,8.228C157.52,8.178 157.868,7.756 158.043,7.632C158.217,7.508 158.291,7.682 158.863,7.856C159.434,8.029 160.205,7.905 161.149,7.905ZM146.855,18.52C146.855,18.52 144.99,19.092 143.847,20.981C142.703,22.871 142.604,23.939 143.275,24.661C143.946,25.382 144.791,25.133 145.662,24.263C146.532,23.393 147.104,22.399 147.253,21.976C147.402,21.554 147.526,19.739 146.855,18.52ZM148.645,17.8C146.905,17.75 145.115,18.396 143.474,19.913C141.833,21.429 140.665,22.871 141.112,24.512C141.451,25.755 142.364,25.743 143.15,25.743C144.045,25.743 145.611,25.183 146.63,24.413C146.904,25.233 146.904,25.694 147.799,25.694C148.694,25.694 149.291,25.259 150.136,24.736C150.136,24.736 149.191,25.159 148.694,24.811C148.197,24.463 148.619,23.319 148.619,23.319L149.166,22.374L148.718,21.827C148.72,21.827 149.217,19.54 148.645,17.8ZM142.462,17.455C141.062,17.477 140.027,18.181 140.051,18.753C140.076,19.349 140.548,19.656 141.17,19.656C141.791,19.656 142.204,19.527 142.288,19.023C142.369,18.536 142.178,17.928 142.192,17.814C142.205,17.7 142.418,17.746 142.462,17.455ZM122.443,20.51C122.809,20.066 123.738,19.739 123.827,19.29C123.89,18.975 123.503,18.592 122.89,18.72C121.175,19.391 120.727,20.56 120.329,21.753C119.931,22.947 119.683,25.035 121.671,25.035C122.415,25.035 122.815,24.553 123.192,24.322C123.824,23.934 124.166,23.757 124.306,24.115C124.101,24.358 123.458,24.735 122.767,25.188C122.113,25.616 121.432,26.129 120.503,26.129C118.613,26.129 117.668,24.239 118.386,21.846C117.81,21.987 117.044,22.158 116.628,22.188C113.884,24.916 110.249,26.576 107.575,26.576C103.15,26.576 100.788,23.469 100.54,21.107C100.291,18.745 101.062,16.284 102.429,14.643C103.796,13.002 106.407,11.56 108.868,11.56C111.329,11.56 113.417,13.449 113.069,16.358C112.721,19.267 109.091,20.535 109.091,20.535C109.091,20.535 109.041,20.087 109.066,19.74C111.254,18.124 110.956,16.881 110.956,16.309C110.956,15.737 110.608,12.853 107.078,12.853C103.548,12.853 101.559,16.508 101.783,19.864C102.102,24.658 106.825,25.612 111.08,24.787C113.516,24.314 115.654,22.351 116.872,20.461C118.09,18.572 118.251,15.783 118.115,14.221C117.966,12.506 116.747,10.592 115.878,9.149C115.008,7.707 114.337,6.961 114.113,5.37C113.89,3.779 115.058,2.436 115.679,1.864C116.3,1.292 117.27,1.044 117.767,1.218C118.264,1.392 118.836,1.492 119.358,3.133C118.544,3.797 118.027,4.174 117.518,4.302C117.468,3.307 116.747,2.412 116.325,2.313C115.952,2.313 115.653,2.91 115.653,4.203C115.653,5.496 117.816,7.882 118.661,9.101C119.506,10.319 120.327,11.786 120.327,13.874C120.327,15.962 119.979,18.274 117.618,21.108C117.463,21.294 117.303,21.476 117.14,21.655C117.577,21.61 118.243,21.386 119.056,20.616C119.636,19.885 120.465,19.223 121.2,18.766C122.43,18.001 123.428,17.766 123.808,17.753C124.54,17.727 125.612,17.836 125.524,18.921C125.426,20.136 123.114,20.609 122.443,20.51ZM133.829,25.64C134.725,23.083 137.245,19.686 137.418,19.027C136.469,19.04 136.413,18.984 136.413,18.984C136.413,18.984 136.684,18.407 137.224,18.307C137.763,18.206 138.115,18.134 138.515,18.072C138.916,18.01 138.98,18.227 138.759,18.776C138.528,19.35 137.793,21.102 136.968,22.457C136.061,23.947 135.774,24.608 135.607,25.009C135.436,25.42 135.199,25.474 133.829,25.64ZM133.953,18.023C132.437,18.048 131.318,18.819 131.343,19.416C131.368,20.012 131.84,20.311 132.461,20.311C133.083,20.311 133.505,20.187 133.63,19.69C133.754,19.193 133.605,18.546 133.63,18.422C133.654,18.297 133.878,18.346 133.953,18.023ZM125.973,26.203C126.47,24.065 128.807,20.062 128.956,19.292C127.788,19.292 127.216,19.242 127.216,19.242C127.216,19.242 127.191,18.77 127.862,18.646C128.533,18.521 129.901,18.347 130.398,18.273C130.895,18.199 130.969,18.497 130.696,19.218C130.422,19.939 129.627,21.952 128.806,23.345C127.986,24.737 127.762,25.309 127.638,25.645C127.514,25.979 127.29,26.029 125.973,26.203Z"/>
    </g>
</svg>
