<svg class="svg-logo" version="1.0" id="Layer_1" xmlns="http://www.w3.org/2000/svg" xmlns:xlink="http://www.w3.org/1999/xlink" x="0px" y="0px" viewBox="0 0 168.1 84" enable-background="new 0 0 168.1 84" xml:space="preserve"> <g> <path id="s" class="animate-letter" d="M4.7,10.3c0-2.4,1.2-5,3.6-5c2.2,0,3.3,1.5,4.5,6.3l4.3-1.3c-1.3-5.5-3.4-9.1-8.7-9.1c-5.1,0-8,4.3-8,9.5 c0,5.7,1.4,9.2,6.3,14.7c4.3,4.8,6.3,9.5,6.3,13.8c0,3.2-1.5,5.5-4.2,5.5c-2,0-3.6-1.7-4.5-7.8l-4.3,1c0.9,6.9,3.5,10.9,8.8,10.9 c5.3,0,8.6-4.1,8.6-10.1c0-6.1-2.3-11.3-7.3-16.8C5.7,16.8,4.7,14,4.7,10.3z"></path> <path id="c" class="animate-letter" d="M30.8,44.7c-3.3,0-4.4-5.6-4.4-13.8c0-9.9,1.6-14.2,4.2-14.2c2.1,0,2.8,2.3,3.7,5.5l3.6-1.8 c-1.1-4.3-3-7.7-7.2-7.7c-5.5,0-8.5,6.4-8.5,18.2c0,11.2,2.9,17.8,8.4,17.8c3.6,0,5.8-2.8,7.4-7.3l-3.3-2 C33.3,43.2,32.5,44.7,30.8,44.7z"></path> <path id="a1" class="animate-letter" d="M50.6,12.7c-2.6,0-5.1,1.5-7.6,3.9l2.4,3.1c2-2,3.4-3,4.9-3c2.2,0,3.4,1.4,3.4,4.6V27 c-1.1-0.8-2.4-1.3-4-1.3c-5,0-7.6,3.6-7.6,11.5c0,7.4,2.1,11.5,6.6,11.5c2,0,3.6-1,5.1-2.4V48h4.1V21 C57.8,14.4,55.1,12.7,50.6,12.7z M53.7,42.7c-1.3,1.3-3,2.1-4.3,2.1c-2.5,0-3.2-3.6-3.2-7.8c0-4.6,0.7-7.4,3.6-7.4 c2,0,2.7,0.5,3.9,1.2V42.7z"></path> <path id="r" class="animate-letter" d="M68.5,15.1v-1.7h-4.1V48h4.1V18.7c0.9-1.1,2.2-1.8,3.7-1.8c1.3,0,2,0.2,3.2,0.8l1.3-4.3 c-0.9-0.4-1.6-0.7-3.2-0.7C71.4,12.7,69.8,13.8,68.5,15.1z"></path> <path id="p" class="animate-letter" d="M97.1,30.6c0-11-1.6-17.9-7.4-17.9c-1.9,0-3.7,1.1-4.9,2.5v-1.8h-4.1V84l4.1-2.5V46.5 c1.3,1.2,2.8,2.2,4.7,2.2C95.1,48.7,97.1,42.1,97.1,30.6z M89.1,44.8c-1.6,0-2.9-0.7-4.4-2.1V18.6c1.3-1.2,2.7-2,4.1-2 c3,0,4.1,4.3,4.1,14.1C92.9,38.8,92.2,44.8,89.1,44.8z"></path> <path id="e" class="animate-letter" d="M110.4,12.7c-5.4,0-8.4,6.4-8.4,18.2c0,11.2,2.6,17.8,8.3,17.8c3.9,0,6-2.8,7.8-6.3l-2.8-2.2 c-1.8,3.1-2.8,4.5-4.9,4.5c-3,0-4.2-5-4.3-12.6h12.4v-0.9C118.4,19.1,115.6,12.7,110.4,12.7z M106,28.2c0.3-8,2-11.5,4.2-11.5 c2.6,0,3.9,4.9,4.1,11.5H106z"></path> <path id="t1" class="animate-letter" d="M128.8,41.7V17.2h4.9v-3.8h-4.9V0l-3.9,2.5v10.9H122v3.8h2.9v24.7c0,4.2,1.3,6.8,5,6.8 c1.5,0,2.8-0.3,3.9-0.9l0.5-4c-1.4,0.7-2.4,0.9-3.6,0.9C129.6,44.8,128.8,43.7,128.8,41.7z"></path> <path id="t2" class="animate-letter" d="M143.5,41.7V17.2h4.9v-3.8h-4.9V0l-3.9,2.5v10.9h-2.9v3.8h2.9v24.7c0,4.2,1.2,6.8,5,6.8 c1.5,0,2.8-0.3,3.9-0.9l0.5-4c-1.4,0.7-2.4,0.9-3.6,0.9C144.3,44.8,143.5,43.7,143.5,41.7z"></path> <path id="a2" class="animate-letter" d="M160.9,12.7c-2.6,0-5.1,1.5-7.6,3.9l2.4,3.1c2-2,3.4-3,4.9-3c2.2,0,3.4,1.4,3.4,4.6V27 c-1.1-0.8-2.4-1.3-4-1.3c-5,0-7.6,3.6-7.6,11.5c0,7.4,2.1,11.5,6.6,11.5c2,0,3.6-1,5.1-2.4V48h4.1V21 C168.1,14.4,165.4,12.7,160.9,12.7z M164,42.7c-1.3,1.3-3,2.1-4.3,2.1c-2.5,0-3.2-3.6-3.2-7.8c0-4.6,0.7-7.4,3.6-7.4 c2,0,2.7,0.5,3.9,1.2V42.7z"></path> </g> </svg>