<svg version="1.1" id="Isolation_Mode" xmlns="http://www.w3.org/2000/svg" xmlns:xlink="http://www.w3.org/1999/xlink" x="0px" y="0px" viewBox="0 0 260.1 41.2" style="enable-background:new 0 0 260.1 41.2;" xml:space="preserve">
<style type="text/css">
	.st0{fill:#BF9B5F;}
	.st1{fill:#ECC173;}
	.st2{fill:#D2D0CD;}
</style>
<g>
	<g>
		<path class="st0" d="M191.1,15.1c-0.6-0.3-1.5-0.4-2.4-0.4h-1.2v12.4c0,0.9,0.1,1.5,0.4,2c0.1,0,0.3,0,0.5,0
			c-0.1-0.4-0.1-0.8-0.1-1.3V15.4h1.2c0.8,0,1.5,0.1,2.1,0.3C191.4,15.5,191.3,15.2,191.1,15.1z"/>
		<path class="st0" d="M193.6,13.8c0,0.1-0.1,0.2-0.3,0.3v3.1c0.1,0.3,0.2,0.6,0.3,0.9h0.5v-4.3H193.6z"/>
		<path class="st0" d="M185.6,30.3l-2.1,0c-0.3,0.2-0.7,0.3-1.2,0.3v0.5l4-0.1l4,0.1v-0.5c-0.5,0-0.9-0.1-1.2-0.3L185.6,30.3z"/>
		<path class="st0" d="M182.6,14.7L182.6,14.7c-1.4,0-2.4,0.2-3.1,0.7c-0.4,0.3-0.7,0.6-0.9,1.1v1.7h0.5c0.1-0.9,0.5-1.6,1.2-2.1
			c0.6-0.4,1.4-0.6,2.3-0.6V14.7z"/>
	</g>
	<g>
		<path class="st0" d="M32.5,28.6c-0.8-1.3-1.3-3.3-1.3-5.9c0-2.6,0.4-4.5,1.3-5.9c0.8-1.4,2.1-2,3.7-2c0.6,0,1.2,0.1,1.7,0.3
			c-0.2-0.2-0.3-0.4-0.5-0.6c-0.6-0.3-1.2-0.4-1.9-0.4c-1.6,0-2.8,0.7-3.7,2c-0.9,1.4-1.3,3.3-1.3,5.9c0,2.6,0.4,4.5,1.3,5.9
			c0.2,0.3,0.4,0.5,0.6,0.8c0.1,0,0.1,0.1,0.2,0.1C32.6,28.7,32.6,28.6,32.5,28.6z"/>
		<path class="st0" d="M42.8,16.3c-0.1-0.1-0.3-0.2-0.4-0.4c1.4,1.6,2.2,3.6,2.2,6c0,2.6-0.8,4.8-2.5,6.4c-1.6,1.6-3.9,2.4-6.5,2.4
			c-2.4,0-4.5-0.7-6-2c0,0,0,0,0,0c0.1,0.1,0.2,0.2,0.3,0.3c1.6,1.6,3.8,2.4,6.5,2.4c2.7,0,4.9-0.8,6.5-2.4c1.6-1.6,2.5-3.7,2.5-6.4
			C45.3,20.1,44.4,17.9,42.8,16.3z"/>
	</g>
	<g>
		<path class="st0" d="M49.7,17.5v9.6c0,0.9,0.1,1.5,0.4,2c0.1,0,0.3,0,0.5,0c-0.1-0.4-0.1-0.8-0.1-1.3v-9.6L49.7,17.5z"/>
		<path class="st0" d="M49.2,30.3l-0.7,0c-0.3,0.2-0.7,0.3-1.3,0.3v0.5l2.7-0.1l2.7,0.1v-0.5c-0.5,0-0.9-0.1-1.2-0.3L49.2,30.3z"/>
		<path class="st0" d="M63.6,14.4c-0.2,0.1-0.3,0.2-0.4,0.4c-0.3,0.4-0.5,1.2-0.5,2.2v13.7h-0.4l0.7,0.7h0.5V17.6
			c0-1,0.2-1.7,0.5-2.2c0.3-0.4,0.9-0.7,1.7-0.7v-0.5L63.6,14.4z"/>
		<polygon class="st0" points="60.5,23.3 60.5,22.8 52.4,14 51.9,14 		"/>
	</g>
	<g>
		<path class="st0" d="M83,16.3c-0.1-0.1-0.3-0.2-0.4-0.4c1.4,1.6,2.2,3.6,2.2,6c0,2.6-0.8,4.8-2.5,6.4c-1.6,1.6-3.9,2.4-6.5,2.4
			c-2.4,0-4.5-0.7-6-2c0,0,0,0,0,0c0.1,0.1,0.2,0.2,0.3,0.3c1.6,1.6,3.8,2.4,6.5,2.4c2.7,0,4.9-0.8,6.5-2.4c1.6-1.6,2.5-3.7,2.5-6.4
			C85.5,20.1,84.6,17.9,83,16.3z"/>
		<path class="st0" d="M72.7,28.6c-0.8-1.3-1.3-3.3-1.3-5.9c0-2.6,0.4-4.5,1.3-5.9c0.8-1.4,2.1-2,3.7-2c0.6,0,1.2,0.1,1.7,0.3
			c-0.2-0.2-0.3-0.4-0.5-0.6c-0.6-0.3-1.2-0.4-1.9-0.4c-1.6,0-2.8,0.7-3.7,2c-0.9,1.4-1.3,3.3-1.3,5.9c0,2.6,0.4,4.5,1.3,5.9
			c0.2,0.3,0.4,0.5,0.6,0.8c0.1,0,0.1,0.1,0.2,0.1C72.8,28.7,72.8,28.6,72.7,28.6z"/>
	</g>
	<g>
		<polygon class="st0" points="118.2,19.1 117.7,17.8 116.1,22 117.1,22 		"/>
		<path class="st0" d="M90.8,29.1c-0.1-0.2-0.1-0.5-0.1-0.8c0-0.1,0-0.3,0-0.5c0-0.2,0-0.4,0.1-0.5l1.4-8c-0.2-0.4-0.4-0.9-0.6-1.5
			l-1.5,8.8c0,0.1,0,0.3-0.1,0.5c0,0.2,0,0.4,0,0.5c0,0.6,0.2,1.1,0.4,1.5C90.5,29.1,90.7,29.1,90.8,29.1z"/>
		<path class="st0" d="M127.5,29.4L127.5,29.4C127.6,29.5,127.6,29.5,127.5,29.4C127.6,29.5,127.6,29.5,127.5,29.4z"/>
		<path class="st0" d="M114.9,30.4c-0.6,0-1.2-0.1-1.7-0.1c-0.3,0-0.6,0-0.9,0c-0.1,0-0.3,0-0.4,0c-0.1,0-0.2,0.2-0.3,0.2
			c-0.1,0-0.3-0.1-0.4-0.1c-0.1,0-0.2,0-0.3,0c-1.1,0-2.2,0-3.4-0.1c-0.1,0-0.2,0-0.4,0l-2.4,0.1c-0.3,0.2-0.6,0.3-0.9,0.3v0.5
			l4.1-0.1c1,0,2.6,0.1,3.6,0.1c0.8,0,1,0,1.8-0.1l2.3,0.1v-0.5C115.3,30.6,115.1,30.5,114.9,30.4L114.9,30.4z"/>
		<path class="st0" d="M115.1,24.7l-0.9,2.5c-0.1,0.3-0.3,0.6-0.3,0.9c-0.1,0.3-0.1,0.6-0.1,0.8c0,0.4,0.3,0.7,0.8,0.9
			c0-0.1,0-0.1,0-0.2c0-0.2,0.1-0.5,0.1-0.8c0.1-0.3,0.2-0.6,0.3-0.9l0.9-2.5h4.8l-0.3-0.7H115.1z"/>
		<path class="st0" d="M128.6,30.4l-3.6-0.1l-2.2,0.1c-0.2,0.1-0.4,0.2-0.7,0.3v0.5l3.6-0.1l3.7,0.1v-0.5
			C129.1,30.6,128.9,30.5,128.6,30.4z"/>
		<path class="st0" d="M123.4,20.7l2.5,6.4c0.3,0.8,0.7,1.4,1.1,1.9c0.1,0,0.2,0,0.2,0.1c-0.2-0.4-0.4-0.8-0.6-1.3l-2.3-5.8h0
			l-3.2-8.1h-0.4L123.4,20.7L123.4,20.7z"/>
		<path class="st0" d="M108.5,26.7c0.1,1,0.4,1.7,0.9,2.3c0.1,0,0.1,0.1,0.2,0.1c0,0,0,0,0.1,0c-0.2-0.4-0.4-1-0.5-1.6l-1.4-9.6
			l-0.1-0.9c0-0.7,0.2-1.2,0.5-1.6c0.3-0.4,0.8-0.6,1.4-0.6v-0.5l-1.8,0.1c-0.1,0.1-0.2,0.2-0.3,0.3c-0.3,0.4-0.5,0.9-0.5,1.6
			l0.1,0.9L108.5,26.7z"/>
		<path class="st0" d="M98.3,22.6c-1.1-2.8-2.2-5.6-3.3-8.2l-0.4,0c1.2,2.8,2.3,5.8,3.4,8.8L98.3,22.6z"/>
		<path class="st0" d="M89,30.3l-1.1,0c-0.4,0.2-0.8,0.3-1.2,0.3v0.5l3.1-0.1l3,0.1v-0.5c-0.4,0-0.7-0.1-1-0.3L89,30.3z"/>
		<path class="st0" d="M97.8,30.4h-0.1c0.1,0.2,0.2,0.5,0.3,0.7h0.6l4.4-10.8l-0.3-1.8L97.8,30.4z"/>
	</g>
	<g>
		<path class="st0" d="M155.8,17.6c0.1,0.3,0.1,0.5,0.2,0.8h0.5v-6.9H156c0,0.2-0.1,0.4-0.2,0.5V17.6z"/>
		<path class="st0" d="M145.2,27.2c-1.3-1.6-2-3.8-2-6.5c0-2.5,0.6-4.5,1.8-6.1c1.2-1.6,2.7-2.3,4.4-2.3c1,0,2,0.3,2.9,0.8
			c-0.2-0.2-0.3-0.4-0.5-0.6c-0.1,0-0.1-0.1-0.2-0.1c-0.9-0.5-1.9-0.8-2.9-0.8c-1.8,0-3.3,0.8-4.4,2.3c-1.2,1.6-1.8,3.6-1.8,6.1
			c0,2.8,0.7,5,2,6.5c0.3,0.3,0.5,0.6,0.8,0.8c0,0,0,0,0.1,0C145.3,27.3,145.3,27.3,145.2,27.2z"/>
		<path class="st0" d="M156.5,27c-0.7,0.7-1.5,1.3-2.3,1.7c-1.8,1.4-3.9,2.2-6.3,2.2c-2.3,0-4.2-0.5-5.7-1.6
			c-0.2-0.1-0.3-0.3-0.5-0.4c-0.1,0-0.1-0.1-0.2-0.1c0.4,0.4,0.9,0.8,1.4,1.2c1.5,1.1,3.4,1.6,5.7,1.6c3.3,0,6.1-1.4,8.3-4.1
			L156.5,27z"/>
	</g>
	<g>
		<path class="st0" d="M175.4,14.7c-0.3,0.4-0.5,1.2-0.5,2.2v10.2c0,0.9,0.1,1.5,0.4,2c0.1,0,0.3,0,0.5,0c-0.1-0.4-0.1-0.8-0.1-1.3
			V17.6c0-1,0.2-1.7,0.5-2.2c0.2-0.2,0.4-0.4,0.6-0.5v-0.6l-0.9,0C175.7,14.5,175.5,14.6,175.4,14.7z"/>
		<path class="st0" d="M174.2,30.3l-2.3,0.1v0.7l3-0.1l2.9,0.1v-0.5c-0.5,0-0.9-0.1-1.2-0.3L174.2,30.3z"/>
		<path class="st0" d="M171.2,29.6l-1.1,0v-0.3c-0.2,0.1-0.4,0.2-0.5,0.3c-1.3,0.8-2.8,1.2-4.3,1.2c-1.5,0-2.6-0.3-3.5-1
			c0.9,1.1,2.3,1.7,4.2,1.7C167.8,31.5,169.6,30.9,171.2,29.6L171.2,29.6z"/>
		<path class="st0" d="M164,14.7c-0.3,0.4-0.5,1.2-0.5,2.2v8.4c0,1.4,0.2,2.4,0.7,3.1c0,0,0,0,0,0c0.1,0,0.3,0.1,0.4,0.1
			c-0.3-0.6-0.4-1.5-0.4-2.5v-8.4c0-1,0.2-1.7,0.5-2.2c0.3-0.4,0.9-0.7,1.7-0.7v-0.5l-2,0C164.3,14.5,164.1,14.6,164,14.7z"/>
	</g>
	<g>
		<path class="st0" d="M201.3,15.4h1.1c0.5,0,1,0.1,1.4,0.2c-0.1-0.2-0.2-0.4-0.4-0.6c-0.5-0.2-1.1-0.3-1.8-0.3h-1.1v5.8
			c0.3,0,0.5,0,0.7,0V15.4z"/>
		<path class="st0" d="M206.8,22.5c0.4,0.5,0.9,1,1.2,1.6c0.6,1,1.2,1.9,1.7,2.8c0.5,0.9,1,1.6,1.4,2.1c0.3,0.3,0.5,0.5,0.7,0.7
			c-0.4-0.5-0.9-1.2-1.4-2.1c-0.5-0.8-1.1-1.8-1.7-2.8C208.2,23.9,207.5,23.1,206.8,22.5z"/>
		<path class="st0" d="M202.3,22.5c-0.3-0.1-0.6-0.2-0.9-0.2h-0.8v4.8c0,0.9,0.1,1.5,0.4,2c0.1,0,0.3,0,0.5,0
			c-0.1-0.4-0.1-0.8-0.1-1.3V23h0.8c0.2,0,0.5,0,0.7,0.1C202.6,22.9,202.4,22.7,202.3,22.5z"/>
		<path class="st0" d="M198.7,30.3l-2.1,0c-0.3,0.2-0.7,0.3-1.2,0.3v0.5l4-0.1l4,0.1v-0.5c-0.5,0-0.9-0.1-1.2-0.3L198.7,30.3z"/>
		<path class="st0" d="M212.3,30.2v0.2H208c0.2,0.3,0.4,0.5,0.6,0.7h4.4v-0.5C212.8,30.6,212.6,30.4,212.3,30.2z"/>
		<path class="st0" d="M209.3,17.8c0,2-1.2,3.3-3.4,3.9c0.3,0.2,0.5,0.4,0.7,0.7c2.3-0.5,3.4-1.8,3.4-3.8c0-1.2-0.5-2.2-1.4-3
			c0,0-0.1-0.1-0.1-0.1C209,16.1,209.3,16.9,209.3,17.8z"/>
	</g>
	<g>
		<path class="st0" d="M219.5,20.6v-5.2h3c0.4,0,0.8,0.1,1.1,0.1c-0.1-0.2-0.2-0.4-0.4-0.6c-0.4-0.2-0.9-0.3-1.5-0.3h-3v5.9H219.5z"
			/>
		<path class="st0" d="M225.2,20.1h-0.5c0,0.4-0.1,0.7-0.3,1v3.4c0.1,0.2,0.2,0.4,0.3,0.7h0.5V20.1z"/>
		<path class="st0" d="M226.2,14.3l-0.7,0v2.8c0.1,0.3,0.2,0.5,0.3,0.8h0.5V14.3z"/>
		<path class="st0" d="M226.3,27c-0.1,0.3-0.3,0.6-0.4,0.9l-0.2,2.5l-6.2-0.1l-4.7,0c-0.3,0.2-0.7,0.3-1.2,0.3v0.5l6.7-0.1l6.2,0.1
			l0.4-4L226.3,27z"/>
		<path class="st0" d="M219.5,27.8v-4.6h2.6c0.3,0,0.5,0,0.7,0.1c-0.1-0.2-0.2-0.4-0.3-0.6c-0.3-0.1-0.7-0.2-1.1-0.2h-2.6V27
			c0,0.6,0.1,1,0.3,1.4c0.2,0,0.3,0.1,0.5,0.1C219.5,28.3,219.5,28,219.5,27.8z"/>
	</g>
	<g>
		<path class="st0" d="M235,15.4h1.1c0.5,0,1,0.1,1.4,0.2c-0.1-0.2-0.2-0.4-0.4-0.6c-0.5-0.2-1.1-0.3-1.8-0.3h-1.1v5.8
			c0.3,0,0.5,0,0.7,0V15.4z"/>
		<path class="st0" d="M240.4,22.5c0.4,0.5,0.9,1,1.2,1.6c0.6,1,1.2,1.9,1.7,2.8c0.5,0.9,1,1.6,1.4,2.1c0.3,0.3,0.5,0.5,0.7,0.7
			c-0.4-0.5-0.9-1.2-1.4-2.1c-0.5-0.8-1.1-1.8-1.7-2.8C241.8,23.9,241.2,23.1,240.4,22.5z"/>
		<path class="st0" d="M246,30.2v0.2h-4.3c0.2,0.3,0.4,0.5,0.6,0.7h4.4v-0.5C246.5,30.6,246.3,30.4,246,30.2z"/>
		<path class="st0" d="M232.4,30.3l-2.1,0c-0.3,0.2-0.7,0.3-1.2,0.3v0.5l4-0.1l4,0.1v-0.5c-0.5,0-0.9-0.1-1.2-0.3L232.4,30.3z"/>
		<path class="st0" d="M243,17.8c0,2-1.2,3.3-3.4,3.9c0.3,0.2,0.5,0.4,0.7,0.7c2.3-0.5,3.4-1.8,3.4-3.8c0-1.2-0.5-2.2-1.4-3
			c0,0-0.1-0.1-0.1-0.1C242.7,16.1,243,16.9,243,17.8z"/>
		<path class="st0" d="M235.9,22.5c-0.3-0.1-0.6-0.2-0.9-0.2h-0.8v4.8c0,0.9,0.1,1.5,0.4,2c0.1,0,0.3,0,0.5,0
			c-0.1-0.4-0.1-0.8-0.1-1.3V23h0.8c0.2,0,0.5,0,0.7,0.1C236.3,22.9,236.1,22.7,235.9,22.5z"/>
	</g>
	<g>
		<polygon class="st0" points="127.9,21.1 128,21.5 134.5,20.3 134.3,19.4 134.2,19.5 134.2,20 		"/>
		<polygon class="st0" points="134.7,22.5 134.5,21.6 134.4,21.6 134.5,22.1 128.1,23.2 128.2,23.6 		"/>
	</g>
	<g>
		<path class="st0" d="M14.7,12.3c0.6-0.5,1.3-0.7,2.3-0.7c0.3,0,0.7,0,1,0.1c-0.3-0.1-0.7-0.1-1-0.1C16,11.5,15.2,11.8,14.7,12.3
			c-0.6,0.5-0.9,1.1-0.9,1.9c0,0,0,0,0,0c0,0,0,0,0,0C13.8,13.4,14.1,12.8,14.7,12.3z"/>
		<path class="st0" d="M12.7,27.9c-0.1-0.1-0.1-0.2-0.2-0.3C12.6,27.7,12.6,27.8,12.7,27.9z"/>
		<path class="st0" d="M18.1,11.7c0.3,0.1,0.6,0.2,0.9,0.4C18.7,11.9,18.4,11.8,18.1,11.7z"/>
		<path class="st0" d="M15.1,16.6c-0.1-0.1-0.2-0.2-0.3-0.3C14.9,16.4,15,16.5,15.1,16.6z"/>
		<path class="st0" d="M14,15.1c0-0.1-0.1-0.2-0.1-0.3C14,15,14,15,14,15.1z"/>
		<path class="st0" d="M14.5,15.9c-0.1-0.1-0.2-0.2-0.2-0.3C14.3,15.7,14.4,15.8,14.5,15.9z"/>
		<path class="st0" d="M12.3,27.2c-0.1-0.1-0.1-0.2-0.2-0.4C12.1,26.9,12.2,27,12.3,27.2z"/>
		<path class="st0" d="M11.9,26.4c0-0.1-0.1-0.3-0.1-0.4C11.8,26.1,11.9,26.2,11.9,26.4z"/>
		<path class="st0" d="M22.2,13l0,2.5h0c0.1,0.2,0.1,0.5,0.2,0.7H23l0-2.5l0-2.4h-0.6c0,0.1-0.1,0.1-0.2,0.2L22.2,13z"/>
		<path class="st0" d="M11.9,26.4c0.1,0.1,0.1,0.3,0.2,0.4c0.1,0.1,0.1,0.3,0.2,0.4c0.1,0.1,0.2,0.3,0.2,0.4
			c0.1,0.1,0.1,0.2,0.2,0.3c0.1,0.2,0.3,0.4,0.5,0.5c0.1,0,0.1,0.1,0.2,0.1c-0.5-0.7-0.9-1.7-1-2.8h-0.5l0,0.2c0,0,0,0,0,0
			C11.8,26.1,11.9,26.2,11.9,26.4z"/>
		<path class="st0" d="M18.1,11.7c0,0-0.1,0-0.1,0c-0.3-0.1-0.7-0.1-1-0.1c-1,0-1.7,0.2-2.3,0.7c-0.6,0.5-0.9,1.1-0.9,1.9
			c0,0,0,0,0,0c0,0.2,0,0.4,0.1,0.7C14,15,14,15,14,15.1c0.1,0.1,0.1,0.3,0.2,0.4c0.1,0.1,0.1,0.2,0.2,0.3c0.1,0.1,0.2,0.3,0.3,0.4
			c0.1,0.1,0.2,0.2,0.3,0.3c0,0,0.1,0.1,0.1,0.1c-0.5-0.6-0.7-1.2-0.7-1.8c0-0.8,0.3-1.4,0.9-1.9c0.6-0.5,1.3-0.7,2.3-0.7
			c0.7,0,1.3,0.2,1.9,0.5c-0.2-0.2-0.4-0.4-0.6-0.6c0,0,0,0,0,0C18.7,11.9,18.4,11.8,18.1,11.7z"/>
		<path class="st0" d="M23.1,22.5c-0.3-0.3-0.6-0.6-0.9-0.9c0.1,0.1,0.1,0.1,0.2,0.2c0.7,0.8,1.1,1.9,1.1,3.3c0,1.7-0.6,3-1.8,4.1
			c-1.2,1.1-2.8,1.6-4.8,1.6c-0.7,0-1.5-0.1-2.5-0.4c-0.9-0.2-1.5-0.4-1.7-0.4c-0.4,0-0.6,0.1-0.8,0.2l0,1h0.5
			c0.1-0.4,0.4-0.6,1-0.6c0.2,0,0.8,0.1,1.7,0.4c0.9,0.2,1.8,0.4,2.5,0.4c2,0,3.6-0.5,4.8-1.6c1.2-1.1,1.8-2.4,1.8-4.1
			C24.1,24.4,23.8,23.4,23.1,22.5z"/>
		<path class="st0" d="M12.5,27.5c-0.1-0.1-0.2-0.3-0.2-0.4C12.3,27.3,12.4,27.4,12.5,27.5z"/>
		<path class="st0" d="M12.1,26.8c-0.1-0.1-0.1-0.3-0.2-0.4C12,26.5,12,26.6,12.1,26.8z"/>
		<path class="st0" d="M13.2,28.4C13.2,28.4,13.2,28.4,13.2,28.4c-0.2-0.2-0.3-0.3-0.5-0.5C12.8,28.1,13,28.2,13.2,28.4z"/>
		<polygon class="st0" points="11.8,25.9 11.8,25.9 11.8,25.9 		"/>
		<path class="st0" d="M15.3,16.7C15.3,16.7,15.3,16.7,15.3,16.7C15.3,16.7,15.3,16.7,15.3,16.7c-0.1-0.1-0.1-0.1-0.2-0.2
			C15.2,16.6,15.2,16.7,15.3,16.7z"/>
		<path class="st0" d="M14.8,16.3c-0.1-0.1-0.2-0.3-0.3-0.4C14.6,16,14.7,16.1,14.8,16.3z"/>
		<path class="st0" d="M14.3,15.6c-0.1-0.1-0.2-0.3-0.2-0.4C14.1,15.3,14.2,15.4,14.3,15.6z"/>
		<path class="st0" d="M18,11.7c0,0,0.1,0,0.1,0C18.1,11.7,18,11.7,18,11.7z"/>
		<polygon class="st0" points="19,12 19,12 19,12 		"/>
		<path class="st0" d="M13.9,14.9c-0.1-0.2-0.1-0.4-0.1-0.7C13.8,14.4,13.9,14.7,13.9,14.9z"/>
	</g>
	<path class="st1" d="M127.6,29.5C127.6,29.5,127.6,29.5,127.6,29.5L127.6,29.5C127.6,29.5,127.6,29.5,127.6,29.5"/>
	<g>
		<g id="Logo_14_">
			<g>
				<path d="M126.7,19.9l0.2,0.9l6.5-1.2l-0.2-0.9L126.7,19.9z"/>
			</g>
			<g>
				<path d="M126.9,22l0.2,0.9l6.5-1.2l-0.2-0.9L126.9,22z"/>
			</g>
		</g>
	</g>
	<path d="M18.3,18.6c-1.2-0.8-2.4-1.5-3.6-2.3c-1.3-0.9-2-1.9-2-3c0-0.8,0.3-1.4,0.9-1.9c0.6-0.5,1.3-0.7,2.3-0.7
		c1.1,0,2.1,0.4,3,1.1c0.9,0.8,1.5,1.7,1.7,2.8h0.6l0-2.5l0-2.4h-0.6c-0.2,0.3-0.6,0.5-1,0.5c-0.3,0-0.9-0.1-1.7-0.3
		c-0.9-0.2-1.6-0.3-2.1-0.3c-1.6,0-2.9,0.5-4,1.6c-1.1,1-1.6,2.3-1.6,3.8c0,1.5,0.3,2.6,1,3.4c0.7,0.8,1.6,1.7,2.8,2.4
		c1.2,0.8,2.3,1.5,3.4,2.3c1.3,0.9,1.9,1.9,1.9,2.8c0,0.8-0.3,1.5-1,2.1c-0.7,0.6-1.5,0.8-2.5,0.8c-1.4,0-2.6-0.4-3.5-1.3
		c-0.9-0.8-1.5-2-1.7-3.5H9.9l0.1,2.8l-0.1,2.8h0.5c0.1-0.4,0.4-0.6,1-0.6c0.2,0,0.8,0.1,1.7,0.4c0.9,0.2,1.8,0.4,2.5,0.4
		c2,0,3.6-0.5,4.8-1.6c1.2-1.1,1.8-2.4,1.8-4.1c0-1.4-0.4-2.4-1.1-3.3C20.5,20.2,19.5,19.4,18.3,18.6z"/>
	<path d="M34.4,12.4c-2.7,0-4.9,0.8-6.5,2.4c-1.6,1.6-2.5,3.7-2.5,6.4c0,2.6,0.8,4.8,2.5,6.4c1.6,1.6,3.8,2.4,6.5,2.4
		c2.7,0,4.9-0.8,6.5-2.4c1.6-1.6,2.5-3.7,2.5-6.4c0-2.6-0.8-4.7-2.5-6.4C39.3,13.2,37.1,12.4,34.4,12.4z M38.1,27
		c-0.9,1.4-2.1,2-3.7,2c-1.6,0-2.9-0.7-3.7-2c-0.8-1.3-1.3-3.3-1.3-5.9c0-2.6,0.4-4.5,1.3-5.9c0.8-1.4,2.1-2,3.7-2s2.8,0.7,3.7,2
		c0.9,1.4,1.3,3.3,1.3,5.9S39,25.7,38.1,27z"/>
	<path d="M58.3,12.8v0.5c0.8,0,1.4,0.2,1.7,0.7c0.3,0.5,0.5,1.2,0.5,2.1V24L50.1,12.8l-2.5,0.1l-2.5-0.1v0.5c1,0.3,1.8,0.9,2.4,1.8
		v11.2c0,1-0.1,1.7-0.5,2.2c-0.3,0.4-0.9,0.7-1.7,0.7v0.5l2.7-0.1l2.7,0.1v-0.5c-0.8,0-1.4-0.2-1.7-0.7c-0.3-0.5-0.5-1.2-0.5-2.1
		V16.2l12.6,13.5h0.5V16.1c0-1,0.2-1.7,0.5-2.2c0.3-0.4,0.9-0.7,1.7-0.7v-0.5l-2.7,0.1L58.3,12.8z"/>
	<path d="M74.6,12.4c-2.7,0-4.9,0.8-6.5,2.4c-1.6,1.6-2.5,3.7-2.5,6.4c0,2.6,0.8,4.8,2.5,6.4c1.6,1.6,3.8,2.4,6.5,2.4
		c2.7,0,4.9-0.8,6.5-2.4c1.6-1.6,2.5-3.7,2.5-6.4c0-2.6-0.8-4.7-2.5-6.4C79.5,13.2,77.3,12.4,74.6,12.4z M78.3,27
		c-0.9,1.4-2.1,2-3.7,2c-1.6,0-2.9-0.7-3.7-2c-0.8-1.3-1.3-3.3-1.3-5.9c0-2.6,0.4-4.5,1.3-5.9c0.8-1.4,2.1-2,3.7-2
		c1.6,0,2.8,0.7,3.7,2c0.9,1.4,1.3,3.3,1.3,5.9S79.2,25.7,78.3,27z"/>
	<path d="M119.3,12.4h-2.2l-5.2,13.9c-0.6,1.5-1.3,2.4-2.3,2.7c-1.3-0.4-2-1.4-2.3-3.1l-1.4-9.6l-0.1-0.9c0-0.7,0.2-1.2,0.5-1.6
		c0.3-0.4,0.8-0.6,1.4-0.6v-0.5l-2.6,0.1l-2.8-0.1l-4.7,11.4c-1.4-4-2.9-7.8-4.4-11.4l-3,0.1l-2.9-0.1v0.5c1.1,0.2,1.9,0.6,2.4,1.3
		l-1.8,10.8c-0.4,2.5-1.4,3.7-3,3.7v0.5l3.1-0.1l3,0.1v-0.5c-0.7,0-1.2-0.2-1.6-0.7c-0.4-0.4-0.6-1-0.6-1.7c0-0.1,0-0.3,0-0.5
		c0-0.2,0-0.4,0.1-0.5l1.8-10.2c0.7,1.8,1.3,3.2,1.7,4.1c0.4,0.9,0.8,2.1,1.4,3.5c0.5,1.4,1.3,3.5,2.3,6.3h0.6l5.7-13.8l1.4,9.8
		l0.1,1.2c0,0.7-0.2,1.3-0.5,1.7c-0.3,0.5-0.8,0.7-1.4,0.7v0.5l4.1-0.1c0.8,0,1.5,0,2.3,0.1c0.5,0,0.8,0,1.3,0c0.5,0,1.3,0,1.8-0.1
		l2.3,0.1v-0.5c-0.8-0.2-1.2-0.5-1.2-1c0-0.2,0.1-0.5,0.1-0.8c0.1-0.3,0.2-0.6,0.3-0.9l0.9-2.5h6l0.9,2.5c0.3,0.8,0.5,1.4,0.5,1.8
		c0,0.5-0.4,0.9-1.2,1v0.5l3.6-0.1l3.7,0.1v-0.5c-1.1-0.1-2-1.1-2.7-2.8L119.3,12.4z M114.7,22l2.3-6.1l2.4,6.1H114.7z"/>
	<path d="M148.5,28.1c-2.2,0-3.9-0.8-5.2-2.4c-1.3-1.6-2-3.8-2-6.5c0-2.5,0.6-4.5,1.8-6.1c1.2-1.6,2.7-2.3,4.4-2.3
		c1.6,0,3,0.6,4.2,1.7c1.3,1.1,2,2.6,2.3,4.5h0.5V10h-0.5c-0.2,1.6-2.6,0.6-4.2,0.1c-1-0.3-2-0.4-2.9-0.4c-1.6,0-3.1,0.3-4.5,1
		c-1.4,0.7-2.5,1.6-3.3,2.7c-0.8,1.1-1.5,2.2-1.8,3.3c-0.4,1.1-0.6,2.2-0.6,3.5c0,1.7,0.3,3.2,1,4.5c0.7,1.4,1.7,2.6,3.2,3.7
		c1.5,1.1,3.4,1.6,5.7,1.6c3.3,0,6.1-1.4,8.3-4.1l-0.4-0.4C152.9,27.3,150.8,28.1,148.5,28.1z"/>
	<path d="M167.9,12.8v0.5c0.8,0,1.4,0.2,1.7,0.7c0.3,0.5,0.5,1.2,0.5,2.1v10.1c-1.4,1.6-3,2.4-4.6,2.4c-1.1,0-1.9-0.3-2.3-1
		s-0.7-1.7-0.7-3.1v-8.4c0-1,0.2-1.7,0.5-2.2c0.3-0.4,0.9-0.7,1.7-0.7v-0.5l-4,0.1l-4-0.1v0.5c0.8,0,1.4,0.2,1.7,0.7
		c0.3,0.5,0.5,1.2,0.5,2.1v8.2c0,3.8,1.8,5.7,5.4,5.7c2.3,0,4.3-0.8,6-2.5v2.1l3-0.1l2.9,0.1v-0.5c-0.8,0-1.4-0.2-1.7-0.7
		c-0.3-0.5-0.5-1.2-0.5-2.1V16.1c0-1,0.2-1.7,0.5-2.2c0.3-0.4,0.9-0.7,1.7-0.7v-0.5l-4,0.1L167.9,12.8z"/>
	<path d="M190.4,12.8h-11.9c-0.8,0-1.2-0.2-1.3-0.5h-0.5v4.3h0.5c0.1-0.9,0.5-1.6,1.2-2.1c0.7-0.4,1.7-0.7,3-0.7h1.2v12.4
		c0,1-0.1,1.7-0.5,2.2c-0.3,0.4-0.9,0.7-1.7,0.7v0.5l4-0.1l4,0.1v-0.5c-0.8,0-1.4-0.2-1.7-0.7c-0.3-0.5-0.5-1.2-0.5-2.1V13.9h1.2
		c2.6,0,4,0.9,4.2,2.7h0.5v-4.3h-0.5C191.7,12.7,191.2,12.8,190.4,12.8z"/>
	<path d="M210,28.2c-0.4-0.5-0.9-1.2-1.4-2.1c-0.5-0.8-1.1-1.8-1.7-2.8c-0.6-1-1.3-1.8-2.1-2.5c2.3-0.5,3.4-1.8,3.4-3.9
		c0-1.2-0.5-2.2-1.4-3c-0.9-0.8-2.2-1.1-3.7-1.1h-9.5v0.5c0.8,0,1.4,0.2,1.7,0.7c0.3,0.5,0.5,1.2,0.5,2.1v10.2c0,1-0.1,1.7-0.5,2.2
		c-0.3,0.4-0.9,0.7-1.7,0.7v0.5l4-0.1l4,0.1v-0.5c-0.8,0-1.4-0.2-1.7-0.7c-0.3-0.5-0.5-1.2-0.5-2.1v-4.8h0.8c1.1,0,2.1,0.8,3,2.3
		c0.9,1.6,1.6,2.8,2.1,3.7c0.5,0.9,1,1.6,1.5,2h4.4v-0.5C210.8,29,210.4,28.8,210,28.2z M203.2,19.7c-0.6,0.5-1.6,0.8-2.8,0.8h-0.9
		v-6.6h1.1c2.4,0,3.6,1.1,3.6,3.2C204.1,18.3,203.8,19.2,203.2,19.7z"/>
	<path d="M222.8,27.9c-0.6,0.4-1.5,0.7-2.6,0.7c-1,0-1.7-0.2-2-0.5c-0.4-0.3-0.6-0.9-0.6-1.8v-4.6h2.6c1.6,0,2.5,0.7,2.7,2h0.5v-5.1
		h-0.5c0,0.7-0.2,1.2-0.7,1.5c-0.5,0.3-1.2,0.5-2.1,0.5h-2.5v-6.7h3c1.9,0,3,0.9,3.3,2.6h0.5v-3.7l-6.6,0l-6.1,0v0.5
		c0.8,0,1.4,0.2,1.7,0.7c0.3,0.5,0.5,1.2,0.5,2.1v10.2c0,1-0.1,1.7-0.5,2.2c-0.3,0.4-0.9,0.7-1.7,0.7v0.5l6.7-0.1l6.2,0.1l0.4-4
		l-0.5-0.1C224,26.7,223.4,27.4,222.8,27.9z"/>
	<path d="M243.7,28.2c-0.4-0.5-0.9-1.2-1.4-2.1c-0.5-0.8-1.1-1.8-1.7-2.8c-0.6-1-1.3-1.8-2.1-2.5c2.3-0.5,3.4-1.8,3.4-3.9
		c0-1.2-0.5-2.2-1.4-3c-0.9-0.8-2.2-1.1-3.7-1.1h-9.5v0.5c0.8,0,1.4,0.2,1.7,0.7c0.3,0.5,0.5,1.2,0.5,2.1v10.2c0,1-0.1,1.7-0.5,2.2
		c-0.3,0.4-0.9,0.7-1.7,0.7v0.5l4-0.1l4,0.1v-0.5c-0.8,0-1.4-0.2-1.7-0.7c-0.3-0.5-0.5-1.2-0.5-2.1v-4.8h0.8c1.1,0,2.1,0.8,3,2.3
		c0.9,1.6,1.6,2.8,2.1,3.7c0.5,0.9,1,1.6,1.5,2h4.4v-0.5C244.5,29,244.1,28.8,243.7,28.2z M236.9,19.7c-0.6,0.5-1.6,0.8-2.8,0.8
		h-0.9v-6.6h1.1c2.4,0,3.6,1.1,3.6,3.2C237.8,18.3,237.5,19.2,236.9,19.7z"/>
	<path class="st2" d="M250.2,26.8c0,1.4-1.1,2.5-2.5,2.5c-1.4,0-2.5-1.1-2.5-2.5c0-1.4,1.2-2.5,2.5-2.5
		C249.1,24.3,250.2,25.4,250.2,26.8 M245.6,26.8c0,1.2,0.9,2.1,2.1,2.1c1.2,0,2.1-1,2.1-2.1c0-1.2-1-2.1-2.1-2.1
		C246.6,24.7,245.6,25.6,245.6,26.8 M246.8,25.4h1c0.3,0,1,0,1,0.7c0,0.5-0.3,0.6-0.5,0.7c0.4,0,0.4,0.3,0.5,0.6
		c0,0.2,0.1,0.6,0.1,0.7h-0.6c0-0.1-0.1-0.9-0.1-0.9c0-0.2-0.1-0.2-0.3-0.2h-0.5v1.1h-0.5V25.4z M247.3,26.7h0.4
		c0.4,0,0.4-0.3,0.4-0.4c0-0.4-0.3-0.4-0.4-0.4h-0.5V26.7z"/>
</g>
</svg>
